<?xml version="1.0" encoding="UTF-8"?>
<svg width="40px" height="40px" viewBox="0 0 40 40" version="1.1" xmlns="http://www.w3.org/2000/svg" xmlns:xlink="http://www.w3.org/1999/xlink">
    <title>加号</title>
    <g id="H5" stroke="none" stroke-width="1" fill="none" fill-rule="evenodd">
        <g id="创建流动性" transform="translate(-168.000000, -424.000000)">
            <g id="编组-3" transform="translate(16.000000, 228.000000)">
                <g id="加号" transform="translate(152.000000, 196.000000)">
                    <circle id="椭圆形" cx="20" cy="20" r="20"></circle>
                    <g id="编组-16" transform="translate(12.000000, 12.000000)" fill="#FFCA13" fill-rule="nonzero">
                        <path d="M8.41439489,0.499998188 C9.19404637,0.491742634 9.84112792,1.0797402 9.92194797,1.83957078 L9.93035997,1.98394904 L10.0694683,14.9832047 C10.078333,15.8115844 9.41398481,16.4903051 8.58560511,16.4992575 C7.80595363,16.5075131 7.15887208,15.9195155 7.07805203,15.1596849 L7.06964003,15.0153067 L6.93053173,2.01605096 C6.92166703,1.18767126 7.58601519,0.50895058 8.41439489,0.499998188 Z" id="直线-4" transform="translate(8.500000, 8.499628) rotate(0.613113) translate(-8.500000, -8.499628) "></path>
                        <path d="M8.41439489,0.499998188 C9.19404637,0.491742634 9.84112792,1.0797402 9.92194797,1.83957078 L9.93035997,1.98394904 L10.0694683,14.9832047 C10.078333,15.8115844 9.41398481,16.4903051 8.58560511,16.4992575 C7.80595363,16.5075131 7.15887208,15.9195155 7.07805203,15.1596849 L7.06964003,15.0153067 L6.93053173,2.01605096 C6.92166703,1.18767126 7.58601519,0.50895058 8.41439489,0.499998188 Z" id="直线-4" transform="translate(8.500000, 8.499628) rotate(-89.386887) translate(-8.500000, -8.499628) "></path>
                    </g>
                </g>
            </g>
        </g>
    </g>
</svg>