<?xml version="1.0" encoding="UTF-8"?>
<svg width="30px" height="15px" viewBox="0 0 30 15" version="1.1" xmlns="http://www.w3.org/2000/svg" xmlns:xlink="http://www.w3.org/1999/xlink">
    <title>BSC-beta</title>
    <g id="BSC" stroke="none" stroke-width="1" fill="none" fill-rule="evenodd">
        <g id="行情" transform="translate(-711.000000, -20.000000)" fill-rule="nonzero">
            <g id="左侧" transform="translate(50.000000, 18.000000)">
                <g id="BSC-beta" transform="translate(661.000000, 2.000000)">
                    <path d="M22.725,0 L7.275,0 C3.255,0 0,3.255 0,7.275 L0,14.55 L22.725,14.55 C26.745,14.55 30,11.295 30,7.275 C30,3.255 26.745,0 22.725,0 Z" id="路径" fill="#FFC900"></path>
                    <path d="M7.965,10.62 L5.2875,10.62 L5.2875,3.9 L7.7025,3.9 C8.7075,3.9 10.08,4.1775 10.08,5.625 C10.08,6.4125 9.6375,6.8775 9.075,7.095 L9.075,7.1175 C9.69,7.2525 10.3500672,7.7625 10.3500672,8.7 C10.3575,10.1325 9.1125,10.62 7.965,10.62 L7.965,10.62 Z" id="路径" fill="#131415"></path>
                    <path d="M15.825,8.5125 L12.84,8.5125 C12.855,9.06 13.1625,9.525 13.65,9.525 C14.0475,9.525 14.28,9.27 14.415,8.985 L15.7275,9.6 C15.3225,10.335 14.625,10.8 13.575,10.8 C12.1725,10.8 11.1075,9.87 11.1075,8.1525 C11.1075,6.5175 12.1125,5.475 13.5375,5.475 C15.18,5.475 15.825,6.585 15.825,8.0925 L15.825,8.5125 L15.825,8.5125 Z" id="路径" fill="#131415"></path>
                    <path d="M19.68,6.8175 L18.6525,6.8175 L18.6525,8.79 C18.6525,9.2775 18.825,9.48 19.2225,9.48 C19.3725,9.48 19.53,9.45 19.62,9.4125 L19.62,10.5825 C19.4325,10.665 19.02,10.7475 18.6525,10.7475 C17.46,10.7475 16.935,10.2 16.935,9.135 L16.935,6.8175 L16.215,6.8175 L16.215,5.655 L16.92,5.655 L16.92,4.4625 L18.6525,4.4625 L18.6525,5.655 L19.68,5.655 L19.68,6.8175 L19.68,6.8175 Z" id="路径" fill="#131415"></path>
                    <path d="M24.4125,10.62 L22.9425,10.62 L22.9425,10.005 L22.92,10.005 C22.77,10.44 22.305,10.7475 21.6,10.7475 C20.9175,10.7475 20.04,10.38 20.04,9.24 C20.04,7.8825 21.33,7.5 22.5825,7.5 L22.8075,7.5 L22.8075,7.425 C22.8075,6.9525 22.5075,6.7425 22.08,6.7425 C21.645,6.7425 21.27,6.93 21.0225,7.1775 L20.235,6.27 C20.715,5.7825 21.51,5.5125 22.215,5.5125 C23.835,5.5125 24.4125,6.3375 24.4125,7.8 L24.4125,10.62 L24.4125,10.62 Z" id="路径" fill="#131415"></path>
                    <path d="M13.545,6.615 C13.065,6.615 12.84,7.155 12.825,7.545 L14.1825,7.545 C14.1825,7.0125 14.0025,6.615 13.545,6.615 Z" id="路径" fill="#FFC900"></path>
                    <path d="M7.65,7.725 L6.99,7.725 L6.99,9.36 L7.6725,9.36 C8.205,9.36 8.625,9.0975 8.625,8.565 C8.625,7.965 8.115,7.725 7.65,7.725 L7.65,7.725 Z" id="路径" fill="#FFC900"></path>
                    <path d="M8.475,5.8725 C8.475,5.3475 8.0625,5.16 7.5975,5.16 L6.9825,5.16 L6.9825,6.615 L7.6125,6.615 C8.055,6.615 8.475,6.405 8.475,5.8725 L8.475,5.8725 Z" id="路径" fill="#FFC900"></path>
                    <path d="M21.5475,9.1275 C21.5475,9.5175 21.7875,9.6975 22.0725,9.6975 C22.6275,9.6975 22.86,9.195 22.86,8.73 L22.86,8.4525 L22.5375,8.4525 C22.0125,8.4525 21.5475,8.595 21.5475,9.1275 L21.5475,9.1275 Z" id="路径" fill="#FFC900"></path>
                </g>
            </g>
        </g>
    </g>
</svg>