<?xml version="1.0" encoding="UTF-8"?>
<svg width="69px" height="81px" viewBox="0 0 69 81" version="1.1" xmlns="http://www.w3.org/2000/svg" xmlns:xlink="http://www.w3.org/1999/xlink">
    <title>Group</title>
    <g id="PC" stroke="none" stroke-width="1" fill="none" fill-rule="evenodd">
        <g id="首页备份" transform="translate(-1651.000000, -2371.000000)" fill-rule="nonzero">
            <g id="Group" transform="translate(1651.142936, 2371.460806)">
                <path d="M68.498495,55.8208311 C68.498495,69.033257 57.8827109,79.7440444 44.7874775,79.7440444 L9.96745125e-13,79.7440444 L9.96745125e-13,63.7952356 L44.7874775,63.7952356 C49.1525553,63.7952356 52.69115,60.2249731 52.69115,55.8208311 C52.69115,51.4166892 49.1525553,47.8464267 44.7874775,47.8464267 L28.9801325,47.8464267 L28.9801325,31.8976178 L44.7874775,31.8976178 C49.1525553,31.8976178 52.69115,28.3273553 52.69115,23.9232134 C52.69115,19.5190714 49.1525553,15.9488089 44.7874775,15.9488089 L9.96745125e-13,15.9488089 L9.96745125e-13,3.05601029e-11 L44.7874775,3.05601029e-11 C57.8827109,3.05601029e-11 68.498495,10.7107875 68.498495,23.9232134 C68.498495,30.0503824 66.215491,35.6395553 62.4609311,39.8720223 C66.215491,44.1044892 68.498495,49.6936621 68.498495,55.8208311 Z" id="Path" fill="#FE815F" opacity="0.800000012"></path>
                <path d="M0,63.7952356 L38.4678196,63.7952356 C30.2967355,73.4797248 17.2873884,79.7440444 2.6345575,79.7440444 C1.75015027,79.7440444 0.871730271,79.7212238 0,79.6762067 L0,63.7952356 L0,63.7952356 Z M46.5261232,47.8464267 L31.61469,47.8464267 L31.61469,31.8976178 L46.5261232,31.8976178 C47.1136261,34.4742272 47.422035,37.1410611 47.422035,39.8720223 C47.422035,42.6029834 47.1136261,45.2698173 46.5261232,47.8464267 Z M38.4678196,15.9488089 L2.78532752e-12,15.9488089 L2.78532752e-12,0.0678377364 C0.871730271,0.0228210392 1.75015027,0 2.6345575,0 C17.2873884,0 30.2967355,6.26431971 38.4678196,15.9488089 L38.4678196,15.9488089 Z" id="Shape" fill="#000000" opacity="0.119999997"></path>
                <path d="M9.09693149e-13,3.05957623e-11 C21.825389,3.05957623e-11 39.5183625,17.8513124 39.5183625,39.8720223 C39.5183625,61.8927321 21.825389,79.7440444 9.09693149e-13,79.7440444 L9.09693149e-13,63.7952356 C13.0952334,63.7952356 23.7110175,53.0844482 23.7110175,39.8720223 C23.7110175,26.6595964 13.0952334,15.9488089 9.09693149e-13,15.9488089 L9.09693149e-13,3.05957623e-11 Z" id="Path" fill="#FF6238"></path>
            </g>
        </g>
    </g>
</svg>