<?xml version="1.0" encoding="UTF-8"?>
<svg width="21px" height="20px" viewBox="0 0 21 20" version="1.1" xmlns="http://www.w3.org/2000/svg" xmlns:xlink="http://www.w3.org/1999/xlink">
    <title>Discord icon</title>
    <defs>
        <filter color-interpolation-filters="auto" id="filter-1">
            <feColorMatrix in="SourceGraphic" type="matrix" values="0 0 0 0 0.427451 0 0 0 0 0.447059 0 0 0 0 0.470588 0 0 0 1.000000 0"></feColorMatrix>
        </filter>
    </defs>
    <g id="子页" stroke="none" stroke-width="1" fill="none" fill-rule="evenodd">
        <g id="底部" transform="translate(-504.000000, -119.000000)">
            <g id="编组-16" transform="translate(358.000000, 50.000000)">
                <g id="Discord-icon" transform="translate(0.000000, 69.000000)" filter="url(#filter-1)">
                    <g transform="translate(146.051282, 0.000000)">
                        <path d="M9.99810693,3.61556938e-13 C15.5223135,3.61556938e-13 19.9962139,4.46715181 19.9962139,9.9830255 C19.9962139,15.4988992 15.5223135,19.966051 9.99810693,19.966051 C4.47390038,19.966051 3.83146506e-13,15.4988992 3.83146506e-13,9.9830255 C3.83146506e-13,4.46715181 4.47390038,3.61556938e-13 9.99810693,3.61556938e-13 Z M12.2585567,5.14878648 L12.1495976,5.14876811 C12.090269,5.14997347 12.0583229,5.15285457 12.0583229,5.15285457 L11.9169355,5.29402867 C13.8357641,5.78813801 14.8355748,6.71585352 14.8355748,6.71585352 C13.2702147,5.78813801 11.2806924,5.64696392 10.4929627,5.64696392 L10.0688006,5.64696392 C9.2103773,5.64696392 7.22085501,5.85872506 5.72618852,6.71585352 C5.72618852,6.71585352 6.72599921,5.78813801 8.64482781,5.29402867 L8.50344044,5.15285457 L8.40546129,5.15260047 C8.03963002,5.16004745 6.70617506,5.26153622 5.37272009,6.29233122 C5.37272009,6.29233122 3.66597254,9.34774205 3.80735991,12.6855011 C3.80735991,12.6855011 4.87786429,14.3190871 7.22085501,14.3190871 L7.92779186,13.3913716 C7.92779186,13.3913716 6.57451274,12.9678493 6.00896326,12.1107208 C6.00896326,12.1107208 7.64501712,13.2501975 10.1394943,13.3207845 L10.5636564,13.3207845 C13.0581336,13.1796104 14.6941875,12.1107208 14.6941875,12.1107208 C14.128638,12.9678493 12.7753589,13.3913716 12.7753589,13.3913716 L13.4822957,14.3190871 C15.8252864,14.2485 16.8957908,12.6855011 16.8957908,12.6855011 C16.8957908,9.34774205 15.1890433,6.29233122 15.1890433,6.29233122 C13.9591174,5.28610564 12.7291916,5.15763926 12.2585567,5.14878648 Z M8.2206657,9.27715501 C8.85690887,9.27715501 9.36186377,9.8418514 9.36186377,10.4872187 C9.36186377,11.132586 8.85690887,11.6972824 8.2206657,11.6972824 C7.58442253,11.6972824 7.07946764,11.132586 7.07946764,10.4872187 C7.07946764,9.85193526 7.57432344,9.27715501 8.2206657,9.27715501 Z M12.270404,9.27715501 C12.9066471,9.27715501 13.411602,9.8418514 13.411602,10.4872187 C13.4822957,11.1225021 12.9167462,11.6972824 12.270404,11.6972824 C11.6341608,11.6972824 11.1292059,11.132586 11.1292059,10.4872187 C11.1292059,9.85193526 11.6240617,9.27715501 12.270404,9.27715501 Z" id="形状结合" fill="#485266" fill-rule="nonzero"></path>
                    </g>
                </g>
            </g>
        </g>
    </g>
</svg>