<?xml version="1.0" encoding="UTF-8"?>
<svg width="16px" height="16px" viewBox="0 0 16 16" version="1.1" xmlns="http://www.w3.org/2000/svg" xmlns:xlink="http://www.w3.org/1999/xlink">
    <title>域名 icon</title>
    <g id="组件库" stroke="none" stroke-width="1" fill="none" fill-rule="evenodd">
        <g id="画板" transform="translate(-1790.000000, -791.000000)">
            <g id="编组-10" transform="translate(45.000000, 583.000000)">
                <g id="编组-5备份" transform="translate(1725.000000, 75.000000)">
                    <g id="编组-8备份-3" transform="translate(0.000000, 123.000000)">
                        <g id="编组-7" transform="translate(20.000000, 8.000000)">
                            <g id="域名-icon" transform="translate(0.000000, 2.000000)">
                                <rect id="矩形备份-2" x="0" y="0" width="16" height="16"></rect>
                                <g id="编组" transform="translate(0.000000, 1.000000)" fill="#90909E" fill-rule="nonzero">
                                    <path d="M8.79267709,14.1211446 C6.1036711,14.1211446 3.76575842,12.6179354 2.57342274,10.4060006 L4.33348361,10.4057508 C5.35046814,11.7592526 6.9693358,12.6347083 8.79267709,12.6347083 C10.6160184,12.6347083 12.234886,11.7592526 13.2518706,10.4057508 L15.0119315,10.4060006 C13.8195958,12.6179354 11.4816831,14.1211446 8.79267709,14.1211446 Z M8.79267709,0 C11.4820912,0 13.8203054,1.50366551 15.0124742,3.71615106 L13.2526323,3.71640771 C12.2356945,2.36232917 10.6164736,1.48643627 8.79267709,1.48643627 C6.96888054,1.48643627 5.34965973,2.36232917 4.33272193,3.71640771 L2.57287994,3.71615106 C3.76504879,1.50366551 6.10326299,0 8.79267709,0 Z" id="形状结合"></path>
                                    <path d="M0.568561873,8.97212932 C0.903010033,8.97212932 1.14381271,8.73132664 1.14381271,8.39018952 C1.14381271,8.0490524 0.903010033,7.81493868 0.568561873,7.81493868 C0.234113712,7.81493868 0,8.0490524 0,8.39018952 C0,8.73132664 0.234113712,8.97212932 0.568561873,8.97212932 Z M3.41137124,8.95875139 C4.18060201,8.95875139 4.76923077,8.64437012 5.05685619,8.08918618 L4.18060201,7.58751394 C4.03344482,7.86845039 3.78595318,7.99554069 3.47157191,7.99554069 C3.04347826,7.99554069 2.74916388,7.6477146 2.74916388,7.11928651 C2.74916388,6.59754738 3.04347826,6.24303233 3.47157191,6.24303233 C3.77926421,6.24303233 4.02006689,6.38350056 4.18060201,6.61761427 L5.04347826,6.11594203 C4.72909699,5.57413601 4.15384615,5.25975474 3.42474916,5.25975474 C2.30100334,5.25975474 1.55183946,6.00222965 1.55183946,7.12597547 C1.55183946,8.2296544 2.29431438,8.95875139 3.41137124,8.95875139 Z M7.28428094,8.95875139 C8.47491639,8.95875139 9.26421405,8.22296544 9.26421405,7.10590858 C9.26421405,5.99554069 8.47491639,5.25975474 7.28428094,5.25975474 C6.09364548,5.25975474 5.31103679,5.99554069 5.31103679,7.10590858 C5.31103679,8.22296544 6.09364548,8.95875139 7.28428094,8.95875139 Z M7.28428094,8.02229654 C6.82274247,8.02229654 6.5083612,7.66109253 6.5083612,7.11928651 C6.5083612,6.58416945 6.82274247,6.22296544 7.28428094,6.22296544 C7.75250836,6.22296544 8.06688963,6.58416945 8.06688963,7.11928651 C8.06688963,7.66109253 7.75250836,8.02229654 7.28428094,8.02229654 Z M11.0568562,8.91861761 L11.0568562,7.13266444 C11.0568562,6.65774805 11.3244147,6.32329989 11.7458194,6.31661093 C12.1137124,6.31661093 12.3411371,6.56410256 12.3411371,6.97881828 L12.3411371,8.91861761 L13.5317726,8.91861761 L13.5317726,7.13266444 C13.5317726,6.65774805 13.7926421,6.32329989 14.2140468,6.31661093 C14.5819398,6.31661093 14.8093645,6.56410256 14.8093645,6.97881828 L14.8093645,8.91861761 L16,8.91861761 L16,6.63768116 C16,5.78818283 15.4849498,5.25306577 14.7023411,5.25306577 C14.1137124,5.25306577 13.6722408,5.52731327 13.4381271,6.06243032 C13.2575251,5.55406912 12.8227425,5.25306577 12.2341137,5.25306577 C11.7123746,5.25306577 11.3043478,5.47380156 11.0568562,5.89520624 L11.0568562,5.29988852 L9.8729097,5.29988852 L9.8729097,8.91861761 L11.0568562,8.91861761 Z" id=".com"></path>
                                </g>
                            </g>
                        </g>
                    </g>
                </g>
            </g>
        </g>
    </g>
</svg>