<?xml version="1.0" encoding="UTF-8"?>
<svg width="61px" height="67px" viewBox="0 0 61 67" version="1.1" xmlns="http://www.w3.org/2000/svg" xmlns:xlink="http://www.w3.org/1999/xlink">
    <title>记录@1x</title>
    <g id="H5主页" stroke="none" stroke-width="1" fill="none" fill-rule="evenodd">
        <g id="我的流动资金(无记录）" transform="translate(-157.000000, -490.000000)">
            <g id="编组-3" transform="translate(16.000000, 228.000000)">
                <g id="编组-51" transform="translate(141.000000, 262.000000)">
                    <g id="记录" transform="translate(0.000000, 0.000000)">
                        <path d="M32.0559199,-4.52357454e-05 L32.0566539,13.2252541 C32.0566539,16.231494 34.4901104,18.668533 37.4919312,18.668533 L37.4919312,18.668533 L50.7129199,18.6679548 L50.713765,58.480206 C50.713765,60.6333877 48.9682664,62.3788864 46.8150846,62.3788864 L3.92960026,62.3788864 C1.77641853,62.3788864 0.0309198533,60.6333877 0.0309198533,58.480206 L0.0309198533,3.8986804 C0.0309198533,1.74549867 1.77641853,-1.3483477e-15 3.92960026,-1.3483477e-15 L32.0559199,-4.52357454e-05 Z M27.0963042,47.1525289 L9.2548068,47.1525289 C8.37502225,47.1525289 7.66181596,47.8657352 7.66181596,48.7455197 C7.66181596,49.6253043 8.37502225,50.3385106 9.2548068,50.3385106 L9.2548068,50.3385106 L27.0963042,50.3385106 C27.9760888,50.3385106 28.6892951,49.6253043 28.6892951,48.7455197 C28.6892951,47.8657352 27.9760888,47.1525289 27.0963042,47.1525289 L27.0963042,47.1525289 Z M31.5566786,38.8689765 L9.2548068,38.8689765 C8.37502225,38.8689765 7.66181596,39.5821828 7.66181596,40.4619673 C7.66181596,41.3417519 8.37502225,42.0549582 9.2548068,42.0549582 L9.2548068,42.0549582 L31.5566786,42.0549582 C32.4364631,42.0549582 33.1496694,41.3417519 33.1496694,40.4619673 C33.1496694,39.5821828 32.4364631,38.8689765 31.5566786,38.8689765 L31.5566786,38.8689765 Z M35.1190434,-1.3483477e-15 L50.713765,15.5947216 L50.7129199,15.6599548 L35.0519199,-4.52357454e-05 L35.1190434,-1.3483477e-15 Z" id="形状结合" fill="#B5BACC" fill-rule="nonzero"></path>
                        <path d="M50.6589399,15.5947216 L39.0177238,15.5947216 C36.8645421,15.5947216 35.1190434,13.8492229 35.1190434,11.6960412 L35.1190434,0.0776690017 L50.6589399,15.5947216 Z" id="路径" fill="#B5BACC" fill-rule="nonzero"></path>
                        <g id="编组-16" transform="translate(35.045798, 41.417762)">
                            <circle id="椭圆形" fill="#FFCA13" cx="12.1067304" cy="12.1067304" r="12.1067304"></circle>
                            <rect id="矩形" fill="#FFFFFF" x="10.8323377" y="5.09757069" width="2.54878534" height="10.1951414" rx="1.27439267"></rect>
                            <circle id="椭圆形" fill="#FFFFFF" cx="12.1067304" cy="18.4786937" r="1.27439267"></circle>
                        </g>
                        <g id="编组-15" transform="translate(7.646356, 14.018319)" fill="#FFFFFF">
                            <path d="M0.00241050456,13.4705117 C0.00241050456,14.8368432 1.18359764,15.9299084 2.62017658,15.9299084 L2.87556839,15.9299084 L2.81172044,4.60453862 C2.81172044,4.20982064 2.90749237,3.8758285 3.09903623,3.57219929 C3.29058009,3.26857007 3.57789588,3.05602962 3.96098359,2.87385209 C4.34407131,2.72203748 4.72715903,2.66131164 5.07832277,2.72203748 C5.42948651,2.78276332 5.78065026,2.93457793 6.06796604,3.20784423 L10.7288666,7.18538696 C10.7607906,7.21574989 10.9523345,7.36756449 11.1119543,7.5193791 C11.590814,7.91409708 11.8462058,8.12663754 11.8462058,8.76425889 C11.8462058,9.31079148 11.622738,9.79659823 11.2396502,10.1609533 C10.8565625,10.5253083 10.3457789,10.7378488 9.77114732,10.7378488 C9.19651574,10.7378488 8.68573212,10.5253083 8.3026444,10.1609533 C7.91955668,9.79659823 7.69608885,9.31079148 7.69608885,8.76425889 C7.69608885,8.09627461 7.98340464,7.85337124 8.49418826,7.42829034 C8.55803621,7.36756449 8.94112393,7.03357236 9.10074381,6.91212067 L6.96183739,5.09034537 L6.57874967,5.42433751 C5.42948651,6.395951 4.82293096,6.91212067 4.82293096,8.79462181 C4.82293096,10.1002274 5.36563856,11.2540185 6.2595099,12.1041803 C7.15338125,12.9543421 8.39841633,13.4705117 9.73922335,13.4705117 C11.1119543,13.4705117 12.3250654,12.9543421 13.2189368,12.1041803 C14.1128081,11.2540185 14.6555157,10.0698645 14.6555157,8.79462181 C14.6555157,6.94248359 14.0170362,6.395951 12.899697,5.51542627 C12.8358491,5.45470043 12.7720011,5.39397459 12.5485333,5.21179706 L7.98340464,1.17352848 C7.28107715,0.566270042 6.41912979,0.171552061 5.52525844,0.0501003742 C4.6313871,-0.0713513125 3.70559178,0.0197374525 2.81172044,0.414455434 C1.9178491,0.778810494 1.21552161,1.38606893 0.736661965,2.11477905 C0.257802317,2.84348917 -0.029513472,3.69365097 0.00241050456,4.60453862 L0.00241050456,13.4705117 L0.00241050456,13.4705117 Z" id="路径"></path>
                            <path d="M12.9043398,3.72052198 L13.545992,3.20420465 C13.8668182,2.93086017 14.258939,2.77900213 14.6510598,2.71825892 C15.0431806,2.6575157 15.4709488,2.71825892 15.898717,2.87011696 C16.2908378,3.021975 16.6116639,3.26494786 16.8611954,3.56866394 C17.0750794,3.87238002 17.2176688,4.20646771 17.1820215,4.60129861 L17.1107268,15.9299084 L17.3959056,15.9299084 C19.0000362,15.9299084 20.2833407,14.8365305 20.3189881,13.4698082 L20.3902828,4.60129861 C20.3902828,3.69015037 20.105104,2.80937374 19.5703938,2.11082676 C19.0356836,1.38190816 18.2157946,0.804847612 17.2533162,0.410016708 C16.2551904,0.045557412 15.2214174,-0.07592902 14.2232916,0.045557412 C13.2251659,0.167043844 12.2626875,0.561874748 11.4784459,1.16930691 L10.8367936,1.68562424 L10.1951414,2.20194158 L12.5835137,4.02423806 L12.9043398,3.72052198 Z" id="路径"></path>
                        </g>
                    </g>
                </g>
            </g>
        </g>
    </g>
</svg>