<?xml version="1.0" encoding="UTF-8"?>
<svg width="24px" height="24px" viewBox="0 0 24 24" version="1.1" xmlns="http://www.w3.org/2000/svg" xmlns:xlink="http://www.w3.org/1999/xlink">
    <title>FAQ icon</title>
    <defs>
        <linearGradient x1="50%" y1="1.80417375%" x2="50%" y2="99.8798077%" id="linearGradient-1">
            <stop stop-color="#C1C1CF" offset="0%"></stop>
            <stop stop-color="#868694" offset="100%"></stop>
        </linearGradient>
    </defs>
    <g id="组件库" stroke="none" stroke-width="1" fill="none" fill-rule="evenodd">
        <g id="抽屉式滑页" transform="translate(-28.000000, -226.000000)">
            <g id="编组-43" transform="translate(0.000000, 88.000000)">
                <g id="编组-12" transform="translate(16.000000, 126.000000)">
                    <g id="编组-17备份-5" transform="translate(12.000000, 0.000000)">
                        <g id="FAQ-icon" transform="translate(0.000000, 12.000000)">
                            <rect id="矩形备份-2" x="0" y="0" width="24" height="24"></rect>
                            <g id="编组-24" transform="translate(1.827586, 4.327586)">
                                <path d="M19.3448276,0 C19.8971123,0 20.3448276,0.44771525 20.3448276,1 C20.3448276,1.51283584 19.9587874,1.93550716 19.4614487,1.99327227 L19.3448276,2 L19.017,2 L19.0172414,8.46551724 C19.0172414,10.6746562 17.2263804,12.4655172 15.0172414,12.4655172 L13.755,12.465 L15.9946269,14.7417932 L16.084905,14.8440403 C16.4756868,15.3381356 16.4393479,16.0576795 15.9799759,16.5094995 C15.4877915,16.9935923 14.6963624,16.9870328 14.2122696,16.4948484 L14.2122696,16.4948484 L11.422,13.658 L11.4224138,14.1962787 C11.4224138,14.8866346 10.8627697,15.4462787 10.1724138,15.4462787 C9.5252051,15.4462787 8.99287989,14.954404 8.9288674,14.3240839 L8.92241379,14.1962787 L8.922,13.805 L6.27762021,16.4948484 C5.7935274,16.9870328 5.00209836,16.9935923 4.50991397,16.5094995 C4.05054188,16.0576795 4.01420301,15.3381356 4.40498486,14.8440403 L4.49526289,14.7417932 L6.734,12.465 L5.32758621,12.4655172 C3.11844721,12.4655172 1.32758621,10.6746562 1.32758621,8.46551724 L1.327,2 L1,2 C0.44771525,2 0,1.55228475 0,1 C0,0.487164161 0.38604019,0.0644928393 0.883378875,0.00672773133 L1,0 L19.3448276,0 Z" id="形状结合" fill="url(#linearGradient-1)"></path>
                                <g id="编组-28" transform="translate(4.577969, 3.839080)" fill="#FFFFFF">
                                    <circle id="椭圆形" cx="2.11111111" cy="2.85" r="2.11111111"></circle>
                                    <g id="编组-27" transform="translate(6.759195, 0.000000)" fill-rule="nonzero">
                                        <path d="M3.67624521,0 C4.25921245,0 4.73180077,0.47258832 4.73180077,1.05555556 C4.73180077,1.59688227 4.3243139,2.04303534 3.79934529,2.10400962 L3.67624521,2.11111111 L1.05555556,2.11111111 C0.47258832,2.11111111 0,1.63852279 0,1.05555556 C0,0.514228836 0.407486867,0.0680757748 0.932455479,0.00710149418 L1.05555556,0 L3.67624521,0 Z" id="直线-9"></path>
                                        <path d="M3.67624521,3.5743295 C4.25921245,3.5743295 4.73180077,4.04691782 4.73180077,4.62988506 C4.73180077,5.17121178 4.3243139,5.61736484 3.79934529,5.67833912 L3.67624521,5.68544061 L1.05555556,5.68544061 C0.47258832,5.68544061 0,5.21285229 0,4.62988506 C0,4.08855834 0.407486867,3.64240528 0.932455479,3.581431 L1.05555556,3.5743295 L3.67624521,3.5743295 Z" id="直线-9备份"></path>
                                    </g>
                                </g>
                            </g>
                        </g>
                    </g>
                </g>
            </g>
        </g>
    </g>
</svg>