<?xml version="1.0" encoding="UTF-8"?>
<svg width="30px" height="29px" viewBox="0 0 30 29" version="1.1" xmlns="http://www.w3.org/2000/svg" xmlns:xlink="http://www.w3.org/1999/xlink">
    <title>流动性激励</title>
    <defs>
        <linearGradient x1="86.3919181%" y1="41.1632987%" x2="35.1952948%" y2="70.3194452%" id="linearGradient-1">
            <stop stop-color="#C1C1CF" offset="0%"></stop>
            <stop stop-color="#868694" offset="100%"></stop>
        </linearGradient>
    </defs>
    <g id="组件库" stroke="none" stroke-width="1" fill="none" fill-rule="evenodd">
        <g id="抽屉式滑页" transform="translate(-26.000000, -464.000000)">
            <g id="编组-43" transform="translate(0.000000, 88.000000)">
                <g id="编组-12" transform="translate(16.000000, 126.000000)">
                    <g id="编组-17备份-3" transform="translate(12.000000, 240.000000)">
                        <g id="流动性激励" transform="translate(0.000000, 12.000000)">
                            <g id="编组" transform="translate(13.077298, 12.455139) rotate(-45.000000) translate(-13.077298, -12.455139) translate(-0.127452, 5.456739)">
                                <path d="M26.4094999,7.04611261 C26.4094999,8.69556829 25.0723519,10.0327163 23.4228962,10.0327163 L18.6407759,10.0327163 C18.2240041,10.0327163 17.8861125,9.69491545 17.8860005,9.27814372 C17.8858879,8.85905565 17.5503748,8.51714745 17.1313635,8.50912299 L14.8617892,8.46565853 C14.5856974,8.46037111 14.3575945,8.6799014 14.3523071,8.95599315 C14.3519437,8.97497127 14.3526612,8.99395469 14.3544563,9.01285123 L14.7239259,12.9022313 C14.7761547,13.4520409 14.3727858,13.9400895 13.8229762,13.9923183 C13.7915418,13.9953044 13.7599835,13.9968 13.7284075,13.9968 L10.2971554,13.9968 L10.2971554,13.9968 C5.39461108,13.9968 3.64531385,12.239774 1.67820263,9.44593689 L0.7911758,8.15929164 C0.315761846,7.46969682 0.320411948,6.55690348 0.802827138,5.87218819 L2.25396982,3.81251098 L2.25396982,3.81251098 C3.99920777,1.50804327 5.81342969,0.070960248 10.1378216,0.0275257168 L13.6948039,0.00652713178 C14.2470791,0.00326678491 14.6974295,0.4483312 14.7006899,1.00060633 C14.7008872,1.03403743 14.699408,1.06745739 14.6962577,1.10074032 L14.3194531,5.08169712 C14.293432,5.35661077 14.4951993,5.60056656 14.770113,5.62658762 C14.7826274,5.62777213 14.795182,5.62848429 14.80775,5.62872258 L17.0710125,5.67163374 C17.5121613,5.67999787 17.8765635,5.32915655 17.8849277,4.88800772 C17.8850249,4.88288134 17.8850727,4.87775414 17.8850712,4.87262684 C17.8849382,4.42302384 18.2493057,4.0584408 18.6989086,4.05830782 C18.6990312,4.05830779 18.6991537,4.05830778 18.6992762,4.0583078 L23.4228962,4.05904364 C25.0724271,4.05930061 26.4094999,5.39658167 26.4094999,7.04611261 Z" id="路径" fill="url(#linearGradient-1)"></path>
                                <line x1="7.25995272" y1="7.03794618" x2="10.3751841" y2="7.00704373" id="直线-10" stroke="#FFFFFF" stroke-width="2" stroke-linecap="round"></line>
                            </g>
                        </g>
                    </g>
                </g>
            </g>
        </g>
    </g>
</svg>