<?xml version="1.0" encoding="UTF-8"?>
<svg width="24px" height="24px" viewBox="0 0 24 24" version="1.1" xmlns="http://www.w3.org/2000/svg" xmlns:xlink="http://www.w3.org/1999/xlink">
    <title>生态基金</title>
    <defs>
        <linearGradient x1="50%" y1="1.80417375%" x2="50%" y2="99.8798077%" id="linearGradient-1">
            <stop stop-color="#C1C1CF" offset="0%"></stop>
            <stop stop-color="#868694" offset="100%"></stop>
        </linearGradient>
    </defs>
    <g id="组件库" stroke="none" stroke-width="1" fill="none" fill-rule="evenodd">
        <g id="抽屉式滑页" transform="translate(-28.000000, -562.000000)">
            <g id="编组-43" transform="translate(0.000000, 88.000000)">
                <g id="编组-12" transform="translate(16.000000, 126.000000)">
                    <g id="编组-17备份-4" transform="translate(12.000000, 336.000000)">
                        <g id="生态基金" transform="translate(0.000000, 12.000000)">
                            <rect id="矩形备份-2" x="0" y="0" width="24" height="24"></rect>
                            <g id="编组" transform="translate(4.000000, 3.000000)">
                                <path d="M13,0 C15.209139,-4.05812251e-16 17,1.790861 17,4 L17,10.3157895 C17,12.5249285 15.209139,14.3157895 13,14.3157895 L10.121,14.315 L10.121,16.217 L12.3026316,16.2171053 C12.8894341,16.2171053 13.3651316,16.6928027 13.3651316,17.2796053 C13.3651316,17.8664078 12.8894341,18.3421053 12.3026316,18.3421053 L4.80921053,18.3421053 C4.22240798,18.3421053 3.74671053,17.8664078 3.74671053,17.2796053 C3.74671053,16.6928027 4.22240798,16.2171053 4.80921053,16.2171053 L6.878,16.217 L6.878,14.315 L4,14.3157895 C1.790861,14.3157895 2.705415e-16,12.5249285 0,10.3157895 L0,4 C-2.705415e-16,1.790861 1.790861,4.05812251e-16 4,0 L13,0 Z" id="形状结合" fill="url(#linearGradient-1)"></path>
                                <path d="M4.99375,8.765625 C5.75895989,7.92901471 6.39408113,7.47803775 6.89911372,7.41269412 C7.65666261,7.31467867 8.51571883,8.01306518 8.89120793,8.23430575 C9.26669703,8.45554631 10.2991126,9.02567825 11.651777,7.79517148 C11.9689339,7.49768408 12.2287582,7.20137692 12.43125,6.90625" id="路径-19" stroke="#FFFFFF" stroke-width="2" stroke-linecap="round" stroke-linejoin="round" fill-rule="nonzero"></path>
                            </g>
                        </g>
                    </g>
                </g>
            </g>
        </g>
    </g>
</svg>