<svg width="24" height="24" viewBox="0 0 24 24" fill="none" xmlns="http://www.w3.org/2000/svg">
<circle cx="14.05" cy="10.75" r="2.75" stroke="#8890A1" stroke-width="2"/>
<line x1="11" y1="17" x2="17" y2="17" stroke="#8890A1" stroke-width="2" stroke-linecap="round"/>
<path d="M6.5 3L6.94721 2.10557C6.63723 1.95058 6.26909 1.96714 5.97427 2.14935C5.67945 2.33156 5.5 2.65342 5.5 3H6.5ZM2.5 13V12C1.94772 12 1.5 12.4477 1.5 13H2.5ZM10.5 5L10.0528 5.89443C10.3518 6.04395 10.7058 6.03413 10.9961 5.86824L10.5 5ZM14 3L14.4472 2.10557C14.1482 1.95605 13.7942 1.96587 13.5039 2.13176L14 3ZM18 5L17.5528 5.89443C17.8518 6.04395 18.2058 6.03413 18.4961 5.86824L18 5ZM21.5 3H22.5C22.5 2.64353 22.3102 2.31401 22.0019 2.13509C21.6936 1.95617 21.3134 1.9549 21.0039 2.13176L21.5 3ZM20.5 13C20.5 13.5523 20.9477 14 21.5 14C22.0523 14 22.5 13.5523 22.5 13H20.5ZM22.5 17C22.5 16.4477 22.0523 16 21.5 16C20.9477 16 20.5 16.4477 20.5 17H22.5ZM5.5 3V19H7.5V3H5.5ZM3.5 19V13H1.5V19H3.5ZM2.5 14H6V12H2.5V14ZM6.05279 3.89443L10.0528 5.89443L10.9472 4.10557L6.94721 2.10557L6.05279 3.89443ZM10.9961 5.86824L14.4961 3.86824L13.5039 2.13176L10.0039 4.13176L10.9961 5.86824ZM13.5528 3.89443L17.5528 5.89443L18.4472 4.10557L14.4472 2.10557L13.5528 3.89443ZM18.4961 5.86824L21.9961 3.86824L21.0039 2.13176L17.5039 4.13176L18.4961 5.86824ZM18.5 20H4.5V22H18.5V20ZM20.5 3V13H22.5V3H20.5ZM20.5 17V18H22.5V17H20.5ZM18.5 22C20.7091 22 22.5 20.2091 22.5 18H20.5C20.5 19.1046 19.6046 20 18.5 20V22ZM4.5 20C3.94772 20 3.5 19.5523 3.5 19H1.5C1.5 20.6569 2.84315 22 4.5 22V20ZM4.5 22C6.15685 22 7.5 20.6569 7.5 19H5.5C5.5 19.5523 5.05228 20 4.5 20V22Z" fill="#8890A1"/>
</svg>
