<?xml version="1.0" encoding="UTF-8"?>
<svg width="21px" height="20px" viewBox="0 0 21 20" version="1.1" xmlns="http://www.w3.org/2000/svg" xmlns:xlink="http://www.w3.org/1999/xlink">
    <title>Github icon</title>
    <defs>
        <filter color-interpolation-filters="auto" id="filter-1">
            <feColorMatrix in="SourceGraphic" type="matrix" values="0 0 0 0 0.427451 0 0 0 0 0.447059 0 0 0 0 0.470588 0 0 0 1.000000 0"></feColorMatrix>
        </filter>
    </defs>
    <g id="子页" stroke="none" stroke-width="1" fill="none" fill-rule="evenodd">
        <g id="底部" transform="translate(-358.000000, -119.000000)">
            <g id="编组-16" transform="translate(358.000000, 50.000000)">
                <g id="Github-icon" transform="translate(0.000000, 69.000000)" filter="url(#filter-1)">
                    <g transform="translate(-0.000000, 0.000000)">
                        <path d="M0,10.2608705 C0,8.87059698 0.266093235,7.54123113 0.797649432,6.27211154 C1.32918593,5.00299194 2.04484083,3.91064279 2.94463383,2.99504405 C3.84375715,2.08012673 4.91726905,1.35190064 6.16513011,0.810345745 C7.40370652,0.271562389 8.73736352,-0.00417010765 10.0843624,0 C11.449986,0 12.7563836,0.270153707 14.0035947,0.811688559 C15.2514558,1.35258207 16.3249677,2.08080815 17.224091,2.9964069 C18.123884,3.91132422 18.8395586,5.00369341 19.3710754,6.2734744 C19.9008388,7.53328744 20.1722642,8.8898929 20.168759,10.260189 C20.168759,12.4912244 19.5285254,14.498511 18.2481462,16.2826899 C16.9683973,18.0662075 15.3236811,19.3055246 13.3146082,20 C13.2092148,20 13.1304898,19.9801584 13.0784529,19.9404151 C13.0257464,19.9006919 12.9958084,19.8603073 12.9893088,19.8199226 C12.9815943,19.7602402 12.9783351,19.7000488 12.9795592,19.6398653 C12.9690037,19.6213842 12.9623556,19.6008645 12.9600405,19.579619 L12.9600405,16.9944014 C12.9600405,16.1800949 12.6776783,15.4849582 12.112954,14.9103139 C13.6229888,14.6428534 14.7524374,14.0721775 15.5006498,13.1969835 C16.2488426,12.3217693 16.623579,11.2625296 16.623579,10.0198855 C16.623579,8.85734922 16.2559922,7.84841487 15.5201686,6.99374381 C15.783012,6.13839131 15.7368248,5.23670171 15.3828873,4.28801362 C15.0146308,4.2615181 14.6145259,4.32509132 14.1812331,4.47867317 C13.7479207,4.63225502 13.426521,4.77591608 13.2157342,4.90897492 C13.0062276,5.04271519 12.8155899,5.1698416 12.6451405,5.29031406 C11.8832984,5.07648596 11.0329425,4.96924122 10.0947816,4.96924122 C9.15528144,4.96924122 8.31211451,5.07648596 7.56327181,5.29031406 C7.41884089,5.18308936 7.25099141,5.06656517 7.06102329,4.93943876 C6.87036582,4.81233239 6.53921663,4.65875055 6.06623639,4.47867317 C5.59388643,4.29793441 5.16711306,4.22113347 4.7858375,4.24829038 C4.41825068,5.21022623 4.37921316,6.12514355 4.668075,6.99372377 C3.94592041,7.84907626 3.58483327,8.85734922 3.58483327,10.0198654 C3.58483327,11.2625095 3.9524201,12.3184624 4.68761345,13.1863812 C5.4227871,14.0549815 6.5522357,14.6296057 8.07528956,14.9103139 C7.68538655,15.2911375 7.41200006,15.7785474 7.28805932,16.3138352 C6.1716298,16.593862 5.39024928,16.3932616 4.94393746,15.7113727 C4.11636977,14.4826377 3.37467673,14.0417337 2.71822807,14.3893021 C2.62585374,14.4826377 2.63950308,14.5793003 2.75726558,14.6799311 C2.87567806,14.7799006 3.0526271,14.9136209 3.28945205,15.0804705 C3.52560734,15.2479615 3.70259578,15.4313458 3.82098855,15.6319262 C3.83400762,15.6584217 3.87042557,15.7557256 3.9296515,15.9225753 C3.98621415,16.0836988 4.04521072,16.2439268 4.10662024,16.4032025 C4.16517651,16.5567843 4.2770696,16.7276023 4.44166924,16.9142735 C4.60561892,17.1016461 4.7962567,17.258555 5.01291292,17.3856613 C5.22956915,17.5121063 5.52818051,17.6061233 5.90878641,17.6663696 C6.2893923,17.7259344 6.72268506,17.7292614 7.20868436,17.6762904 L7.20868436,19.6901908 C7.20868436,19.7100524 7.20543451,19.7431618 7.19893483,19.7908216 C7.19243514,19.8371587 7.17941607,19.8702681 7.15989732,19.8901298 C7.14037856,19.9106528 7.11371015,19.9305144 7.08052235,19.9510374 C7.0414288,19.9724661 6.99737427,19.9827558 6.95301032,19.9808198 C6.90030377,19.9808198 6.83459784,19.9742059 6.75587285,19.9609782 C4.75981906,19.2525937 3.13525191,18.0132565 1.88091085,16.2429867 C0.62716068,14.4727169 0,12.4793395 0,10.2615519 L0,10.2608705 Z" fill="#485266" fill-rule="nonzero"></path>
                    </g>
                </g>
            </g>
        </g>
    </g>
</svg>