<?xml version="1.0" encoding="UTF-8"?>
<svg width="16px" height="16px" viewBox="0 0 16 16" version="1.1" xmlns="http://www.w3.org/2000/svg" xmlns:xlink="http://www.w3.org/1999/xlink">
    <title>info</title>
    <g id="组件库" stroke="none" stroke-width="1" fill="none" fill-rule="evenodd">
        <g id="画板" transform="translate(-1790.000000, -719.000000)">
            <g id="编组-10" transform="translate(45.000000, 583.000000)">
                <g id="编组-5备份" transform="translate(1725.000000, 75.000000)">
                    <g id="编组-8备份-2" transform="translate(0.000000, 51.000000)">
                        <g id="编组-7" transform="translate(20.000000, 8.000000)">
                            <g id="info" transform="translate(0.000000, 2.000000)">
                                <rect id="矩形" x="0" y="0" width="16" height="16"></rect>
                                <g id="编组">
                                    <path d="M8,3.4119049e-16 C3.58204878,3.4119049e-16 0,3.58126829 0,8 C0,12.4179512 3.58204878,16 8,16 C12.4187317,16 16,12.4179512 16,8 C16,3.58126829 12.4187317,3.4119049e-16 8,3.4119049e-16 Z M8,14.8 C4.24468292,14.8 1.20000001,11.7557073 1.20000001,8 C1.20000001,4.24468292 4.24468292,1.20000001 8,1.20000001 C11.7553171,1.20000001 14.8,4.24468292 14.8,8 C14.8,11.7557073 11.7553171,14.8 8,14.8 Z M12.8273171,5.17151219 C12.7035558,5.04728269 12.5314944,4.98365137 12.3566829,4.99746343 C12.343691,4.99664843 12.3306759,4.99625798 12.3176585,4.99629269 L9.51804878,4.99512196 C9.19845511,5.01142594 8.94769196,5.2753078 8.94769196,5.59531708 C8.94769196,5.91532635 9.19845511,6.17920821 9.51804878,6.19551219 L10.9545366,6.19551219 L8.71843902,8.43082928 L7.15629268,6.86790244 C7.04135579,6.75282882 6.88456818,6.6894376 6.72195122,6.69229269 C6.56351219,6.68839024 6.40429269,6.74692683 6.28370731,6.86790244 L3.17268293,9.97892684 C2.94728639,10.214688 2.95143027,10.5873 3.1820143,10.8179901 C3.41259832,11.0486802 3.78520841,11.0529954 4.02107316,10.8277073 L6.71960975,8.12878048 L8.28760976,9.69678049 C8.40468293,9.81385366 8.55882927,9.87239025 8.71297561,9.87239025 C8.87102439,9.87551221 9.0302439,9.81736587 9.15082926,9.69678049 L11.8025366,7.04429269 L11.8025366,8.40936585 C11.8031808,8.74036175 12.0713456,9.00852656 12.4023415,9.00917073 C12.7340488,9.00917073 13.0040976,8.74107318 13.0033794,8.4097561 L13.0033794,5.6097561 L13.0033794,5.60273172 C13.0056529,5.44101544 12.9422844,5.28526965 12.8277073,5.17112195 L12.8273171,5.17151219 Z" id="形状" fill="#CDA76E" fill-rule="nonzero"></path>
                                    <circle id="椭圆形" stroke="#90909E" stroke-width="1.5" cx="8" cy="8" r="7.25"></circle>
                                    <polyline id="路径-2" stroke="#90909E" stroke-width="1.5" stroke-linecap="round" stroke-linejoin="round" points="3.57588746 10.4284742 6.73043227 7.31863063 8.75923593 9.29583467 12.388249 5.64916183"></polyline>
                                    <polyline id="路径-3" stroke="#90909E" stroke-width="1.5" stroke-linecap="round" stroke-linejoin="round" points="9.42357313 5.60200448 12.4089831 5.60200448 12.4089831 8.51583167"></polyline>
                                </g>
                            </g>
                        </g>
                    </g>
                </g>
            </g>
        </g>
    </g>
</svg>