<?xml version="1.0" encoding="UTF-8"?>
<svg width="16px" height="16px" viewBox="0 0 16 16" version="1.1" xmlns="http://www.w3.org/2000/svg" xmlns:xlink="http://www.w3.org/1999/xlink">
    <title>邀请返佣</title>
    <g id="组件库" stroke="none" stroke-width="1" fill="none" fill-rule="evenodd">
        <g id="导航" transform="translate(-1771.000000, -467.000000)">
            <g id="编组-15" transform="translate(0.000000, 223.000000)">
                <g id="编组-10" transform="translate(1751.000000, 75.000000)">
                    <g id="编组-8备份-4" transform="translate(0.000000, 160.000000)">
                        <g id="编组-7" transform="translate(20.000000, 6.500000)">
                            <g id="邀请返佣" transform="translate(0.000000, 2.500000)">
                                <rect id="矩形备份-2" x="0" y="0" width="16" height="16"></rect>
                                <g id="编组-13" transform="translate(0.300000, 0.577070)" stroke="#90909E" stroke-width="1.5">
                                    <rect id="矩形" x="0.75" y="4.31687898" width="13.7866242" height="3.75477707" rx="1.87738854"></rect>
                                    <path d="M12.9701181,8.12625216 L12.9701181,12.1262522 C12.9701181,13.2308217 12.0746876,14.1262522 10.9701181,14.1262522 L4.1417202,14.1262522 C3.0371507,14.1262522 2.1417202,13.2308217 2.1417202,12.1262522 L2.1417202,8.12625216 L2.1417202,8.12625216" id="路径"></path>
                                    <g id="编组-11" transform="translate(3.347134, 0.000000)">
                                        <path d="M6,0.75 C6.48324916,0.75 6.92074916,0.945875422 7.23743687,1.26256313 C7.55412458,1.57925084 7.75,2.01675084 7.75,2.5 C7.75,2.98324916 7.55412458,3.42074916 7.23743687,3.73743687 C6.92074916,4.05412458 6.48324916,4.25 6,4.25 L6,4.25 L4.25,4.25 L4.25,2.5 C4.25,2.01675084 4.44587542,1.57925084 4.76256313,1.26256313 C5.07925084,0.945875422 5.51675084,0.75 6,0.75 Z" id="矩形"></path>
                                        <path d="M2.5,0.75 C2.98324916,0.75 3.42074916,0.945875422 3.73743687,1.26256313 C4.05412458,1.57925084 4.25,2.01675084 4.25,2.5 C4.25,2.98324916 4.05412458,3.42074916 3.73743687,3.73743687 C3.42074916,4.05412458 2.98324916,4.25 2.5,4.25 L2.5,4.25 L0.75,4.25 L0.75,2.5 C0.75,2.01675084 0.945875422,1.57925084 1.26256313,1.26256313 C1.57925084,0.945875422 2.01675084,0.75 2.5,0.75 Z" id="矩形备份" transform="translate(2.500000, 2.500000) scale(-1, 1) translate(-2.500000, -2.500000) "></path>
                                    </g>
                                    <line x1="7.6433121" y1="3.90601946" x2="7.6433121" y2="14.2229299" id="直线-4"></line>
                                </g>
                            </g>
                        </g>
                    </g>
                </g>
            </g>
        </g>
    </g>
</svg>