<?xml version="1.0" encoding="UTF-8"?>
<svg width="116px" height="35px" viewBox="0 0 116 35" version="1.1" xmlns="http://www.w3.org/2000/svg" xmlns:xlink="http://www.w3.org/1999/xlink">
    <title>Logo</title>
    <defs>
        <circle id="path-1" cx="17.5" cy="17.5" r="17.5"></circle>
    </defs>
    <g id="HECO" stroke="none" stroke-width="1" fill="none" fill-rule="evenodd">
        <g id="HECO首页-Light" transform="translate(-50.000000, -20.000000)">
            <g id="编组-10" transform="translate(50.000000, 10.000000)">
                <g id="编组-7" transform="translate(0.000000, 10.000000)">
                    <g id="编组-6" transform="translate(45.000000, 8.000000)">
                        <polygon id="路径" fill="#12193E" fill-rule="nonzero" points="49.5238095 18.2926829 38.8571429 18.2926829 38.8571429 0.731707317 49.5238095 0.731707317 49.5238095 4.05574913 42.5010352 4.05574913 42.5010352 7.75609756 48.4637681 7.75609756 48.4637681 10.8919861 42.5010352 10.8919861 42.5010352 14.9686411 49.5238095 14.9686411"></polygon>
                        <path d="M23.8401361,0 L28.2993197,0 C30.5612245,0 32.6292517,0.898587933 34.1156463,2.43902439 C35.6020408,3.91527599 36.5714286,5.96919127 36.5714286,8.2156611 L36.5714286,10.0770218 C36.5714286,12.3234917 35.6666667,14.3774069 34.1156463,15.8536585 C32.6292517,17.3299101 30.5612245,18.2926829 28.2993197,18.2926829 L22.0952381,18.2926829 L22.0952381,0 L23.8401361,0 L23.8401361,0 Z M28.2993197,3.53016688 L26.037415,3.53016688 L26.037415,14.762516 L28.2993197,14.762516 C29.5918367,14.762516 30.755102,14.2490372 31.5952381,13.4146341 C32.4353741,12.5802311 32.952381,11.4249037 32.952381,10.1412067 L32.952381,8.27984596 C32.952381,6.99614891 32.4353741,5.84082157 31.5952381,5.00641849 C30.8197279,4.10783055 29.5918367,3.53016688 28.2993197,3.53016688 Z" id="形状" fill="#12193E" fill-rule="nonzero"></path>
                        <path d="M0,18.2289454 L0,1.84838956 C0,0.828588425 0.850924562,0 1.89821633,0 C2.55277369,0 3.14187531,0.318687856 3.46915398,0.892325996 L9.55653739,9.30568539 L9.55653739,9.30568539 L11.8474881,12.492564 L11.127475,13.5123651 C10.9965636,13.7035778 10.8656521,13.8310529 10.6692849,13.9585281 C9.81836033,14.5321662 8.64015709,14.3409535 8.05105547,13.5123651 L3.79643266,7.58477097 L3.79643266,18.1652078 L0,18.1652078 L0,18.2289454 Z M10.2110947,8.41335939 L12.5020455,11.600238 L15.3166421,7.71224611 L15.3166421,18.2926829 L19.047619,18.2926829 L19.047619,1.91212714 L19.047619,1.91212714 C19.047619,1.33848899 18.7857961,0.764850854 18.2621502,0.446162998 C17.4112257,-0.127475142 16.2330224,0.0637375712 15.6439208,0.892325996 L10.2110947,8.41335939 Z" id="形状" fill="#12193E" fill-rule="nonzero"></path>
                        <path d="M56.952381,0.731707317 L58.5699634,2.85094851 L63.018315,8.64769648 C63.3553114,9.02168022 63.3553114,9.58265583 63.018315,9.95663957 L61.3333333,12.200542 L57.221978,17.5609756 L52.7736264,17.5609756 L59.1091575,9.33333333 L52.5714286,0.79403794 L56.952381,0.79403794 L56.952381,0.731707317 Z M61.9399267,13.0108401 L65.4446886,17.5609756 L69.8930403,17.5609756 L67.2644689,14.1327913 L64.1641026,10.1436314 L61.9399267,13.0108401 Z M61.9399267,5.65582656 L64.1641026,8.52303523 L67.3992674,4.28455285 L70.0952381,0.79403794 L65.7142857,0.79403794 L61.9399267,5.65582656 Z" id="形状" fill="#4CA9DC"></path>
                    </g>
                    <g id="HMDX备份-3">
                        <mask id="mask-2" fill="white">
                            <use xlink:href="#path-1"></use>
                        </mask>
                        <use id="蒙版" fill="#12193E" xlink:href="#path-1"></use>
                        <g id="编组-81" mask="url(#mask-2)">
                            <g transform="translate(6.300000, 8.400000)">
                                <path d="M0.0027117226,15.0483526 C0.0027117226,16.5747167 1.32974561,17.7958889 2.94352148,17.7958889 L3.23046398,17.7958889 L3.15867822,5.14396352 C3.15867822,4.70295101 3.26635686,4.32984877 3.4815136,3.99070166 C3.69667035,3.65135243 4.01950573,3.41407072 4.44981923,3.21054204 C4.88013272,3.04096848 5.31064674,2.97305821 5.70506736,3.04096848 C6.09968849,3.10867663 6.49410911,3.2784523 6.81694449,3.58364428 L12.0530938,8.02711818 C12.0887861,8.06107331 12.3041434,8.23064687 12.4834073,8.40022042 C13.0213994,8.84123293 13.3083419,9.07851464 13.3083419,9.79076399 C13.3083419,10.4013501 13.0572923,10.9440259 12.6269788,11.3512853 C12.1964647,11.7581406 11.6227803,11.9956244 10.9771095,11.9956244 C10.3316393,11.9956244 9.75775425,11.7581406 9.32744075,11.3512853 C8.89692674,10.9440259 8.64587711,10.4013501 8.64587711,9.79076399 C8.64587711,9.04455951 8.96871249,8.77332266 9.5425975,8.29855713 C9.61438325,8.23064687 10.0446967,7.85734251 10.2239606,7.72172409 L7.821143,5.68663932 L7.39062898,6.05974156 C6.09968849,7.14509316 5.41812485,7.72172409 5.41812485,9.82471913 C5.41812485,11.2833751 6.02790274,12.5722554 7.03210124,13.5219885 C8.03629974,14.4717217 9.43491886,15.0483526 10.9412166,15.0483526 C12.4834073,15.0483526 13.846334,14.4717217 14.8505325,13.5219885 C15.854731,12.5722554 16.4643084,11.2494199 16.4643084,9.82471913 C16.4643084,7.75567922 15.7470524,7.14509316 14.4918043,6.16140485 C14.4200185,6.09369669 14.3482327,6.02578643 14.0973836,5.82225774 L8.96871249,1.31107569 C8.17967074,0.632579354 7.21136511,0.191566843 6.20716661,0.0559484224 C5.20296811,-0.0796699986 4.16287673,0.0219932887 3.15867822,0.463005799 C2.15447972,0.870063176 1.36543797,1.54855951 0.827646355,2.36247215 C0.289654226,3.1765869 -0.0331811552,4.12632008 0.0027117226,5.14396352 L0.0027117226,15.0483526 Z" id="Fill-1" fill="#FFFFFF"></path>
                                <path d="M14.6113572,4.18052036 L15.2789951,3.60471104 C15.612814,3.29985894 16.020704,3.13058634 16.4287937,3.06279659 C16.8366837,2.9952086 17.2817091,3.06279659 17.7267345,3.23227095 C18.1346245,3.40154356 18.4684434,3.67250079 18.7281913,4.01124776 C18.9506041,4.34979297 19.0991456,4.72243481 19.0620102,5.1628664 L18.9877395,17.7959696 L19.2844231,17.7959696 C20.9535178,17.7959696 22.2887936,16.5765612 22.3257293,15.0525025 L22.4,5.1628664 C22.4,4.14662549 22.1033164,3.16448121 21.546885,2.38550441 C20.9906532,1.57263273 20.1375381,0.929033667 19.1362809,0.488803836 C18.0976888,0.0824688764 17.0221609,-0.0531106135 15.9835687,0.0824688764 C14.9451761,0.217846611 13.9437193,0.658278198 13.1277396,1.33557038 L12.4603014,1.9113797 L11.7924639,2.48698727 L14.2775382,4.51926733 L14.6113572,4.18052036 Z" id="Fill-3" fill="#4CA9DC"></path>
                            </g>
                        </g>
                    </g>
                </g>
            </g>
        </g>
    </g>
</svg>