<?xml version="1.0" encoding="UTF-8"?>
<svg width="24px" height="24px" viewBox="0 0 24 24" version="1.1" xmlns="http://www.w3.org/2000/svg" xmlns:xlink="http://www.w3.org/1999/xlink">
    <title>Logo</title>
    <defs>
        <circle id="path-1" cx="12" cy="12" r="12"></circle>
    </defs>
    <g id="H5-HECO" stroke="none" stroke-width="1" fill="none" fill-rule="evenodd">
        <g id="H5首页-Light" transform="translate(-56.000000, -98.000000)">
            <g id="H5-HECO导航-Light" transform="translate(0.000000, 88.000000)">
                <g id="HMDX备份-3" transform="translate(56.000000, 10.000000)">
                    <mask id="mask-2" fill="white">
                        <use xlink:href="#path-1"></use>
                    </mask>
                    <use id="蒙版" fill="#12193E" xlink:href="#path-1"></use>
                    <g id="编组-81" mask="url(#mask-2)">
                        <g transform="translate(4.320000, 5.760000)">
                            <path d="M0.00185946693,10.3188704 C0.00185946693,11.3655201 0.911825559,12.2028952 2.01841473,12.2028952 L2.2151753,12.2028952 L2.16595078,3.52728927 C2.16595078,3.22488069 2.23978756,2.96903915 2.38732361,2.73648114 C2.53485967,2.50378453 2.7562325,2.34107707 3.05130461,2.20151454 C3.34637673,2.08523553 3.64158634,2.03866849 3.91204619,2.08523553 C4.18264354,2.13166398 4.45310339,2.24808158 4.67447622,2.45735608 L8.26497857,5.50430961 C8.28945334,5.52759313 8.43712689,5.64387214 8.56005069,5.76015115 C8.92895957,6.06255972 9.12572015,6.22526718 9.12572015,6.71366674 C9.12572015,7.13235432 8.95357183,7.50447487 8.65849972,7.78373852 C8.36329011,8.06272499 7.96990646,8.22557104 7.5271608,8.22557104 C7.08455263,8.22557104 6.69103148,8.06272499 6.39595937,7.78373852 C6.10074976,7.50447487 5.92860145,7.13235432 5.92860145,6.71366674 C5.92860145,6.20198366 6.14997428,6.01599268 6.54349543,5.69043918 C6.59271995,5.64387214 6.88779206,5.38789201 7.01071585,5.29489652 L5.36306948,3.89940982 L5.06785987,4.15525136 C4.18264354,4.89949245 3.71528561,5.29489652 3.71528561,6.73695026 C3.71528561,7.73717148 4.13341902,8.62097511 4.82201228,9.27222071 C5.51060554,9.92346632 6.46965865,10.3188704 7.50254854,10.3188704 C8.56005069,10.3188704 9.49462904,9.92346632 10.1832223,9.27222071 C10.8718156,8.62097511 11.2898115,7.71388796 11.2898115,6.73695026 C11.2898115,5.31818004 10.7979788,4.89949245 9.9372372,4.22496332 C9.88801269,4.17853488 9.83878817,4.13196784 9.66677735,3.99240531 L6.14997428,0.899023328 C5.60891708,0.4337687 4.94493608,0.131360121 4.25634282,0.0383646325 C3.56774956,-0.0546308562 2.85454404,0.0150811122 2.16595078,0.317489691 C1.47735752,0.596614749 0.936300319,1.06186938 0.567528929,1.6199809 C0.198620041,2.17823102 -0.0227527921,2.82947662 0.00185946693,3.52728927 L0.00185946693,10.3188704 Z" id="Fill-1" fill="#FFFFFF"></path>
                            <path d="M10.0192164,2.86664253 L10.4770252,2.47180186 C10.7059296,2.26276042 10.9856256,2.14668777 11.2654585,2.10020338 C11.5451545,2.05385733 11.8503148,2.10020338 12.1554751,2.21641437 C12.4351711,2.33248701 12.6640755,2.51828625 12.8421883,2.75056989 C12.9947,2.98271518 13.096557,3.23824101 13.0710927,3.54025124 L13.0201642,12.2029506 L13.2236044,12.2029506 C14.3681265,12.2029506 15.2837442,11.3667848 15.3090715,10.321716 L15.36,3.54025124 C15.36,2.84340034 15.1565598,2.16992997 14.7750068,1.63577445 C14.3935907,1.07837673 13.8085976,0.637051658 13.1220212,0.335179773 C12.4098437,0.0565500867 11.6723389,-0.0364187064 10.9601614,0.0565500867 C10.2481208,0.149380533 9.56140752,0.451390764 9.0018786,0.91581969 L8.54420667,1.31066037 L8.08626093,1.7053627 L9.79031194,3.09892617 L10.0192164,2.86664253 Z" id="Fill-3" fill="#4CA9DC"></path>
                        </g>
                    </g>
                </g>
            </g>
        </g>
    </g>
</svg>