<svg width="36" height="36" viewBox="0 0 36 36" fill="none" xmlns="http://www.w3.org/2000/svg">
<rect width="36" height="36" rx="18" fill="#3C3C43" fill-opacity="0.1"/>
<path d="M27 20.5C25.6193 20.5 24.5 19.3807 24.5 18C24.5 16.6193 25.6193 15.5 27 15.5C28.3807 15.5 29.5 16.6193 29.5 18C29.5 19.3807 28.3807 20.5 27 20.5Z" fill="black"/>
<path d="M18 20.5C16.6193 20.5 15.5 19.3807 15.5 18C15.5 16.6193 16.6193 15.5 18 15.5C19.3807 15.5 20.5 16.6193 20.5 18C20.5 19.3807 19.3807 20.5 18 20.5Z" fill="black"/>
<path d="M9 20.5C7.61929 20.5 6.5 19.3807 6.5 18C6.5 16.6193 7.61929 15.5 9 15.5C10.3807 15.5 11.5 16.6193 11.5 18C11.5 19.3807 10.3807 20.5 9 20.5Z" fill="black"/>
</svg>
