<?xml version="1.0" encoding="UTF-8"?>
<svg width="20px" height="20px" viewBox="0 0 20 20" version="1.1" xmlns="http://www.w3.org/2000/svg" xmlns:xlink="http://www.w3.org/1999/xlink">
    <title>通知</title>
    <g id="H5" stroke="none" stroke-width="1" fill="none" fill-rule="evenodd">
        <g id="右上角设置icon点击后弹窗" transform="translate(-33.000000, -493.000000)">
            <g id="更多弹窗" transform="translate(12.000000, 204.000000)">
                <g id="编组-17备份-2" transform="translate(16.000000, 269.000000)">
                    <g id="编组-3" transform="translate(5.000000, 19.000000)">
                        <g id="通知" transform="translate(0.000000, 1.000000)">
                            <rect id="矩形" x="0" y="0" width="20" height="20"></rect>
                            <g id="编组-7" transform="translate(1.000000, 2.000000)" stroke-linecap="round" stroke-linejoin="round" stroke-width="1.5">
                                <path d="M1,5.04949049 L2.89451454,5.04949049 L2.89451454,5.04949049 L8.20926382,1.16293756 C8.65506581,0.836932903 9.28073871,0.934047827 9.60674337,1.37984981 C9.73202268,1.55116567 9.79954747,1.75789767 9.79954747,1.97013346 L9.79954747,14.041251 C9.79954747,14.5935358 9.35183222,15.041251 8.79954747,15.041251 C8.58891294,15.041251 8.38365684,14.9747401 8.21305276,14.8512041 L2.89451454,11 L2.89451454,11 L1,11 C0.44771525,11 1.04869017e-15,10.5522847 0,10 L0,6.04949049 C4.22892021e-16,5.49720574 0.44771525,5.04949049 1,5.04949049 Z" id="路径-17" stroke="#10283F"></path>
                                <g id="编组-8" transform="translate(13.000000, 2.000000)" stroke="#2C72F4">
                                    <line x1="0.237371306" y1="5.94118606" x2="4.98619065" y2="5.94118606" id="路径-18"></line>
                                    <line x1="1.37667655e-14" y1="2.09521703" x2="2.93283567" y2="-5.96967417e-13" id="路径-19"></line>
                                    <line x1="1.37667655e-14" y1="11.8823721" x2="2.93283567" y2="9.78715508" id="路径-19备份" transform="translate(1.466418, 10.834764) scale(-1, 1) translate(-1.466418, -10.834764) "></line>
                                </g>
                            </g>
                        </g>
                    </g>
                </g>
            </g>
        </g>
    </g>
</svg>