<?xml version="1.0" encoding="UTF-8"?>
<svg width="24px" height="24px" viewBox="0 0 24 24" version="1.1" xmlns="http://www.w3.org/2000/svg" xmlns:xlink="http://www.w3.org/1999/xlink">
    <title>行情</title>
    <defs>
        <rect id="path-1" x="0" y="0" width="24" height="24"></rect>
        <linearGradient x1="50%" y1="1.80417375%" x2="50%" y2="99.8798077%" id="linearGradient-3">
            <stop stop-color="#C1C1CF" offset="0%"></stop>
            <stop stop-color="#868694" offset="100%"></stop>
        </linearGradient>
        <linearGradient x1="50%" y1="1.80417375%" x2="50%" y2="99.8798077%" id="linearGradient-4">
            <stop stop-color="#C1C1CF" offset="0%"></stop>
            <stop stop-color="#868694" offset="100%"></stop>
        </linearGradient>
        <linearGradient x1="50%" y1="1.80417375%" x2="50%" y2="99.8798077%" id="linearGradient-5">
            <stop stop-color="#C1C1CF" offset="0%"></stop>
            <stop stop-color="#868694" offset="100%"></stop>
        </linearGradient>
    </defs>
    <g id="组件库" stroke="none" stroke-width="1" fill="none" fill-rule="evenodd">
        <g id="抽屉式滑页" transform="translate(-28.000000, -322.000000)">
            <g id="编组-43" transform="translate(0.000000, 88.000000)">
                <g id="编组-12" transform="translate(16.000000, 126.000000)">
                    <g id="编组-17备份-9" transform="translate(12.000000, 96.000000)">
                        <g id="行情" transform="translate(0.000000, 12.000000)">
                            <mask id="mask-2" fill="white">
                                <use xlink:href="#path-1"></use>
                            </mask>
                            <g id="蒙版"></g>
                            <g id="编组-4" mask="url(#mask-2)">
                                <path d="M3.37439475,1.42271498 C3.99560368,1.42271498 4.49919301,1.92630431 4.49919301,2.54751323 L4.499,5.07871498 L5.74878951,5.07891331 C6.30107426,5.07891331 6.74878951,5.52662856 6.74878951,6.07891331 L6.74878951,12.0322762 C6.74878951,12.5845609 6.30107426,13.0322762 5.74878951,13.0322762 L4.499,13.031715 L4.49919301,17.5178138 C4.49919301,18.1390227 3.99560368,18.642612 3.37439475,18.642612 C2.75318583,18.642612 2.2495965,18.1390227 2.2495965,17.5178138 L2.249,13.031715 L1,13.0322762 C0.44771525,13.0322762 5.58162771e-16,12.5845609 0,12.0322762 L0,6.07891331 C-1.78657678e-16,5.52662856 0.44771525,5.07891331 1,5.07891331 L2.249,5.07871498 L2.2495965,2.54751323 C2.2495965,1.92630431 2.75318583,1.42271498 3.37439475,1.42271498 Z" id="形状结合" fill="url(#linearGradient-3)"></path>
                                <path d="M11.2479825,7.12802623 C11.8691914,7.12802623 12.3727808,7.63161556 12.3727808,8.25282448 L12.3725878,11.4780262 L13.6223773,11.4782609 C14.174662,11.4782609 14.6223773,11.9259761 14.6223773,12.4782609 L14.6223773,19.6256052 C14.6223773,20.17789 14.174662,20.6256052 13.6223773,20.6256052 L12.3725878,20.6250262 L12.3727808,22.8752017 C12.3727808,23.4964107 11.8691914,24 11.2479825,24 C10.6267736,24 10.1231843,23.4964107 10.1231843,22.8752017 L10.1225878,20.6250262 L8.87358776,20.6256052 C8.32130301,20.6256052 7.87358776,20.17789 7.87358776,19.6256052 L7.87358776,12.4782609 C7.87358776,11.9259761 8.32130301,11.4782609 8.87358776,11.4782609 L10.1225878,11.4780262 L10.1231843,8.25282448 C10.1231843,7.63161556 10.6267736,7.12802623 11.2479825,7.12802623 Z" id="形状结合" fill="url(#linearGradient-4)"></path>
                                <path d="M19.1215703,0 C19.7427792,-1.14114227e-16 20.2463685,0.503589331 20.2463685,1.12479825 L20.2461755,2.823 L21.495965,2.82331517 C22.0482498,2.82331517 22.495965,3.27103042 22.495965,3.82331517 L22.495965,12.7954957 C22.495965,13.3477805 22.0482498,13.7954957 21.495965,13.7954957 L20.2461755,13.795 L20.2463685,17.1698905 C20.2463685,17.7910994 19.7427792,18.2946888 19.1215703,18.2946888 C18.5003614,18.2946888 17.996772,17.7910994 17.996772,17.1698905 L17.9961755,13.795 L16.7471755,13.7954957 C16.1948908,13.7954957 15.7471755,13.3477805 15.7471755,12.7954957 L15.7471755,3.82331517 C15.7471755,3.27103042 16.1948908,2.82331517 16.7471755,2.82331517 L17.9961755,2.823 L17.996772,1.12479825 C17.996772,0.503589331 18.5003614,1.14114227e-16 19.1215703,0 Z" id="形状结合" fill="url(#linearGradient-5)"></path>
                            </g>
                        </g>
                    </g>
                </g>
            </g>
        </g>
    </g>
</svg>