<?xml version="1.0" encoding="UTF-8"?>
<svg width="24px" height="24px" viewBox="0 0 24 24" version="1.1" xmlns="http://www.w3.org/2000/svg" xmlns:xlink="http://www.w3.org/1999/xlink">
    <title>组合icon</title>
    <g id="H5" stroke="none" stroke-width="1" fill="none" fill-rule="evenodd">
        <g id="移除流动性_极简版" transform="translate(-176.000000, -442.000000)">
            <g id="编组-3" transform="translate(16.000000, 231.000000)">
                <g id="组合icon" transform="translate(160.000000, 211.000000)">
                    <circle id="椭圆形" cx="12" cy="12" r="12"></circle>
                    <g id="编组-16" transform="translate(8.000000, 6.000000)" fill="#FFCA13">
                        <rect id="矩形" x="3" y="0" width="1.57" height="9.5" rx="0.785"></rect>
                        <path d="M5.76812155,7.13627302 C6.1070736,6.86595562 6.60098408,6.92159499 6.87130149,7.26054704 C7.12571787,7.57956074 7.09139745,8.03583865 6.80389289,8.31377992 L6.74702747,8.36372698 L4.23945296,10.3635409 C3.97324514,10.5758441 3.60348833,10.5907499 3.3227581,10.4084004 L3.25964221,10.3628182 L0.759642209,8.36300427 C0.421089298,8.09218714 0.366178599,7.59819512 0.636995729,7.25964221 C0.89188244,6.94100418 1.3444604,6.87362014 1.67907667,7.09257716 L1.74035779,7.13699573 L3.7505,8.745 L5.76812155,7.13627302 Z" id="路径" fill-rule="nonzero"></path>
                    </g>
                </g>
            </g>
        </g>
    </g>
</svg>