<?xml version="1.0" encoding="UTF-8"?>
<svg width="100px" height="100px" viewBox="0 0 100 100" version="1.1" xmlns="http://www.w3.org/2000/svg" xmlns:xlink="http://www.w3.org/1999/xlink">
    <title>兑换</title>
    <g id="H5主页" stroke="none" stroke-width="1" fill="none" fill-rule="evenodd">
        <g id="-" transform="translate(-156.000000, -156.000000)" fill="#1D1D1E" fill-rule="nonzero">
            <g id="兑换" transform="translate(156.000000, 156.000000)">
                <path d="M50,10 C72,10 90,28 90,50 C90,72 72,90 50,90 C28,90 10,72 10,50 C10,28 28,10 50,10 Z M50,0 C22.5,0 0,22.5 0,50 C0,77.5 22.5,100 50,100 C77.5,100 100,77.5 100,50 C100,22.5 77.5,0 50,0 Z" id="形状"></path>
                <path d="M27,39.5 C27,38 28,36.5 29,35 L44,23.5 C44.5,23.5 44.5,23.5 45,23.5 C45.5,23.5 45.5,23.5 46,23.5 C46.5,24 46.5,24 46.5,25 L44.5,33.5 L44.5,34.5 L45,34.5 L68.5,34.5 C71.5,34.5 73.5,36.5 73.5,39.5 C73.5,42.5 71.5,44.5 68.5,44.5 L32,44.5 C29,44.5 27,42 27,39.5 Z" id="路径"></path>
                <path d="M73,60.5 C73,62 72,63.5 71,65 L56,76.5 C55.5,76.5 55.5,76.5 55,76.5 C54.5,76.5 54.5,76.5 54,76.5 C53.5,76 53.5,75.5 53.5,75 L55.5,66.5 L55.5,65.5 L55,65.5 L31.5,65.5 C28.5,65.5 26.5,63.5 26.5,60.5 C26.5,57.5 28.5,55.5 31.5,55.5 L67.5,55.5 C70.5,55.5 73,57.5 73,60.5 Z" id="路径"></path>
            </g>
        </g>
    </g>
</svg>