<?xml version="1.0" encoding="UTF-8"?>
<svg width="468px" height="71px" viewBox="0 0 468 71" version="1.1" xmlns="http://www.w3.org/2000/svg" xmlns:xlink="http://www.w3.org/1999/xlink">
    <title>BG</title>
    <defs>
        <radialGradient cx="95.0836414%" cy="66.5509438%" fx="95.0836414%" fy="66.5509438%" r="783.077162%" gradientTransform="translate(0.950836,0.665509),scale(0.106838,1.000000),rotate(15.279530),translate(-0.950836,-0.665509)" id="radialGradient-1">
            <stop stop-color="#FFEC00" offset="0%"></stop>
            <stop stop-color="#FFBF3D" offset="33.9459613%"></stop>
            <stop stop-color="#F5B11F" offset="73.6451049%"></stop>
            <stop stop-color="#E49C09" offset="100%"></stop>
        </radialGradient>
        <rect id="path-2" x="0" y="0" width="468" height="50" rx="10"></rect>
        <radialGradient cx="116.095465%" cy="-17.0434939%" fx="116.095465%" fy="-17.0434939%" r="379.500544%" gradientTransform="translate(1.160955,-0.170435),scale(0.704225,1.000000),rotate(64.716322),translate(-1.160955,0.170435)" id="radialGradient-4">
            <stop stop-color="#FFFFFF" stop-opacity="0" offset="0%"></stop>
            <stop stop-color="#FFFFFF" stop-opacity="0.273792614" offset="100%"></stop>
        </radialGradient>
        <radialGradient cx="116.095465%" cy="-17.0434939%" fx="116.095465%" fy="-17.0434939%" r="380.610598%" gradientTransform="translate(1.160955,-0.170435),scale(0.693182,1.000000),rotate(64.364831),translate(-1.160955,0.170435)" id="radialGradient-5">
            <stop stop-color="#FFFFFF" stop-opacity="0" offset="0%"></stop>
            <stop stop-color="#FFFFFF" stop-opacity="0.273792614" offset="100%"></stop>
        </radialGradient>
        <radialGradient cx="116.095465%" cy="-17.0434939%" fx="116.095465%" fy="-17.0434939%" r="378.821513%" gradientTransform="translate(1.160955,-0.170435),scale(0.711230,1.000000),rotate(64.934631),translate(-1.160955,0.170435)" id="radialGradient-6">
            <stop stop-color="#FFFFFF" stop-opacity="0" offset="0%"></stop>
            <stop stop-color="#FFFFFF" stop-opacity="0.273792614" offset="100%"></stop>
        </radialGradient>
        <radialGradient cx="116.095465%" cy="-17.0434939%" fx="116.095465%" fy="-17.0434939%" r="418.68775%" gradientTransform="translate(1.160955,-0.170435),scale(0.475806,1.000000),rotate(55.042271),translate(-1.160955,0.170435)" id="radialGradient-7">
            <stop stop-color="#FFFFFF" stop-opacity="0" offset="0%"></stop>
            <stop stop-color="#FFFFFF" stop-opacity="0.273792614" offset="100%"></stop>
        </radialGradient>
        <radialGradient cx="116.095465%" cy="-17.0434939%" fx="116.095465%" fy="-17.0434939%" r="370.931788%" gradientTransform="translate(1.160955,-0.170435),scale(0.810345,1.000000),rotate(67.682223),translate(-1.160955,0.170435)" id="radialGradient-8">
            <stop stop-color="#FFFFFF" stop-opacity="0" offset="0%"></stop>
            <stop stop-color="#FFFFFF" stop-opacity="0.273792614" offset="100%"></stop>
        </radialGradient>
        <radialGradient cx="116.095465%" cy="-17.0434939%" fx="116.095465%" fy="-17.0434939%" r="521.449031%" gradientTransform="translate(1.160955,-0.170435),scale(1.000000,0.674419),rotate(77.355676),translate(-1.160955,0.170435)" id="radialGradient-9">
            <stop stop-color="#FFFFFF" stop-opacity="0" offset="0%"></stop>
            <stop stop-color="#FFFFFF" stop-opacity="0.273792614" offset="100%"></stop>
        </radialGradient>
        <radialGradient cx="116.095465%" cy="-17.0434939%" fx="116.095465%" fy="-17.0434939%" r="734.432965%" gradientTransform="translate(1.160955,-0.170435),scale(1.000000,0.472973),rotate(81.058951),translate(-1.160955,0.170435)" id="radialGradient-10">
            <stop stop-color="#FFFFFF" stop-opacity="0" offset="0%"></stop>
            <stop stop-color="#FFFFFF" stop-opacity="0.273792614" offset="100%"></stop>
        </radialGradient>
        <radialGradient cx="116.095465%" cy="-17.0434939%" fx="116.095465%" fy="-17.0434939%" r="808.769303%" gradientTransform="translate(1.160955,-0.170435),scale(1.000000,0.428571),rotate(81.886573),translate(-1.160955,0.170435)" id="radialGradient-11">
            <stop stop-color="#FFFFFF" stop-opacity="0" offset="0%"></stop>
            <stop stop-color="#FFFFFF" stop-opacity="0.273792614" offset="100%"></stop>
        </radialGradient>
        <filter x="-250.0%" y="-142.9%" width="600.0%" height="385.7%" filterUnits="objectBoundingBox" id="filter-12">
            <feGaussianBlur stdDeviation="10" in="SourceGraphic"></feGaussianBlur>
        </filter>
        <filter x="-166.7%" y="-157.9%" width="433.3%" height="415.8%" filterUnits="objectBoundingBox" id="filter-13">
            <feGaussianBlur stdDeviation="10" in="SourceGraphic"></feGaussianBlur>
        </filter>
        <rect id="path-14" x="0.285115913" y="0.0325785567" width="31" height="34"></rect>
        <linearGradient x1="50.9571044%" y1="100%" x2="50%" y2="-3.55271368e-13%" id="linearGradient-16">
            <stop stop-color="#FFD328" offset="0%"></stop>
            <stop stop-color="#FEE664" offset="100%"></stop>
        </linearGradient>
        <linearGradient x1="74.6894099%" y1="94.4489662%" x2="24.436442%" y2="5.27061194%" id="linearGradient-17">
            <stop stop-color="#FFC300" offset="0%"></stop>
            <stop stop-color="#FFE86A" offset="100%"></stop>
        </linearGradient>
        <filter id="filter-18">
            <feColorMatrix in="SourceGraphic" type="matrix" values="0 0 0 0 0.886275 0 0 0 0 0.631373 0 0 0 0 0.023529 0 0 0 1.000000 0"></feColorMatrix>
        </filter>
        <linearGradient x1="74.9098118%" y1="87.4204277%" x2="28.974744%" y2="9.46175275%" id="linearGradient-19">
            <stop stop-color="#FFDC42" offset="0%"></stop>
            <stop stop-color="#FFF5C2" offset="100%"></stop>
        </linearGradient>
        <rect id="path-20" x="0.285115913" y="0.0351571135" width="29" height="28"></rect>
        <linearGradient x1="-3.55271368e-13%" y1="48.2891027%" x2="96.9631867%" y2="45.0316548%" id="linearGradient-22">
            <stop stop-color="#FFD328" offset="0%"></stop>
            <stop stop-color="#FEE664" offset="100%"></stop>
        </linearGradient>
        <linearGradient x1="-11.6697129%" y1="110.184108%" x2="72.3482012%" y2="25.4110374%" id="linearGradient-23">
            <stop stop-color="#FFC300" offset="0%"></stop>
            <stop stop-color="#FFE86A" offset="100%"></stop>
        </linearGradient>
        <filter id="filter-24">
            <feColorMatrix in="SourceGraphic" type="matrix" values="0 0 0 0 0.886275 0 0 0 0 0.631373 0 0 0 0 0.023529 0 0 0 1.000000 0"></feColorMatrix>
        </filter>
        <linearGradient x1="8.21784684%" y1="85.4270641%" x2="66.3789991%" y2="9.71858559%" id="linearGradient-25">
            <stop stop-color="#FFDD46" offset="0%"></stop>
            <stop stop-color="#FFF5C2" offset="100%"></stop>
        </linearGradient>
    </defs>
    <g id="领取奖励" stroke="none" stroke-width="1" fill="none" fill-rule="evenodd">
        <g id="画板" transform="translate(-39.000000, -367.000000)">
            <g id="BG" transform="translate(39.000000, 367.000000)">
                <g id="路径-23-+-路径-24-+-路径-25-+-路径-26-+-路径-27-+-路径-28-+-路径-29-+-路径-30-+-路径-31-+-路径-32-+-路径-33-+-路径-34-+-路径-35-蒙版" transform="translate(0.000000, 12.000000)">
                    <mask id="mask-3" fill="white">
                        <use xlink:href="#path-2"></use>
                    </mask>
                    <use id="蒙版" fill="url(#radialGradient-1)" xlink:href="#path-2"></use>
                    <path d="M182.301332,-49.5 L182.5,-48.6975777 C170.80077,-45.7254148 165.582836,-38.1662582 166.763593,-25.8969169 L166.922926,-24.218447 L167.159796,-21.6127286 L167.362316,-19.2211882 L167.532222,-17.0144183 L167.64583,-15.3622755 L167.718601,-14.1793635 L167.799763,-12.6649977 L167.849221,-11.5681269 L167.889311,-10.4975443 L167.92041,-9.44689791 L167.942892,-8.40983569 L167.960945,-6.98777722 L167.972444,-5.20129386 L167.961174,-3.34447107 L167.922729,-1.67580097 L167.863141,-0.0282979931 L167.732563,2.7821487 L167.549361,6.2227135 L166.764805,19.8351214 C166.131223,30.6742377 159.249629,43.3732266 152.237065,48.6036108 C148.875485,51.1108758 146.084858,51.2091857 144.870391,48.4355128 C144.398589,47.3579821 144.187029,45.8690743 144.244942,43.973019 L144.268829,43.4202137 C144.320889,42.480419 144.434252,41.4483919 144.609917,40.3245892 L144.7228,39.6392981 C144.742862,39.5232487 144.76355,39.4062823 144.784863,39.2883996 L144.920264,38.5701104 L145.070736,37.8298499 C145.097074,37.7046434 145.124041,37.5785224 145.151639,37.4514872 L145.324809,36.6783107 C145.354936,36.547621 145.385695,36.4160181 145.417088,36.2835024 L145.613063,35.4774594 C145.646996,35.3412946 145.681565,35.204218 145.716771,35.0662301 L145.935659,34.2273697 C146.011174,33.9441066 146.089246,33.6572017 146.169881,33.3666586 L146.419486,32.4841186 L146.684522,31.5797717 L146.965036,30.6536397 C147.075299,30.2952331 147.183141,29.9390724 147.288572,29.5851639 L147.597639,28.530201 C147.647948,28.355502 147.697656,28.1813676 147.746764,28.0077986 L148.034225,26.9731752 L148.307346,25.9521581 C148.706298,24.4308559 149.057025,22.9556013 149.360304,21.5269621 L149.55547,20.5814481 C149.743623,19.6428525 149.910766,18.7250309 150.057128,17.8281515 L150.196572,16.9382591 C150.24075,16.6439593 150.282627,16.3519927 150.322213,16.0623655 L150.434103,15.2005081 C150.486619,14.7730947 150.533997,14.3509588 150.576267,13.9341217 L150.654003,13.1075183 C151.363418,4.91225796 150.037038,-1.15794627 146.905313,-4.934888 C142.576564,-10.1554715 134.912277,-10.5297443 126.606296,-6.28277001 L126.269222,-6.10806421 C116.222963,-0.83094774 107.618902,2.42082636 99.287914,3.55112149 C89.0558725,4.93933938 79.9229406,2.91063813 71.9215089,-3.18343087 L71.5289082,-3.48641968 C60.2826308,-12.2802067 50.11005,-16.0235121 41.0084481,-14.7473748 L40.6245107,-14.6904665 L40.5,-15.5080686 C49.9514461,-16.984974 60.4617043,-13.1852563 72.0279407,-4.14128419 C79.94007,2.0454368 88.9854054,4.11423953 99.179498,2.73117031 C106.652528,1.71727741 114.376087,-1.0371404 123.20919,-5.46422894 L124.542584,-6.14082877 C124.766239,-6.25568342 124.990615,-6.37158137 125.215724,-6.48852156 L125.893266,-6.84246777 C134.632467,-11.4330104 142.856944,-11.1035965 147.530676,-5.46695401 C150.44219,-1.95559199 151.856333,3.37680184 151.632151,10.4058073 L151.600493,11.1937835 C151.594091,11.3262745 151.587124,11.4593456 151.579594,11.5929962 L151.527629,12.4018472 L151.462072,13.2245672 C151.450011,13.3628408 151.437382,13.5016908 151.424184,13.6411162 L151.338159,14.4845687 C151.322681,14.626293 151.306633,14.7685913 151.290012,14.9114627 L151.183423,15.7755623 L151.063071,16.6533793 C151.041862,16.8008231 151.020079,16.9488369 150.99772,17.0974199 L150.856641,17.9957418 C150.782638,18.4483116 150.703433,18.9059898 150.619003,19.3687551 L150.443167,20.3010622 C150.412697,20.4575751 150.381645,20.6146516 150.35001,20.772291 L150.15319,21.7248755 C150.119218,21.8847632 150.08466,22.0452122 150.049517,22.2062217 L149.831617,23.1789982 C149.756635,23.5054948 149.679302,23.8342271 149.599611,24.1651886 L149.353454,25.1647551 C149.22683,25.667876 149.094885,26.1759987 148.957593,26.6891018 L148.675872,27.7219424 C148.627728,27.8951871 148.578989,28.0689837 148.529652,28.2433312 L148.226465,29.2960225 C148.123011,29.6491194 148.017163,30.004414 147.908913,30.3619001 L147.744737,30.8997719 C147.643192,31.2298429 147.544643,31.5555168 147.449064,31.8767977 L147.171213,32.8274651 C147.126381,32.9837145 147.082285,33.1388667 147.038922,33.292922 L146.787512,34.2040974 L146.553536,35.0889751 C146.140466,36.6871594 145.814509,38.1528817 145.571364,39.4868144 L145.446927,40.2013481 C143.935338,49.3204804 146.548352,51.8192521 151.752835,47.9374411 C158.571062,42.8520049 165.330387,30.3786456 165.949549,19.7862231 L166.735978,6.13956452 L166.977143,1.51077965 L167.07401,-0.751096605 L167.124094,-2.34384833 L167.146784,-3.52366013 L167.155794,-4.77443533 L167.147682,-6.60521794 L167.136656,-7.71260158 L167.126323,-8.39578154 L167.093609,-9.80864303 L167.058433,-10.8870986 L167.013685,-11.9892617 L166.958961,-13.1219588 L166.893857,-14.2920165 L166.817967,-15.5062615 L166.699305,-17.2057895 L166.55979,-19.0121902 L166.481914,-19.9605246 L166.354612,-21.4451325 L166.164672,-23.5511605 L165.950762,-25.8166513 C164.743096,-38.3656044 170.099738,-46.2686905 181.940535,-49.4063773 L182.301332,-49.5 Z" id="路径" fill="url(#radialGradient-4)" fill-rule="nonzero" opacity="0.6" mask="url(#mask-3)"></path>
                    <path d="M210.275636,-51.5 L210.5,-50.7111995 C200.454704,-47.8156714 193.507562,-40.800678 188.829217,-29.8398386 C188.100347,-28.1321766 187.432331,-26.3596489 186.816148,-24.4980242 L186.512334,-23.5596749 C185.913177,-21.667678 185.364349,-19.6825455 184.856827,-17.5800461 L184.606466,-16.5189037 L184.362738,-15.437527 L184.125394,-14.335243 C184.008276,-13.7787619 183.893457,-13.2141882 183.780797,-12.6411433 L183.558313,-11.4836461 C183.521699,-11.28881 183.485313,-11.0930046 183.449152,-10.8962159 L183.234833,-9.70357166 C183.199548,-9.50279357 183.164476,-9.30100412 183.129613,-9.09818929 L182.922895,-7.8688834 C182.888845,-7.66191092 182.854993,-7.453885 182.821334,-7.24479162 L182.621652,-5.97730968 C182.588744,-5.76389039 182.556018,-5.54937559 182.523469,-5.33375126 L182.33026,-4.02657881 L182.141053,-2.69210466 L181.955598,-1.32965572 L181.773643,0.0614411187 C181.743595,0.295715309 181.713682,0.531211207 181.6839,0.767942835 L181.506726,2.20327355 L181.332426,3.66893488 L180.782358,8.61710698 L179.523353,20.9297389 L179.209606,23.8548121 L178.917856,26.4255176 L178.674811,28.4312331 L178.511816,29.7037151 L178.433822,30.2927865 C178.355317,30.8795246 178.275147,31.4603497 178.192094,32.0450454 C176.175968,46.2386572 164.589579,60.3910679 151.215868,67.1936885 C145.078824,70.3153336 139.434807,71.3141417 135.537267,69.8141713 C131.274808,68.1737621 129.370237,63.7290702 130.290438,56.766824 L130.339664,56.4106432 C134.039746,30.7472301 123.3958,20.7278807 103.893149,24.0408561 L103.299454,24.1453278 C103.075846,24.1860259 102.847542,24.2255045 102.614543,24.2637637 L101.901456,24.3748831 C100.931889,24.5181648 99.8871812,24.6419368 98.7673117,24.7462029 L97.9133165,24.8207451 L97.0311336,24.887973 C96.881754,24.8985681 96.7311999,24.9088585 96.5794712,24.9188441 L95.6550032,24.975101 L94.7023427,25.0240444 C94.5412165,25.0315922 94.3789155,25.0388353 94.2154397,25.0457736 L93.2204867,25.0837474 C93.0523115,25.089467 92.8829614,25.0948819 92.7124363,25.099992 L91.6751865,25.126997 L90.6097362,25.1466898 L89.5160836,25.1590709 L88.3942267,25.1641406 C88.2049001,25.1643762 88.0143982,25.1643073 87.822721,25.1639337 L86.0658921,25.152347 L84.8594104,25.1354845 L83.6247165,25.111312 L82.3618085,25.0798298 L81.0706844,25.0410383 L79.7513421,24.9949378 L78.4037799,24.9415287 L77.0279956,24.8808113 L75.6239873,24.812786 L74.191753,24.7374531 L72.7312909,24.6548131 L71.2425988,24.5648661 L69.7256749,24.4676126 L68.1805172,24.3630529 L65.8098379,24.1925151 L63.3756214,24.0055404 L61.7175088,23.8717595 L59.1773823,23.6573926 L56.573701,23.4265918 L54.8026019,23.2635953 L52.092981,23.0054075 L50.2512495,22.8241541 L47.4356707,22.5385826 L45.5232943,22.3390745 L43.5826566,22.1322651 L40.6187057,21.8083619 L38.607406,21.5833008 L35.537453,21.2320217 L34.5,21.1112788 L34.5939893,20.2962528 L37.6779798,20.6521802 L40.6985029,20.9917235 L43.655552,21.3148839 L45.5916514,21.5212231 L48.4428957,21.8170812 L50.3084524,22.0052199 L53.0538735,22.273779 L55.7357917,22.5259603 L58.3542005,22.7617649 L60.9090933,22.981194 L62.5770652,23.1183832 L65.0260831,23.3105225 L66.6234655,23.4295195 L68.9665901,23.5943723 L70.4933709,23.6951794 L71.9919076,23.7887111 L73.4621982,23.8749678 L74.9042408,23.9539499 L77.0143352,24.0587838 L78.3857491,24.1195807 L79.728908,24.1731041 L81.04381,24.2193545 L82.3304531,24.2583322 L83.5888355,24.2900374 L84.818955,24.3144706 C85.0216196,24.3179368 85.2231064,24.3211 85.4234156,24.3239603 L86.6111372,24.3374861 L87.7705912,24.3437407 L88.9017754,24.3427245 L90.004688,24.3344378 L91.079327,24.318881 L92.1256905,24.2960544 C92.297728,24.2916442 92.4685872,24.2869311 92.6382682,24.281915 L93.6422146,24.2481845 L94.6178805,24.207185 L95.5652639,24.1589169 L96.4843629,24.1033807 L97.3751754,24.0405766 L98.2376997,23.970505 L99.0719336,23.8931663 L99.8778752,23.8085607 C100.141807,23.7791478 100.401023,23.7485238 100.655523,23.7166887 L101.404874,23.6175506 C101.895009,23.5490366 102.366278,23.4756787 102.818679,23.3974775 L103.154443,23.3379185 C123.365794,19.6593217 134.736767,29.8312186 131.256293,55.7386048 L131.146272,56.5284955 C130.162536,63.3515948 131.899234,67.535658 135.828319,69.0477681 C139.469844,70.4492109 144.896235,69.4889155 150.848291,66.4613654 C163.868356,59.8386291 175.181635,46.1126221 177.323162,32.3460745 L177.426394,31.6378223 L177.628238,30.1669158 L177.904296,28.0223397 L178.099779,26.4027083 L178.38076,23.9343605 L178.681563,21.140723 L180.095145,7.37721219 L180.350887,5.07310473 L180.43682,4.31727616 L180.698545,2.09654287 L180.876615,0.654163612 L181.057853,-0.758522001 L181.242514,-2.14219457 L181.430852,-3.49753469 C181.462562,-3.72110149 181.494436,-3.94351612 181.52648,-4.16479278 L181.720812,-5.47891036 L181.91946,-6.766397 C181.952942,-6.97879668 181.986614,-7.19011509 182.020481,-7.40036641 L182.22608,-8.64918276 C182.260752,-8.85522246 182.29563,-9.06022344 182.33072,-9.26419986 L182.543843,-10.4758773 L182.7623,-11.6636462 C182.836037,-12.05566 182.910705,-12.4438025 182.986348,-12.8281871 L183.216241,-13.9701807 C183.293874,-14.347163 183.372524,-14.7205008 183.452233,-15.0903076 L183.694581,-16.1892483 C184.881696,-21.4506919 186.300434,-25.9935873 188.080359,-30.1637506 C192.780749,-41.1762375 199.770938,-48.3242161 209.836081,-51.3701534 L210.275636,-51.5 Z" id="路径" fill="url(#radialGradient-5)" fill-rule="nonzero" opacity="0.6" mask="url(#mask-3)"></path>
                    <path d="M104.701417,65.9640378 L103.88163,65.0550593 L103.377808,64.4831217 L99.3494019,59.80832 L96.9732976,57.0850172 L95.7792773,55.7329185 L94.8926269,54.741952 L94.148168,53.9263478 L93.8993701,53.6601116 L93.6824949,53.4328373 C90.4940414,50.137362 87.7473644,48.0378707 84.9164304,46.90546 C71.7905908,41.6549521 55.9360236,42.4094322 37.343227,49.1873398 L36.0712931,49.6588039 C35.8585969,49.7389369 35.645547,49.8198479 35.4321436,49.9015367 L34.7908722,50.1489369 L34.5,49.3820527 L35.7918888,48.887555 C55.1071639,41.6112931 71.5847817,40.6893479 85.2145776,46.141445 C88.0649259,47.2816217 90.7987124,49.3341685 93.9143435,52.5014661 L94.3539264,52.9534803 L94.7830663,53.4110449 L95.5882078,54.2952267 L96.5446034,55.3663235 L98.5322962,57.6269678 L99.843595,59.1331267 L104.073767,64.0431327 L104.898594,64.9666432 C114.0718,75.1363107 122.034632,80.5304427 132.943591,82.2014838 C147.490069,84.429722 165.670729,78.9385885 189.057916,63.9441201 C189.46487,63.6342687 189.880228,63.3389755 190.346043,63.0253958 L190.858039,62.6867019 L192.254951,61.7876222 C195.477369,59.7004791 196.893614,58.0368685 198.012616,54.20382 L198.077894,53.9755854 L198.204307,53.5053783 C198.224916,53.4254706 198.245294,53.3447885 198.265442,53.2633252 L198.383561,52.7651184 C198.402786,52.6805038 198.42178,52.5950945 198.440544,52.508884 L198.550354,51.9819516 C198.568193,51.892509 198.585801,51.8022517 198.603178,51.7111729 L198.704662,51.154789 C198.721114,51.0603975 198.737333,50.9651711 198.753321,50.8691031 L198.846464,50.2825419 L198.934039,49.6754592 L199.016037,49.0475324 L199.092453,48.398439 C199.104723,48.2884749 199.116761,48.1776155 199.128565,48.0658539 L199.196593,47.3844055 C199.207465,47.2690087 199.218103,47.1526963 199.228508,47.0354616 L199.288134,46.3209324 L199.342149,45.5839462 L199.390547,44.8241803 C199.398145,44.6956364 199.405508,44.5661299 199.412637,44.4356541 L199.452596,43.6411138 L199.48692,42.8229872 L199.515603,41.9809518 L199.538637,41.114685 L199.556016,40.2238641 L199.567733,39.3081667 L199.573781,38.36727 L199.574153,37.4008515 L199.568842,36.4085885 L199.557841,35.3901585 L199.541143,34.3452388 L199.505401,32.7274855 L199.474431,31.6149303 L199.437741,30.4747564 L199.371965,28.7120046 L199.329396,28.1039135 C199.323049,27.9997504 199.317073,27.8941946 199.311468,27.7872678 L199.28227,27.1294294 C199.27814,27.0171058 199.274376,26.9034547 199.270978,26.7884981 L199.254956,26.0832643 C199.251066,25.8430799 199.248621,25.5978471 199.247609,25.3477402 L199.248851,24.5829711 C199.249769,24.4531305 199.251042,24.322115 199.252667,24.1899463 L199.266631,23.3832695 L199.28897,22.5499609 L199.319595,21.6910657 L199.358421,20.8076293 C199.365571,20.6584029 199.373058,20.5081974 199.380882,20.3570348 L199.431847,19.4387464 L199.490797,18.4985299 L199.557646,17.5374306 L199.632306,16.5564938 L199.714692,15.5567648 L199.804717,14.5392889 L199.902296,13.5051114 L200.00734,12.4552774 L200.119765,11.3908324 L200.239484,10.3128215 L200.36641,9.22229017 L200.500457,8.12028356 L200.641538,7.00784698 L200.866162,5.3219225 L201.024452,4.18798414 L201.189475,3.0472743 L201.361144,1.90083827 L201.539372,0.749721328 L201.724073,-0.405031241 L201.915161,-1.56237416 L202.11255,-2.72126213 L202.316153,-3.8806499 C202.3506,-4.07386477 202.385302,-4.26705691 202.420257,-4.46020454 L202.741655,-6.19674363 L202.963382,-7.35135905 L203.190977,-8.50229312 L203.424354,-9.64850056 C203.463727,-9.83908317 203.503338,-10.0294253 203.543184,-10.2195051 L203.785073,-11.3566627 L204.036789,-12.5060185 L204.297296,-13.6628778 C204.341063,-13.8545608 204.385003,-14.0456777 204.429118,-14.2362245 L204.695882,-15.372631 C204.740688,-15.560881 204.785667,-15.7485528 204.830818,-15.9356423 L205.103786,-17.0511595 L205.380859,-18.152508 L205.662014,-19.2394939 L205.947228,-20.3119232 L206.236476,-21.3696017 L206.529735,-22.4123357 L206.82698,-23.439931 L207.128188,-24.4521938 C207.178718,-24.6196157 207.229413,-24.7863907 207.280271,-24.9525148 L207.587378,-25.9414148 L207.898389,-26.9144973 C207.950548,-27.0753488 208.002869,-27.2355332 208.055351,-27.3950463 L208.372172,-28.3440387 L208.692837,-29.2767285 C208.7466,-29.4308075 208.800522,-29.5841991 208.854603,-29.7368993 L209.180989,-30.6447716 L209.511158,-31.5358562 L209.845088,-32.4099594 L210.182754,-33.266887 L210.524133,-34.1064452 C210.638542,-34.3833814 210.753566,-34.6573904 210.869201,-34.9284398 L211.217933,-35.7326769 L211.570307,-36.5189626 C211.806431,-37.0371261 212.044966,-37.5431926 212.285881,-38.0369035 L212.649035,-38.7681708 C212.709857,-38.8884934 212.770826,-39.0080357 212.831943,-39.1267937 L213.200406,-39.8298971 C215.545146,-44.2228649 218.101067,-47.4715573 220.840917,-49.3542115 L221.057603,-49.5 L221.5,-48.811364 C218.355825,-46.7408676 215.430025,-42.7427582 212.784093,-37.1933661 L212.432966,-36.4442874 L212.085188,-35.6770213 C212.027506,-35.5476391 211.969965,-35.4175073 211.912565,-35.28663 L211.569872,-34.4924547 C211.513041,-34.3586123 211.456354,-34.2240327 211.39981,-34.0887202 L211.062274,-33.2680815 C211.006307,-33.1298534 210.950485,-32.9909004 210.894809,-32.8512269 L210.562504,-32.0045709 L210.233727,-31.1408179 L209.908509,-30.260166 L209.586883,-29.3628136 C209.53358,-29.2118741 209.480428,-29.0602471 209.427428,-28.9079366 L209.111252,-27.9859049 C209.058861,-27.830877 209.006623,-27.6751739 208.954539,-27.5187997 L208.643885,-26.5725349 L208.336952,-25.6103623 L208.033774,-24.6324803 L207.734382,-23.639087 C207.684801,-23.4722399 207.635379,-23.3047548 207.586117,-23.1366357 L207.292466,-22.1203473 L207.002682,-21.0890433 C206.954709,-20.915919 206.906898,-20.7421773 206.859251,-20.5678224 L206.57533,-19.5143666 L206.295357,-18.4463908 L206.019365,-17.3640931 L205.747387,-16.2676719 C205.702393,-16.083769 205.657568,-15.899286 205.612912,-15.7142268 L205.347015,-14.5969919 L205.085211,-13.4661289 C205.04192,-13.2765271 204.998801,-13.0863657 204.955855,-12.8956489 L204.700254,-11.7447156 L204.456744,-10.6165281 L204.218815,-9.48153564 L203.986551,-8.34078331 C203.948317,-8.15023599 203.910323,-7.95949221 203.87257,-7.76857377 L203.648965,-6.6211411 L203.43124,-5.47056123 L203.21948,-4.31787922 L203.013772,-3.16414014 L202.814201,-2.01038907 L202.52654,-0.282026076 L202.253169,1.44048537 L202.079005,2.58383369 L201.911407,3.72196863 L201.750461,4.85384513 L201.596253,5.97841812 L201.448868,7.09464252 L201.308392,8.20147326 L201.174911,9.29786526 L201.048511,10.3827735 L200.929278,11.4551528 L200.817297,12.5139581 L200.712654,13.5581445 L200.615436,14.5866667 L200.525727,15.5984798 L200.443613,16.5925386 L200.334872,18.0480516 L200.272122,18.9931526 L200.217269,19.9168416 L200.14998,21.2599416 L200.115241,22.1255284 L200.088698,22.9660455 L200.070436,23.7804478 L200.060542,24.5676901 L200.059102,25.3267275 C200.059571,25.4508253 200.060396,25.5737043 200.061578,25.6953428 L200.072978,26.4101132 C200.078218,26.6432918 200.084903,26.8713341 200.093046,27.094066 L200.121868,27.7461561 L200.159529,28.3653383 C200.166547,28.465735 200.173937,28.5647169 200.181701,28.6622624 L200.227365,29.8537405 L200.285014,31.5881169 L200.329657,33.2600839 L200.3522,34.3406121 L200.375193,35.9110629 L200.383313,36.924955 L200.38567,37.9127757 L200.382269,38.8748583 L200.373111,39.8115361 L200.358201,40.7231422 L200.337542,41.61001 L200.311138,42.4724725 L200.278993,43.3108631 L200.241109,44.1255149 L200.197491,44.9167612 L200.148141,45.6849353 L200.093065,46.4303703 C200.083408,46.5527331 200.073513,46.6741623 200.063379,46.7946648 L199.999718,47.5066161 L199.930337,48.1966613 L199.855242,48.8651339 L199.774435,49.5123669 L199.687919,50.1386936 C199.673024,50.2413577 199.657892,50.3431646 199.642522,50.4441212 L199.547451,51.0397132 C199.49849,51.3324632 199.447392,51.6176857 199.394159,51.8955682 L199.284846,52.441602 C199.266153,52.530995 199.247223,52.6195864 199.228056,52.707383 L199.110208,53.2246815 C199.049863,53.4786179 198.987386,53.7255267 198.922778,53.9655953 L198.790725,54.4366679 C197.703284,58.161601 196.307893,59.9939442 193.457852,61.9676881 L192.95481,62.3078089 L191.147616,63.4751046 C190.544949,63.8715852 190.037829,64.2258802 189.518817,64.6193984 C186.455418,66.5836723 183.479901,68.3863287 180.588746,70.031222 L179.260343,70.7792155 C160.525808,81.2174909 145.374652,84.9365151 132.822212,83.0137248 C121.854002,81.3336078 113.822013,75.9751249 104.701417,65.9640378 Z" id="路径" fill="url(#radialGradient-6)" fill-rule="nonzero" opacity="0.6" mask="url(#mask-3)"></path>
                    <path d="M312.156241,42.4827238 L313.210835,42.6785057 C315.517965,43.1226295 317.971051,43.6966747 320.605311,44.4080272 L321.834116,44.7461202 L323.089419,45.1038739 C323.300887,45.1651468 323.513491,45.2272457 323.727248,45.2901738 L325.023741,45.6777209 L326.348656,46.0853321 L327.702763,46.5131686 L329.08683,46.9613919 L330.501628,47.4301632 C330.740031,47.5100131 330.979746,47.5907259 331.220791,47.6723049 L332.683126,48.172201 L334.178116,48.6930486 L335.706528,49.2350091 C335.964092,49.3271042 336.22308,49.4200857 336.483509,49.5139571 L338.063499,50.0878894 L339.678836,50.6833381 L340.5,50.9891814 L340.213611,51.7671358 L338.590024,51.164437 L337.002219,50.5832316 L335.449428,50.023356 L333.93088,49.4846465 L332.445808,48.9669397 L330.993441,48.4700719 L329.573011,47.9938795 L328.183747,47.538199 L326.82488,47.1028667 C325.480956,46.677654 324.181475,46.2827184 322.922973,45.9173235 L321.678004,45.5617483 L320.459585,45.2257035 C320.258686,45.1713144 320.05886,45.1177324 319.860092,45.0649538 L318.680058,44.7578977 C318.29086,44.6587416 317.905768,44.5627724 317.524651,44.4699629 L316.393102,44.2009858 C304.44776,41.4324236 296.442942,41.871397 288.177141,44.6244912 L287.664927,44.7981713 L286.872736,45.0822499 L284.634779,45.9190902 L276.701715,48.9491468 L276.094699,49.1738581 C267.780098,52.1810431 259.682832,54.1059107 248.98125,55.1878105 L248.152867,55.2693749 C218.076907,58.1524396 210.041545,72.7158428 223.86612,99.2988997 L224.291738,100.108126 L223.565826,100.5 C208.87761,72.8804799 217.109352,57.4117008 248.074864,54.4433642 C258.842671,53.4111682 266.937766,51.5505632 275.181943,48.6204197 L275.918193,48.3558825 L277.729243,47.6728167 L284.355081,45.1385916 L286.212888,44.4417364 L287.112748,44.11384 L287.525167,43.9693863 C295.012813,41.4130013 302.233619,40.7099242 312.156241,42.4827238 Z" id="路径" fill="url(#radialGradient-7)" fill-rule="nonzero" opacity="0.6" mask="url(#mask-3)"></path>
                    <path d="M255.486939,-39.5 L256.147523,-39.0033354 C252.777436,-34.4091922 252.420521,-26.4552845 255.133304,-15.1333101 C255.360857,-14.059788 255.521246,-12.694768 255.617108,-11.1162047 L255.659675,-10.3094886 C255.665877,-10.1721904 255.671634,-10.0334994 255.676948,-9.89346082 L255.70352,-9.03741908 C255.731885,-7.87543087 255.732061,-6.63297056 255.704829,-5.33313582 L255.679278,-4.34786297 L255.643522,-3.34324012 C255.636716,-3.17431077 255.629489,-3.00466541 255.62184,-2.83434913 L255.570915,-1.80476141 L255.509968,-0.761237206 L255.439073,0.294058075 C255.426432,0.470801244 255.41338,0.64794465 255.399918,0.82544318 L255.314238,1.89433494 L255.218793,2.96958426 L255.113656,4.04902573 C255.077004,4.40929765 255.038748,4.76990736 254.998901,5.13049395 L254.874601,6.21182352 C254.831585,6.57200299 254.78699,6.93179846 254.740829,7.29084901 L254.597659,8.36540503 C254.523736,8.90120477 254.446317,9.43451643 254.365442,9.96412197 L254.199096,11.0180307 L254.023608,12.0598909 L253.839051,13.0875374 C253.397896,15.4671122 252.883278,17.7129235 252.299387,19.7011821 L252.173209,20.1232502 C250.425911,25.8640532 251.433914,32.1442126 254.62712,35.4518158 C258.189092,39.1413959 263.798545,38.6656688 270.480425,33.142279 C272.968285,30.6111288 274.179448,28.2758842 274.894261,24.2538071 L274.995415,23.6529503 L275.090026,23.026699 L275.178638,22.3737419 C275.192937,22.2626174 275.207008,22.1503255 275.220864,22.0368389 L275.301495,21.3413647 C275.314532,21.2229901 275.327375,21.1033662 275.340036,20.9824656 L275.41391,20.2415239 L275.483958,19.4686316 L275.550724,18.6624773 L275.859642,14.4477323 L275.999735,12.6781435 L276.082158,11.7209865 L276.165225,10.8270701 L276.279626,9.71205206 L276.370143,8.91731323 L276.466399,8.14434299 L276.569926,7.3806997 L276.721911,6.35551318 L276.893162,5.29529817 L277.087302,4.17056336 C279.972284,-12.1078834 287.741463,-18.4897422 301.129548,-12.6853855 C314.991383,-6.67563584 328.269111,9.41386731 331.196539,23.0448676 C332.462837,28.9411388 337.835456,35.7190586 345.711802,42.0304262 C352.512411,47.4797984 360.488766,51.957296 366.1351,53.5930015 L366.5,53.6956298 L366.286044,54.5 C360.502736,52.9233218 352.231003,48.3166865 345.201138,42.6836095 C337.329747,36.3762131 331.901515,29.5916937 330.465593,23.5450659 L330.392496,23.2218523 C327.522008,9.85597756 314.42441,-6.01524992 300.805633,-11.9196228 C287.984848,-17.4780283 280.699364,-11.4934927 277.897197,4.31767827 L277.730852,5.27747424 C277.704609,5.4327712 277.679076,5.5859904 277.654205,5.73751695 L277.512548,6.62944549 C277.467725,6.92203841 277.425174,7.21094171 277.384515,7.49923639 L277.315219,8.00374231 L277.188624,9.0052349 L277.101839,9.76490015 L276.992009,10.8283341 L276.885944,11.9736632 L276.780418,13.2272082 L276.587335,15.7604739 L276.435334,17.8831635 L276.337627,19.1389528 C276.326411,19.2742807 276.315064,19.4082335 276.303574,19.5408376 L276.232831,20.3204889 L276.158118,21.0690365 L276.078889,21.7877456 C276.051666,22.0224828 276.023599,22.2524578 275.994597,22.4778815 L275.904696,23.1407093 L275.808639,23.7774941 C275.080318,28.3548518 273.811393,30.9334724 271.032338,33.7586319 C264.020401,39.5578392 257.938518,40.0736321 254.038675,36.0340764 C250.678079,32.5530863 249.596115,26.129524 251.289908,20.2064681 L251.386866,19.8779462 C251.721928,18.7770913 252.03481,17.5893975 252.324748,16.3379638 L252.537888,15.3877982 C252.781503,14.2661706 253.007405,13.1001633 253.215079,11.9052508 L253.38861,10.8743221 C253.416784,10.7014412 253.444583,10.5280605 253.472005,10.3542254 L253.63201,9.30612046 L253.782908,8.24927165 L253.924626,7.18584444 C253.970328,6.83051292 254.014488,6.47444591 254.057094,6.11800434 L254.180239,5.04791686 L254.29399,3.97774751 L254.398274,2.90966181 L254.49302,1.84582527 L254.578156,0.788403398 C254.591541,0.612821282 254.604522,0.437596673 254.617098,0.262774687 L254.687685,-0.780964841 C254.698635,-0.953995878 254.709178,-1.12653406 254.719311,-1.29853428 L254.775186,-2.32371906 L254.821164,-3.33382713 L254.857173,-4.32669295 C254.862339,-4.49061343 254.867088,-4.65372526 254.871416,-4.81598331 L254.892336,-5.77892545 C254.902908,-6.41357549 254.906714,-7.03312152 254.903658,-7.63467619 L254.893917,-8.52315375 L254.873811,-9.38247876 C254.869592,-9.52314991 254.864939,-9.66251614 254.859849,-9.80053234 L254.824062,-10.6120682 L254.777731,-11.3890377 C254.683082,-12.7804727 254.534912,-13.9867179 254.33123,-14.9477255 C251.611334,-26.2987579 251.925485,-34.4067924 255.325312,-39.2742131 L255.486939,-39.5 Z" id="路径" fill="url(#radialGradient-8)" fill-rule="nonzero" opacity="0.6" mask="url(#mask-3)"></path>
                    <path d="M312.277986,-52.5 C315.609408,-36.1336659 322.94824,-21.990991 334.321393,-10.0379553 C340.152232,-2.79108922 344.664668,5.78934079 347.877805,17.0036399 L348.081134,17.7230358 C350.410474,26.0781847 357.377855,31.0446816 369.064985,32.6203993 L369.5,32.6772088 L369.404241,33.5 C357.311921,31.9715211 349.952351,26.8947811 347.40731,18.2676509 L347.317417,17.9542808 C344.123733,6.49880009 339.597123,-2.1910635 333.734348,-9.47986788 C322.449727,-21.3378245 315.088717,-35.3734116 311.65566,-51.5785373 L311.5,-52.3280067 L312.277986,-52.5 Z" id="路径" fill="url(#radialGradient-9)" fill-rule="nonzero" opacity="0.6" mask="url(#mask-3)"></path>
                    <path d="M306.5,-60.3013243 L307.297592,-60.5 L307.670633,-59.0111052 C307.732995,-58.7650427 307.795451,-58.5200235 307.858001,-58.2760477 L308.234428,-56.8247134 L308.61311,-55.3984215 L308.994044,-53.9971736 L309.377228,-52.6209714 C309.505331,-52.1664117 309.633809,-51.7160267 309.762661,-51.2698164 L310.150339,-49.9437103 L310.540261,-48.6426548 C310.670609,-48.2131449 310.801331,-47.7878104 310.932425,-47.3666514 L311.326829,-46.1157019 C311.392749,-45.9092982 311.458763,-45.7039385 311.52487,-45.4996228 L311.922629,-44.286257 C311.989108,-44.0861175 312.055681,-43.887022 312.122346,-43.6889707 L312.523456,-42.5131923 C312.657531,-42.1254428 312.791978,-41.74187 312.926796,-41.3624742 L313.332366,-40.2368181 C313.400146,-40.0512974 313.46802,-39.8668209 313.535986,-39.6833888 L313.944894,-38.5953287 C316.405019,-32.1421645 318.985214,-27.042566 321.683399,-23.2981187 L322.613817,-22.0166843 L323.201785,-21.2179326 L323.766675,-20.4595964 L324.310861,-19.7382342 L324.836716,-19.0504047 L325.596325,-18.0740065 L326.086742,-17.4549529 L326.919342,-16.4263734 L328.760708,-14.1984153 L329.169885,-13.6941984 L329.443702,-13.34663 C329.711637,-12.9930309 329.94997,-12.6539961 330.181777,-12.2943804 L330.385585,-11.9701158 C330.419644,-11.9145601 330.453779,-11.8581886 330.488038,-11.8009114 L330.695444,-11.4456595 L330.908056,-11.0643522 L331.128117,-10.6526716 C331.165539,-10.5812871 331.203366,-10.5084573 331.241643,-10.434092 L331.477088,-9.96875553 L331.725596,-9.46225129 L332.12776,-8.61586002 L332.554956,-7.6902479 L333.273176,-6.10389579 L334.216818,-3.98056102 L335.249682,-1.61751863 L336.371779,0.985254219 L337.375033,3.33737551 L338.660753,6.37971351 L340.273582,10.2321839 L341.5,13.1837978 L340.741068,13.5 L338.580247,8.31201852 L337.03851,4.64997945 L335.618331,1.31440553 L334.497798,-1.28479073 L333.466598,-3.64408557 L332.828766,-5.08365895 L332.08732,-6.73316271 L331.672239,-7.64287964 L331.270189,-8.50768985 L331.022714,-9.02692936 L330.789496,-9.50457707 L330.568661,-9.9442747 L330.358333,-10.349664 L330.156636,-10.7243867 C330.123634,-10.7844872 330.090915,-10.8434617 330.058437,-10.9013861 L329.86617,-11.2369371 L329.677844,-11.5509258 L329.491585,-11.846994 C329.271422,-12.1885459 329.045039,-12.5105809 328.789346,-12.8480249 L328.508629,-13.203829 L326.168227,-16.0437589 L325.688652,-16.6359403 L325.200276,-17.2479014 C325.118014,-17.3517344 325.035287,-17.456535 324.952045,-17.5623748 L324.187624,-18.5449276 L323.6586,-19.2368751 L322.830013,-20.3387678 L321.952243,-21.5277497 L321.335782,-22.3745226 L321.017277,-22.815435 C318.584745,-26.1912176 316.254022,-30.6342353 314.023646,-36.1456016 L313.606626,-37.1915027 C313.468011,-37.5443099 313.329788,-37.9012905 313.191956,-38.262445 L312.779633,-39.3584299 C312.642583,-39.7279321 312.505924,-40.1016084 312.369656,-40.4794591 L311.962022,-41.6255342 C311.826534,-42.0117338 311.691437,-42.402108 311.556729,-42.796657 L311.153776,-43.9928289 L310.753159,-45.2140517 L310.354877,-46.460327 C310.288691,-46.6701273 310.222603,-46.8809716 310.156611,-47.0928598 L309.761828,-48.3767168 C309.696224,-48.592781 309.630718,-48.8098892 309.565309,-49.0280414 L309.174019,-50.3494839 C309.108998,-50.5718125 309.044074,-50.7951852 308.979246,-51.0196021 L308.591444,-52.3786337 C308.527004,-52.6072274 308.462661,-52.8368653 308.398415,-53.0675474 L308.014096,-54.4641718 L307.632098,-55.88586 C307.568625,-56.1248968 307.505248,-56.3649779 307.441968,-56.6061036 L307.063445,-58.0653907 C307.000551,-58.3106941 306.937753,-58.5570421 306.875052,-58.8044346 L306.5,-60.3013243 Z" id="路径" fill="url(#radialGradient-10)" fill-rule="nonzero" opacity="0.6" mask="url(#mask-3)"></path>
                    <path d="M324.5,-51.3850026 L325.328845,-51.5 L325.528533,-50.1950698 L325.734982,-48.9089874 L325.948191,-47.6417529 C325.984289,-47.4321178 326.020668,-47.2232681 326.057329,-47.0152037 L326.280671,-45.776241 C326.318457,-45.5713179 326.356525,-45.3671801 326.394875,-45.1638277 L326.628345,-43.953137 L326.868566,-42.7612942 L327.115533,-41.5882994 C327.157257,-41.3943709 327.199261,-41.2012278 327.241546,-41.00887 L327.49863,-39.8641472 C327.542039,-39.6749307 327.585729,-39.4864996 327.6297,-39.2988538 L327.896895,-38.182403 L328.170828,-37.0848003 L328.451496,-36.0060457 C328.498835,-35.827824 328.546455,-35.6503875 328.594355,-35.4737364 L328.885122,-34.423254 L329.182618,-33.3916196 C329.232762,-33.2212512 329.283185,-33.0516682 329.333889,-32.8828705 L329.641476,-31.8795084 C329.6933,-31.713852 329.745405,-31.548981 329.79779,-31.3848954 L330.115461,-30.4098055 C330.222472,-30.0879169 330.330602,-29.7691697 330.439853,-29.4535638 L330.770962,-28.5161704 C330.826706,-28.3615089 330.882731,-28.2076326 330.939035,-28.0545418 L331.280216,-27.1454207 C331.395062,-26.8455217 331.511027,-26.5487641 331.62811,-26.2551479 L331.982713,-25.3837234 C334.786712,-18.6313873 338.208064,-13.6138812 342.241702,-10.3312476 L342.5,-10.1240739 L341.968999,-9.5 C339.079833,-11.7836174 336.50129,-14.9062469 334.231669,-18.8679028 L333.822414,-19.5974493 C332.537218,-21.9369574 331.354395,-24.5546003 330.27362,-27.4503808 L329.935714,-28.3740834 C329.656953,-29.1515402 329.385255,-29.9482586 329.120617,-30.7642387 L328.806439,-31.7526604 L328.499035,-32.7595733 L328.198402,-33.7849775 L327.90454,-34.8288729 L327.617445,-35.8912597 C327.570159,-36.0698651 327.523156,-36.2492409 327.476434,-36.4293873 L327.199485,-37.519511 C327.153891,-37.7027392 327.108578,-37.8867379 327.063547,-38.0715071 L326.79674,-39.1893677 C326.752835,-39.3772188 326.709212,-39.5658403 326.665871,-39.7552324 L326.409201,-40.9008301 C326.240339,-41.6707257 326.07598,-42.4529489 325.916122,-43.2474998 L325.679709,-44.4485717 C325.60203,-44.852011 325.525475,-45.2585321 325.450045,-45.6681351 L325.227126,-46.90619 L325.010951,-48.1627364 C324.940016,-48.5846671 324.870205,-49.0096797 324.801516,-49.4377742 L324.598821,-50.7313036 L324.5,-51.3850026 Z" id="路径" fill="url(#radialGradient-11)" fill-rule="nonzero" opacity="0.6" mask="url(#mask-3)"></path>
                    <path d="M298.528918,56.8645876 C300.871422,55.8370118 300.870382,50.3781991 298.526595,44.671988 C296.182807,38.965777 292.383818,35.1729937 290.041314,36.2005695 C287.69881,37.2281453 287.69985,42.686958 290.043637,48.3931691 C292.387424,54.0993801 296.186414,57.8921634 298.528918,56.8645876 Z" id="椭圆形" fill="#C27D01" filter="url(#filter-12)" mask="url(#mask-3)"></path>
                    <path d="M347.472527,3.46315676 C345.799901,1.90619744 340.65069,4.70455099 335.971442,9.71345434 C331.292195,14.7223577 328.854847,20.045041 330.527473,21.6020004 C332.200099,23.1589597 337.34931,20.3606061 342.028558,15.3517028 C346.707805,10.3427994 349.145153,5.02011607 347.472527,3.46315676 Z" id="椭圆形" fill="#C27D01" filter="url(#filter-13)" mask="url(#mask-3)"></path>
                </g>
                <g id="编组-2" transform="translate(292.000000, -0.002579)">
                    <g id="编组-17" transform="translate(0.000000, 36.000000)">
                        <mask id="mask-15" fill="white">
                            <use xlink:href="#path-14"></use>
                        </mask>
                        <g id="蒙版"></g>
                        <g mask="url(#mask-15)">
                            <g transform="translate(0.000000, -4.000000)">
                                <path d="M4.0125012,9.18444546 L4.0125012,9.18444546 C3.9918826,9.20238004 3.96831848,9.21433643 3.94475437,9.232271 C2.23046493,10.4308985 1.28495478,12.4694621 1.04342259,14.9504118 C0.898234648,16.9665731 1.11785655,18.9926769 1.69143578,20.928604 C1.69143578,20.928604 1.69143578,20.928604 1.69143578,20.928604 C2.18730234,22.6651663 2.87192315,24.340387 3.73267732,25.9233835 L3.73267732,25.9233835 C4.18270056,26.7611299 4.67424938,27.575207 5.20543457,28.3624859 C5.66493483,29.0380216 6.1479992,29.6836664 6.64579115,30.293442 L6.64579115,30.293442 C7.77110155,31.6838753 9.04331792,32.9448445 10.4396138,34.0537249 C10.4396138,34.0537249 10.4396138,34.0537249 10.4396138,34.0537249 C11.96334,35.2931181 13.6861511,36.2567569 15.5324084,36.9023334 L15.5324084,36.9023334 C18.100897,37.7512367 20.5221099,37.6316729 22.366002,36.3433725 L22.4308033,36.2925578 L22.4308033,36.2925578 L27.5118158,32.7325444 L25.3615902,29.5401898 C25.3481937,27.7372116 25.0671794,25.9465721 24.5280096,24.228566 C24.5280096,24.228566 24.5280096,24.228566 24.5280096,24.228566 C24.0002015,22.5101352 23.2890634,20.8553288 22.4072392,19.2935684 L22.4072392,19.2935684 C22.0145039,18.6040836 21.5923135,17.9205769 21.140668,17.2430485 C20.6051343,16.455493 20.0289742,15.6971986 19.4145965,14.9713355 C18.2599602,13.5852712 16.9557829,12.3349895 15.5265173,11.2439327 L15.5265173,11.2439327 C14.2337288,10.2483792 12.8087237,9.44331906 11.293813,8.8526558 L9.09351369,5.62742113 L4.0125012,9.18444546 Z" id="路径" fill="#FFC100" fill-rule="nonzero"></path>
                                <ellipse id="椭圆形" fill="url(#linearGradient-16)" fill-rule="nonzero" transform="translate(18.280344, 19.273568) rotate(-34.620000) translate(-18.280344, -19.273568) " cx="18.280344" cy="19.2735683" rx="9.71401022" ry="16.4103999"></ellipse>
                                <path d="M9.04933098,5.70513763 C8.36537718,6.23351044 7.79336173,6.89633404 7.3674422,7.65402827 C6.95531398,8.41100399 6.66308235,9.22905324 6.50146094,10.0781852 C6.20190316,11.7799897 6.21788608,13.5235756 6.54858917,15.2194305 C6.85763744,16.9203824 7.36488072,18.5780127 8.05963811,20.1574172 C8.74835649,21.7412821 9.58476289,23.254676 10.5574344,24.6769305 C11.5267894,26.102712 12.6285372,27.4309583 13.8475741,28.643461 C15.0551948,29.8659238 16.4007856,30.9394617 17.8564193,31.8417938 C19.3001087,32.7540765 20.8981117,33.3865188 22.5692425,33.7069897 C23.4094038,33.8548962 24.2673324,33.8670022 25.1112215,33.7428589 C25.9604054,33.6056311 26.7731764,33.2944254 27.5000337,32.8281955 C26.798948,33.3498388 25.9951792,33.7117885 25.1436221,33.8893246 C24.2851969,34.0613336 23.4052671,34.093621 22.5368418,33.9849756 C20.8023879,33.7294588 19.1335985,33.1334917 17.6237237,32.2303762 C14.5839527,30.4727878 12.0714288,27.8961869 10.0832066,25.0027419 C8.09498428,22.1092969 6.63695461,18.8063457 6.09497994,15.2971469 C5.79996918,13.5438411 5.84298303,11.7491041 6.22163707,10.0124251 C6.42975584,9.14999496 6.77178474,8.32666629 7.23489405,7.57332268 C7.69907024,6.82445427 8.31819109,6.18699352 9.04933098,5.70513763 Z" id="路径" fill="#FEFF5A" fill-rule="nonzero"></path>
                                <path d="M11.8181146,23.8011253 C14.0861608,27.1489129 16.9639284,29.7135573 19.9182794,31.0586506 C23.4528968,32.6667843 25.4941384,31.8417938 26.3984113,31.2081054 C27.3026843,30.574417 28.7901691,28.924436 28.5574734,25.005731 C28.366015,21.7177253 27.0081328,18.0799954 24.7283046,14.7471533 C22.4484764,11.4143111 19.5972184,8.83472122 16.6399218,7.48663889 C13.1053044,5.8785052 11.0640629,6.70349572 10.1597899,7.33718409 C9.25551699,7.97087246 7.76508666,9.62085349 8.00072782,13.5425476 C8.19218626,16.821586 9.55006844,20.4652941 11.8181146,23.8011253 Z" id="路径" fill="url(#linearGradient-17)" fill-rule="nonzero"></path>
                                <path d="M19.9182794,31.0586506 C20.8618371,31.4460977 21.8526253,31.7024868 22.8637939,31.8208701 C23.846142,31.9322591 24.8396397,31.7635362 25.732725,31.3336474 C26.5936248,30.8758861 27.2675298,30.1242576 27.6355274,29.2113892 C28.0105403,28.290287 28.2104236,27.3054951 28.2246303,26.3089769 C28.2346205,24.282895 27.8720087,22.2727067 27.1554085,20.3815994 C26.4590705,18.4748665 25.5245896,16.6666533 24.3748429,15.0012264 C23.2466929,13.3200975 21.9113674,11.792239 20.4013438,10.4548113 C18.9122806,9.10482875 17.1881427,8.04855217 15.3173858,7.34017318 C14.3964738,6.99812767 13.4198847,6.83684299 12.4396182,6.86490691 C11.4670309,6.88942177 10.5343038,7.2621038 9.8063282,7.91706873 C9.08842374,8.61631658 8.57817968,9.50588597 8.33357096,10.4847023 C8.08648462,11.4839495 7.9745101,12.5126646 8.00072782,13.5425476 C7.88042992,12.5046528 7.91818126,11.454155 8.11265737,10.4279094 C8.30688481,9.37151873 8.78963153,8.39173994 9.50588572,7.60022454 C10.2857958,6.82840337 11.3090322,6.36055193 12.3954354,6.27904407 C13.4566659,6.20150896 14.522561,6.33659026 15.5324084,6.67659385 C17.5207898,7.35255357 19.3591524,8.41786411 20.9433185,9.81215564 C24.119538,12.5650158 26.5328765,16.1113417 27.9448064,20.1006244 C28.6648502,22.0972512 28.9940266,24.2172811 28.9138807,26.341857 C28.8668372,27.4215369 28.6127047,28.4815367 28.16572,29.4624733 C27.7051918,30.4637543 26.9114703,31.2681611 25.9241835,31.7341863 C24.9411883,32.133181 23.8675293,32.2439997 22.8255022,32.0540196 C21.8117179,31.8760629 20.8310901,31.5403176 19.9182794,31.0586506 Z" id="路径" fill="#E2A106" fill-rule="nonzero"></path>
                                <polygon id="路径" fill="#FF0500" fill-rule="nonzero" points="25.5059204 20.9106694 24.8932534 21.4965322 24.804888 21.5772378 25.417555 20.9943641"></polygon>
                                <g filter="url(#filter-18)" fill="none" fill-rule="evenodd" id="编组-20" stroke-width="1">
                                    <g transform="translate(10.983129, 12.893914)">
                                        <path d="M9.81585944,1.82633771 C9.67718474,1.61783934 9.49265324,1.44490357 9.27683029,1.32118047 C9.1108602,1.22953781 8.930467,1.16784279 8.74369217,1.13884561 L8.62587159,1.13884561 C8.4290364,1.12759236 8.23502303,1.19038238 8.08095141,1.31520228 L8.08095141,1.31520228 L7.4682844,1.91302149 L7.4682844,1.91302149 C7.62300472,1.78943727 7.81654542,1.72680022 8.01320458,1.73666482 C8.05242368,1.73369755 8.09180605,1.73369755 8.13102516,1.73666482 C8.31799089,1.76311642 8.49864914,1.82388922 8.66416328,1.91601059 C8.8793594,2.04060429 9.06371231,2.21337269 9.20319243,2.42116783 L13.8217591,8.6982696 L14.4344262,8.10045038 L9.81585944,1.82633771 Z" id="路径" fill="#008EFF" fill-rule="nonzero"></path>
                                        <path d="M7.80996408,2.52578619 L5.99258164,1.99970528 L6.04854641,1.54237358 L6.09862016,1.10297645 C6.14689579,0.68429133 6.33505333,0.295023838 6.63175828,6.18552828e-15 L6.01909127,0.582873736 C5.72297003,0.878325284 5.53491936,1.26737167 5.48595314,1.68585019 L5.4358794,2.1372037 L5.37991462,2.59752449 L7.19729706,3.12061631 L7.80996408,2.52578619 Z" id="路径" fill="#008EFF" fill-rule="nonzero"></path>
                                        <path d="M8.98522436,9.50532554 C8.86420551,9.4896425 8.74421036,9.46668575 8.62587159,9.43657633 C7.70254178,9.18551862 6.89301876,8.61849311 6.33426132,7.83143173 C5.41820631,6.59992415 5.48595314,6.05590866 5.61555578,5.06053966 L5.63322887,4.90510667 L7.78050893,5.47901312 C7.80701856,5.47901312 7.96018531,5.52384956 8.09567898,5.568686 C8.44366378,5.6056659 8.7581065,5.79581167 8.95576921,6.08878872 C9.18179571,6.37765161 9.30897432,6.73335448 9.31806749,7.10209229 C9.33169189,7.38631989 9.22442578,7.66280704 9.02351605,7.86132269 L9.63618306,7.26350348 C9.83644822,7.06455343 9.94359551,6.78837255 9.93073451,6.50427307 C9.92164133,6.13553526 9.79446272,5.7798324 9.56843623,5.4909695 C9.36587519,5.20626451 9.05269773,5.02341422 8.70834599,4.98880136 C8.57285233,4.94695401 8.41379455,4.91108486 8.39317594,4.90211757 L4.2989108,3.79316293 C4.21467167,3.7652061 4.12780696,3.74617372 4.03970553,3.7363701 C3.86683556,3.71944245 3.69238206,3.73877382 3.52718601,3.79316293 C3.38723989,3.83484656 3.25903572,3.90962906 3.15310567,4.01136694 L2.54043865,4.60918616 C2.6463687,4.50744828 2.77457287,4.43266577 2.914519,4.39098214 C3.0809467,4.34262142 3.25537707,4.32939644 3.42703852,4.35212389 C3.51490323,4.36337021 3.60163373,4.38237318 3.68624379,4.40891672 L5.50657175,4.89613938 L5.0293984,5.31461283 L4.99110671,5.6434134 C4.86150407,6.64177149 4.79375724,7.18279788 5.70981225,8.41430547 C6.26945327,9.20106808 7.07848816,9.76880696 8.00142252,10.0224392 C8.11981457,10.051577 8.23981113,10.0735359 8.36077529,10.0881993 C9.00330353,10.1889927 9.65790876,10.0098947 10.1634302,9.59499842 L10.242959,9.52326011 L10.8556261,8.9254409 L10.7760972,9.0001683 C10.2753921,9.41602173 9.62557974,9.59931639 8.98522436,9.50532554 L8.98522436,9.50532554 Z" id="路径" fill="#008EFF" fill-rule="nonzero"></path>
                                        <path d="M7.50363057,13.8933186 C6.94472946,13.8084725 6.44333936,13.498013 6.11334773,13.0324589 L1.46532587,6.75535714 C1.00600783,6.17834039 0.717917671,5.48063337 0.634690781,4.74369548 C0.549728391,4.10100964 0.705275263,3.449352 1.07062692,2.91735777 C1.16829471,2.76858419 1.28189858,2.63124498 1.40936109,2.50785161 L0.796694077,3.10567083 C0.669231563,3.22906419 0.555627697,3.3664034 0.457959911,3.51517699 C0.0940555944,4.04557369 -0.0614235096,4.69481526 0.0220237669,5.3355365 C0.105250657,6.07247439 0.393340818,6.77018141 0.852658853,7.34719817 L5.50068072,13.6242999 C5.82973494,14.0908789 6.33159308,14.4016283 6.89096356,14.4851596 C7.34404105,14.5492824 7.80152246,14.4033125 8.13691618,14.0876098 L8.7495832,13.4897906 C8.41457722,13.8065239 7.95750664,13.9545558 7.50363057,13.8933186 L7.50363057,13.8933186 Z" id="路径" fill="#008EFF" fill-rule="nonzero"></path>
                                    </g>
                                </g>
                                <path d="M21.6944247,17.6166855 C22.2052563,18.2838033 22.5041854,19.092742 22.5515694,19.9362241 C22.6054238,20.6799716 22.3172597,21.4071787 21.7710081,21.9060384 C21.2654867,22.3209347 20.6108814,22.5000327 19.9683532,22.3992392 C19.8473343,22.3835562 19.7273392,22.3605995 19.6090004,22.33049 C18.6856706,22.0794323 17.8761476,21.5124068 17.3173901,20.7253454 C16.4013351,19.4938378 16.469082,18.9498224 16.5986846,17.9544534 L16.6369763,17.6256528 L18.5162145,18.1098864 C18.4985415,18.2324393 18.4720318,18.5582508 18.4690863,18.6150436 C18.3762652,18.9970284 18.4657136,19.4010742 18.7106185,19.7060637 C18.9412558,20.0236824 19.2666141,20.2574234 19.6384556,20.3726321 C19.7034054,20.3896158 19.7693092,20.4025923 19.835805,20.4114903 C20.1171626,20.4615539 20.4054964,20.3764423 20.6164946,20.181043 C20.8274929,19.9856437 20.9373207,19.7020296 20.9138633,19.4131323 C20.9047702,19.0443944 20.7775916,18.6886916 20.5515651,18.3998287 C20.3519325,18.1094757 20.038318,17.9209207 19.6914748,17.8827151 C19.5559812,17.8408677 19.3969234,17.8049986 19.3763048,17.7960313 L15.2820396,16.6870766 C15.1978005,16.6591198 15.1109358,16.6400874 15.0228344,16.6302838 C14.8499644,16.6133561 14.6755109,16.6326875 14.5103148,16.6870766 C14.2795066,16.7572751 14.0810203,16.9088724 13.9506671,17.1145174 C13.8176651,17.3376698 13.764606,17.6005562 13.8004458,17.8588023 C13.8489306,18.1488146 13.9695796,18.4214621 14.1509621,18.6509128 L19.8564236,26.2701187 L19.732712,26.3896825 C19.3966747,26.704259 18.9397296,26.8500578 18.4867594,26.7872323 C17.9278583,26.7023862 17.4264682,26.3919267 17.0964766,25.9263726 L12.4484547,19.6492708 C11.9891367,19.0722541 11.7010465,18.3745471 11.6178196,17.6376092 C11.5328572,16.9949233 11.6884041,16.3432657 12.0537558,15.8112715 C12.3897195,15.311348 12.8932125,14.9523073 13.4705482,14.800957 C13.8628966,14.6931795 14.2726249,14.6667478 14.6752636,14.7232405 C14.8976943,14.7513795 15.1174121,14.7983729 15.3321134,14.863728 L19.3026669,16.1191484 C19.4764523,16.1639848 19.5294715,16.1849085 19.5824908,16.2028431 C20.430799,16.418058 20.9138633,16.5645237 21.6944247,17.6166855 Z M25.3880998,18.7943894 L21.9035562,14.0626503 C21.560721,13.5900816 21.1292951,13.1908727 20.6340395,12.8879355 C20.2154746,12.6325137 19.7489641,12.4686008 19.2643752,12.406691 L19.1023719,12.406691 C18.6234193,12.3720334 18.1469808,12.5026488 17.7503808,12.777339 C17.3696912,13.0753294 17.1250669,13.5178509 17.0729124,14.0028683 L17.0228387,14.4542219 L16.9757105,14.893619 L18.7930929,15.4167108 L18.7930929,15.1626376 L18.8313846,14.7172623 C18.8361583,14.5198884 18.920224,14.3330712 19.0640802,14.2001487 C19.2181519,14.0753288 19.4121652,14.0125388 19.6090004,14.023792 L19.726821,14.023792 C19.9135958,14.0527892 20.093989,14.1144842 20.2599591,14.2061269 C20.4757821,14.32985 20.6603136,14.5027858 20.7989883,14.7112841 L25.417555,20.9883859 L25.5059204,20.9046912 C25.9801483,20.4593159 25.9182925,19.529707 25.3880998,18.7943894 L25.3880998,18.7943894 Z" id="形状" fill="url(#linearGradient-19)" fill-rule="nonzero"></path>
                            </g>
                        </g>
                    </g>
                    <g id="币" transform="translate(24.000000, 0.000000)">
                        <mask id="mask-21" fill="white">
                            <use xlink:href="#path-20"></use>
                        </mask>
                        <g id="蒙版"></g>
                        <g id="编组-15" mask="url(#mask-21)">
                            <g transform="translate(-4.000000, -5.000000)">
                                <path d="M31.8299317,11.2423792 L31.8299317,11.2423792 L31.8808373,11.2932847 C33.1229324,12.6914901 33.5403578,14.6394753 33.2383182,16.8148386 C33.2399303,16.8396996 33.2399303,16.864639 33.2383182,16.8895 C32.9408137,18.6736659 32.3172866,20.3877902 31.3989315,21.9461166 L31.3989315,21.9461166 C30.5948825,23.3484348 29.6364182,24.6563629 28.5414341,25.8454807 L28.5414341,25.8454807 C27.9643598,26.4772944 27.3549391,27.078786 26.7156222,27.6475366 C26.1658424,28.1362298 25.6058815,28.5887234 25.0357395,29.0050176 L25.0357395,29.0050176 C23.7469569,29.970701 22.3563001,30.7923494 20.8886352,31.4552707 C20.8886352,31.4552707 20.8886352,31.4552707 20.8886352,31.4552707 C19.2827255,32.2013559 17.5610654,32.6673519 15.7980816,32.8331139 L15.7980816,32.8331139 C13.3512221,33.0163739 11.2437329,32.3885389 9.89303937,30.8681602 L9.84552754,30.813861 L9.84552754,30.813861 L6.11245489,26.6260322 L8.73239315,24.2945587 C9.12585778,22.7304231 9.75403396,21.234929 10.5955358,19.8589896 C10.5955358,19.8589896 10.5955358,19.8589896 10.5955358,19.8589896 C11.4250229,18.4797568 12.4037755,17.1959975 13.5141198,16.0308933 L13.5141198,16.0308933 C14.0005505,15.5150505 14.5186558,15.0127826 15.0684355,14.5240894 C15.69233,13.9561511 16.3447673,13.4203822 17.0232081,12.9188682 L17.0232081,12.9188682 C18.3323665,11.9735124 19.7426408,11.1767473 21.2280054,10.5432765 L21.2280054,10.5432765 C22.5787163,9.95664213 24.0058646,9.56471911 25.4667397,9.37923658 L28.086678,7.05115673 L31.8299317,11.2423792 Z" id="路径" fill="#FFCF00" fill-rule="nonzero"></path>
                                <ellipse id="椭圆形" fill="url(#linearGradient-22)" fill-rule="nonzero" transform="translate(17.124517, 16.903385) rotate(-41.630000) translate(-17.124517, -16.903385) " cx="17.1245174" cy="16.9033855" rx="14.7524244" ry="8.77611443"></ellipse>
                                <path d="M28.154552,7.10884967 C28.7025334,7.68020582 29.1184313,8.36487349 29.3728912,9.1145278 C29.6273843,9.87162191 29.7602563,10.6642719 29.7665607,11.4629699 C29.7410776,13.0597945 29.4020729,14.6360508 28.7688122,16.1021611 C27.5038188,19.0252909 25.6010122,21.6284601 23.1997465,23.721023 C20.8408668,25.8658709 18.0326297,27.4566642 14.9801993,28.3771827 C13.4483195,28.8315413 11.8422714,28.9814237 10.2527718,28.818364 C9.45990343,28.7164189 8.68867436,28.4872275 7.96881011,28.1396235 C7.25342573,27.7981135 6.62109084,27.3047533 6.11584859,26.6939063 C6.66580675,27.2449294 7.31991876,27.6810041 8.04007786,27.9767258 C8.75686201,28.2601913 9.51395209,28.4285608 10.2833152,28.4756 C11.8233473,28.549939 13.3638736,28.3393966 14.8274827,27.8545525 C16.2972762,27.383988 17.7063675,26.7415244 19.0254926,25.9405043 C20.3542537,25.148604 21.6042938,24.2315291 22.7585652,23.2017865 C23.9171259,22.1734543 24.9750843,21.0370866 25.9181021,19.8080841 C26.8612084,18.5908438 27.6585036,17.2673337 28.2936938,15.8646019 C28.9495082,14.4692282 29.3396513,12.9638974 29.4441589,11.4256391 C29.4896899,10.6557598 29.4117818,9.88355334 29.2133872,9.13828371 C28.9984288,8.39831779 28.6385078,7.70846913 28.154552,7.10884967 Z" id="路径" fill="#FEFF5A" fill-rule="nonzero"></path>
                                <path d="M21.916927,22.2990617 C19.1782092,24.73574 16.0560029,26.3715045 13.1306315,26.9111032 C9.63172429,27.5559067 7.98577862,26.3850794 7.31382554,25.6282837 C6.64187247,24.8714881 5.67127358,23.0999754 6.72332132,19.706273 C7.58871544,16.8589567 9.59439356,13.9369789 12.3398988,11.5172691 C15.0854041,9.09755928 18.2008229,7.44482621 21.129588,6.90183383 C24.6251015,6.26042407 26.2744409,7.4312514 26.9430003,8.18465334 C27.6115596,8.93805527 28.5855522,10.7163553 27.5368982,14.1134514 C26.6545356,16.9539804 24.6590386,19.8623833 21.916927,22.2990617 Z" id="路径" fill="url(#linearGradient-23)" fill-rule="nonzero"></path>
                                <path d="M13.1306315,26.9111032 C12.2072075,27.1421807 11.2538127,27.2303097 10.3036774,27.1724183 C9.32662773,27.1181356 8.38509862,26.7874235 7.58871544,26.2187879 C6.79370118,25.5901885 6.24671686,24.7005876 6.04458084,23.7074482 C5.85289445,22.7383182 5.85289445,21.7410255 6.04458084,20.7718956 C6.42704136,18.8737153 7.17635514,17.0684455 8.25048741,15.4573576 C10.3770486,12.2444626 13.3080464,9.64459153 16.7517119,7.91655085 C18.4778669,7.03746502 20.3594267,6.50481756 22.2902343,6.34866033 C23.2747737,6.27187154 24.2648536,6.38713113 25.2054246,6.68803057 C26.1683228,7.0079073 26.9877748,7.65674027 27.5199297,8.52062987 C27.9919373,9.38098049 28.20857,10.3581823 28.1443709,11.3374029 C28.0862653,12.2834825 27.8836911,13.2150946 27.5436856,14.0998766 C27.7740397,13.1976382 27.8813477,12.2683966 27.8626936,11.3374029 C27.8494594,10.4319239 27.5838415,9.54809786 27.0957169,8.78533866 C26.5905969,8.06608714 25.8478987,7.54812124 24.9984088,7.32265292 C24.1359433,7.09298761 23.238012,7.02736956 22.3513209,7.12921189 C20.5430096,7.34929181 18.7914496,7.90399082 17.1861058,8.76497645 C13.927406,10.4820061 11.1346216,12.9649988 9.04800747,16.00035 C8.00375541,17.4935011 7.24651068,19.1679556 6.81495129,20.938187 C6.60980474,21.8064578 6.56951349,22.7055282 6.69617171,23.5886686 C6.82031858,24.45982 7.24821129,25.259114 7.90432976,25.8454807 C8.60443058,26.4195003 9.45049824,26.7873047 10.3477955,26.9077095 C11.2708798,27.0362067 12.2072365,27.0373486 13.1306315,26.9111032 Z" id="路径" fill="#E2A106" fill-rule="nonzero"></path>
                                <g id="编组" stroke-width="1" fill="none" fill-rule="evenodd" transform="translate(10.643048, 10.203906)">
                                    <g filter="url(#filter-24)" id="编组-21">
                                        <g transform="translate(0.312221, 0.953630)">
                                            <path d="M5.0701914,1.48304795 L5.10752212,1.45250463 C5.13353731,1.42916724 5.16198089,1.40868787 5.19236468,1.39141799 L5.22290801,1.36766207 C5.25005763,1.34729986 5.28060095,1.33372505 5.30775057,1.31675653 L5.34847499,1.29300062 C5.39010257,1.2698845 5.43317905,1.24947985 5.47743569,1.23191397 C5.58527545,1.18769043 5.70028652,1.1635381 5.81680593,1.16064622 C5.89584893,1.15390704 5.97532209,1.15390704 6.0543651,1.16064622 C6.22386034,1.18600254 6.37955938,1.2686428 6.49554641,1.39481169 C6.49652104,1.40156411 6.49652104,1.40842149 6.49554641,1.4151739 L6.09508952,0.862000412 L6.09508952,0.8450319 C5.98090039,0.716555468 5.82430705,0.633440542 5.65390821,0.610866433 C5.57486313,0.604176145 5.49539412,0.604176145 5.41634904,0.610866433 C5.30003872,0.615497492 5.18532674,0.639587008 5.0769788,0.682134184 C5.03272216,0.699700062 4.98964569,0.720104708 4.94801811,0.743220827 L4.90729368,0.766976744 L4.83602593,0.807701173 L4.83602593,0.807701173 L4.80548261,0.83145709 C4.77585113,0.849874621 4.74750502,0.87028382 4.72064005,0.892543733 L4.68330932,0.923087055 L4.6561597,0.946842972 L4.58149825,1.01811072 L1.47478928e-14,5.65051451 L0.400456884,6.203688 L4.96838033,1.57807162 L5.0701914,1.48304795 Z" id="路径" fill="#1294FF" fill-rule="nonzero"></path>
                                            <path d="M4.38805721,5.58603416 C4.38642677,5.55890902 4.38642677,5.53171045 4.38805721,5.50458531 L4.38805721,5.45367977 C4.38651401,5.43561292 4.38651401,5.41744738 4.38805721,5.39938053 C4.38805721,5.39938053 4.38805721,5.36544351 4.38805721,5.34847499 C4.38805721,5.33150648 4.38805721,5.32132538 4.38805721,5.30775057 C4.40604266,5.25653369 4.42758869,5.20663761 4.45253756,5.15842766 L4.45253756,5.15842766 C4.47629348,5.11430953 4.5034431,5.0701914 4.53059271,5.02607327 L4.55095493,4.99552994 L4.6493723,4.86317555 L4.73082116,4.77493929 C4.7596482,4.74591821 4.79025047,4.71871619 4.82245112,4.69349043 L4.84620704,4.67312822 L4.9344433,4.60525417 L4.9344433,4.60525417 L5.01589216,4.56113604 L5.04304178,4.56113604 L5.11091583,4.53738012 L5.13467174,4.53738012 L5.22630171,4.5136242 L5.22630171,4.5136242 L5.32132538,4.5136242 L5.3518687,4.5136242 L5.43331756,4.5136242 L5.46386088,4.5136242 L5.57585306,4.5136242 L5.9152233,4.48986829 L6.01703437,4.48986829 L6.0577588,3.01700144 L5.65730191,2.46382795 L5.61657749,3.93669479 L5.51476641,3.93669479 L5.17539617,3.96045071 L5.06340399,3.96045071 L5.11770323,3.96045071 L5.03625437,3.96045071 L5.00571105,3.96045071 L4.91068738,3.96045071 L4.91068738,3.96045071 C4.87980564,3.96561384 4.84921938,3.97241079 4.81905742,3.98081292 L4.7919078,3.98081292 L4.72742745,4.00456884 L4.70027783,4.00456884 C4.67170762,4.01783465 4.64443948,4.03374107 4.61882898,4.05208068 L4.61882898,4.05208068 L4.53059271,4.11656102 L4.5068368,4.13692324 L4.47968718,4.16067915 C4.456531,4.17921123 4.43496263,4.19964443 4.41520683,4.2217658 C4.38745241,4.24839887 4.36138357,4.27673456 4.33715168,4.30660836 L4.33715168,4.30660836 C4.30321465,4.34733278 4.26927763,4.39145092 4.23873431,4.43556905 L4.23873431,4.43556905 L4.23873431,4.45593126 C4.20999461,4.4983869 4.18392581,4.54259053 4.16067915,4.58828566 L4.16067915,4.58828566 C4.13573029,4.63649561 4.11418425,4.68639168 4.09619881,4.73760856 C4.09801176,4.74311946 4.09801176,4.74906618 4.09619881,4.75457707 C4.09663218,4.76248978 4.09663218,4.77042028 4.09619881,4.77833299 C4.09619881,4.77833299 4.09619881,4.81227001 4.09619881,4.82923853 C4.0946556,4.84730538 4.0946556,4.86547091 4.09619881,4.88353776 L4.09619881,4.9344433 C4.09460935,4.94456237 4.09460935,4.95486755 4.09619881,4.96498662 C4.09454209,4.9819147 4.09454209,4.99896409 4.09619881,5.01589216 C4.09117797,5.07574245 4.09117797,5.13590809 4.09619881,5.19575839 C4.09433692,5.2149443 4.09433692,5.23426541 4.09619881,5.25345133 C4.09619881,5.29417576 4.09619881,5.33150648 4.09619881,5.36883721 L4.11656102,5.43331756 C4.12582334,5.4667948 4.13715753,5.49966396 4.15049804,5.53173492 C4.15861617,5.55414631 4.16884314,5.57573657 4.18104137,5.59621527 C4.18104137,5.61657749 4.18104137,5.6369397 4.20819099,5.65390821 L4.24891541,5.71160115 L4.6493723,6.26477464 C4.62352669,6.22830042 4.60082066,6.18970016 4.58149825,6.14938876 C4.56930002,6.12891006 4.55907305,6.1073198 4.55095493,6.08490842 C4.53761442,6.05283745 4.52628022,6.01996829 4.5170179,5.98649105 L4.49665569,5.9220107 C4.49665569,5.88467998 4.49665569,5.84734925 4.49665569,5.80662482 C4.49501809,5.7874287 4.49501809,5.768128 4.49665569,5.74893188 C4.45558038,5.69804621 4.41923041,5.64352125 4.38805721,5.58603416 L4.38805721,5.58603416 Z" id="路径" fill="#1294FF" fill-rule="nonzero"></path>
                                            <path d="M9.02724841,4.2319469 L9.52951636,4.19800988 L9.5872093,4.19800988 C9.80802531,4.18752965 10.0278024,4.23429074 10.2252254,4.33375797 C10.3611078,4.41147429 10.4772397,4.51947696 10.5645956,4.6493723 L10.1641387,4.09619881 C10.076384,3.96753876 9.96028277,3.8607256 9.82476847,3.78397818 C9.62850587,3.68125199 9.40783533,3.63430081 9.18675242,3.64823009 L9.12905948,3.64823009 L8.62679152,3.68556081 L8.35868903,3.72289154 L8.75914591,4.27606503 L9.02724841,4.2319469 Z" id="路径" fill="#1294FF" fill-rule="nonzero"></path>
                                            <path d="M5.48082939,8.3145709 L5.54870344,8.3145709 C5.6183661,8.30458261 5.68746412,8.29098956 5.75571928,8.27384647 L5.80323112,8.27384647 L6.04757769,8.19918502 L6.10866433,8.1754291 C6.17427591,8.15054195 6.23875626,8.12339233 6.30210537,8.09398024 L6.36319201,8.06683062 C6.44464087,8.0294999 6.52269603,7.98877547 6.60075118,7.94465734 L6.64147561,7.92090142 L6.7704363,7.84284626 L6.82473554,7.80551554 L6.92315291,7.73424779 L7.06568841,7.62564931 L7.15392468,7.53062564 L7.20483021,7.48650751 C7.25234205,7.44238938 7.30324758,7.39827125 7.35075942,7.34736571 C7.39827125,7.29646018 7.45257049,7.24216094 7.50008232,7.1912554 L7.54420045,7.14374357 L7.61886191,7.05890101 L7.61886191,7.05890101 L7.70370447,6.95030253 C7.71829917,6.93417569 7.73189911,6.91717577 7.74442889,6.899397 C7.78397064,6.85095276 7.82025003,6.79993486 7.85302737,6.74668039 L7.85302737,6.74668039 C7.88261559,6.7041102 7.90980741,6.6599235 7.93447623,6.61432599 C7.94363777,6.60151539 7.95159052,6.58788211 7.95823215,6.57360156 C7.97199525,6.55056053 7.98445831,6.52676742 7.99556287,6.50233381 C7.99556287,6.50233381 7.99556287,6.50233381 7.99556287,6.4853653 C8.00548899,6.47061391 8.01347335,6.4546452 8.01931879,6.43785347 C8.01931879,6.41409755 8.04307471,6.38694793 8.05325581,6.35979831 C8.06042802,6.34337334 8.06610711,6.32633608 8.07022433,6.30889278 C8.07731497,6.29596115 8.08300344,6.28230883 8.08719284,6.26816835 C8.08719284,6.26816835 8.08719284,6.26816835 8.08719284,6.24101873 C8.08719284,6.21386911 8.10416135,6.18332579 8.11434246,6.15617617 C8.11279925,6.13810932 8.11279925,6.11994378 8.11434246,6.10187693 C8.12192845,6.07057748 8.12759518,6.03884382 8.13131097,6.00685326 C8.13288978,5.99559601 8.13288978,5.98417349 8.13131097,5.97291624 L8.13131097,5.97291624 C8.13131097,5.9152233 8.13131097,5.85753036 8.13131097,5.79644371 C8.13312137,5.78179339 8.13312137,5.76697591 8.13131097,5.75232558 C8.13131097,5.69802634 8.13131097,5.6403334 8.13131097,5.58264046 L8.13131097,5.58264046 C8.13131097,5.51816012 8.13131097,5.45028607 8.13131097,5.38580572 C8.13298959,5.36887872 8.13298959,5.35182718 8.13131097,5.33490019 C8.13131097,5.27041984 8.13131097,5.20254579 8.13131097,5.13467174 C8.13699197,5.04539453 8.13699197,4.95584647 8.13131097,4.86656925 L8.13131097,1.58146532 C8.13085309,1.5053741 8.12518365,1.42940361 8.11434246,1.35408726 C8.11598941,1.34397276 8.11598941,1.33365844 8.11434246,1.32354394 C8.10436797,1.25611914 8.09077351,1.18927975 8.07361803,1.1233155 L8.07361803,1.08598477 C8.05722501,1.0221203 8.03566035,0.959696273 8.00913768,0.899331138 C8.01041533,0.889190115 8.01041533,0.87892884 8.00913768,0.868787816 C7.981988,0.80826279 7.95139459,0.749342163 7.91750772,0.692315291 L7.91750772,0.692315291 C7.8971455,0.66177197 7.87678329,0.627834945 7.85302737,0.597291624 L7.49329492,-1.75570153e-14 L7.55777526,0.0984173698 C7.5916741,0.156603374 7.62226595,0.216654045 7.64940523,0.278283597 C7.65061729,0.287292887 7.65061729,0.296423927 7.64940523,0.305433217 C7.67594836,0.366955285 7.69751103,0.430508425 7.71388557,0.495480552 L7.71388557,0.529417576 C7.73136298,0.596452424 7.74496036,0.664439318 7.75461,0.73303972 C7.75461,0.73303972 7.75461,0.753401935 7.75461,0.763583042 C7.75991525,0.838150251 7.75991525,0.913000192 7.75461,0.987567401 L7.75461,4.27267133 C7.76136921,4.36191102 7.76136921,4.45153413 7.75461,4.54077382 C7.75461,4.60864787 7.75461,4.67652192 7.75461,4.74100226 C7.75628862,4.75792926 7.75628862,4.7749808 7.75461,4.7919078 C7.75461,4.85978185 7.75461,4.92426219 7.75461,4.98874254 L7.75461,4.98874254 C7.75461,5.04643548 7.75461,5.10412842 7.75461,5.16182136 C7.7562785,5.1753449 7.7562785,5.18902225 7.75461,5.20254579 C7.75461,5.26363243 7.75461,5.32132538 7.75461,5.38241202 L7.75461,5.42313645 C7.75089421,5.455127 7.74522749,5.48686067 7.73764149,5.51816012 C7.73647255,5.53624099 7.73647255,5.55437848 7.73764149,5.57245935 L7.71049187,5.66069562 C7.71049187,5.68105783 7.71049187,5.70481375 7.68673595,5.72856966 C7.68818477,5.74550725 7.68818477,5.76253761 7.68673595,5.7794752 L7.65279893,5.85413665 C7.64630071,5.87173252 7.63835485,5.88875935 7.62904301,5.90504219 C7.62904301,5.93219181 7.60189339,5.96273513 7.58492488,5.98988475 L7.56116896,6.03400288 C7.53741305,6.07472731 7.51026343,6.11884544 7.47972011,6.16296357 C7.44694277,6.21621805 7.41066337,6.26723594 7.37112163,6.31568018 C7.35859184,6.33345895 7.3449919,6.35045888 7.3303972,6.36658572 L7.24555464,6.47518419 L7.15731838,6.57360156 L7.11320025,6.6211134 C7.06568841,6.67201893 7.01817658,6.72631817 6.96387734,6.78061741 C6.9095781,6.83491665 6.83491665,6.9027907 6.7670426,6.96048364 L6.67201893,7.03853879 L6.52948343,7.14713727 L6.43106606,7.21840502 C6.36997942,7.25912945 6.30889278,7.29985388 6.24780613,7.3337909 L6.2070817,7.35754682 C6.13043985,7.40404889 6.05111499,7.44597775 5.96952254,7.48311381 L5.90843589,7.51026343 L5.71499485,7.58831858 L5.65390821,7.6120745 C5.57245935,7.63922412 5.4910105,7.66637374 5.40956164,7.68673595 L5.3620498,7.68673595 C5.29379464,7.70387904 5.22469663,7.71747209 5.15503396,7.72746038 L5.08715991,7.72746038 C5.00571105,7.72746038 4.92426219,7.7478226 4.84281334,7.7512163 C4.14015959,7.808427 3.45257833,7.5258248 2.99324552,6.99102696 L2.90500926,6.87903478 L3.30546615,7.43220827 L3.39370241,7.54420045 C3.8540286,8.07762137 4.54087849,8.35992297 5.24327022,8.30438979 C5.32218326,8.31251052 5.40151092,8.31591028 5.48082939,8.3145709 Z" id="路径" fill="#1294FF" fill-rule="nonzero"></path>
                                            <path d="M12.8485573,5.54191603 C12.8485573,5.5011916 12.8485573,5.46386088 12.8485573,5.42313645 L12.8485573,5.32471908 C12.8485573,5.28738835 12.8485573,5.24666392 12.8485573,5.20593949 C12.8502382,5.17428724 12.8502382,5.14256808 12.8485573,5.11091583 C12.8485573,5.0701914 12.8485573,5.02946697 12.8485573,4.98874254 C12.8502013,4.95822134 12.8502013,4.92763378 12.8485573,4.89711257 C12.8485573,4.85638815 12.8315888,4.81566372 12.8248014,4.77493929 L12.8044392,4.68330932 C12.8044392,4.64258489 12.7806833,4.59846676 12.7671085,4.55774233 C12.7607616,4.53015875 12.7528298,4.50296401 12.7433525,4.47629348 L12.692447,4.33715168 L12.6652974,4.26927763 C12.6382247,4.20100049 12.6076406,4.1341685 12.5736674,4.06904919 L12.1732105,3.51587569 C12.2071837,3.58099501 12.2377678,3.647827 12.2648405,3.71610414 C12.2648405,3.73986005 12.281809,3.76361597 12.2919901,3.78397818 L12.3428957,3.92311998 C12.3523729,3.94979052 12.3603047,3.97698526 12.3666516,4.00456884 C12.3666516,4.04868697 12.3938012,4.0894114 12.4039823,4.13013583 L12.4243445,4.2217658 C12.4243445,4.26249022 12.441313,4.30321465 12.4481004,4.34393908 C12.4499811,4.37558572 12.4499811,4.40731611 12.4481004,4.43896275 C12.4481004,4.47629348 12.4481004,4.5170179 12.4481004,4.55774233 C12.4499036,4.59052335 12.4499036,4.62337869 12.4481004,4.6561597 C12.4481004,4.69349043 12.4481004,4.73421486 12.4481004,4.77154559 L12.4481004,4.86996296 C12.4481004,4.91068738 12.4481004,4.94801811 12.4481004,4.98874254 C12.4499747,5.02152156 12.4499747,5.05438089 12.4481004,5.08715991 C12.4448798,5.13735582 12.4380751,5.1872573 12.4277382,5.23648282 C12.4277382,5.30775057 12.4005886,5.37562461 12.3836201,5.44689236 L12.3632579,5.51476641 L12.3225334,5.65390821 C12.3225334,5.67427043 12.3055649,5.69802634 12.2953838,5.72178226 C12.2852027,5.74553818 12.2614468,5.81001852 12.2410846,5.85413665 L12.2071476,5.92879811 C12.2071476,5.96952254 12.1664231,6.01024696 12.1460609,6.0543651 C12.1322978,6.07740613 12.1198348,6.10119924 12.1087302,6.12563285 L12.0272813,6.25798724 C12.0168218,6.27843175 12.0043141,6.2977618 11.9899506,6.31568018 C11.9560136,6.37337312 11.9152892,6.42767236 11.8745647,6.4853653 L11.8575962,6.50572752 C11.8134781,6.56681416 11.7625725,6.6279008 11.711667,6.68898745 C11.6607615,6.75007409 11.5928874,6.82134184 11.5284071,6.88582219 L6.78401111,11.5725252 L6.69577485,11.6505804 L6.64486931,11.6913048 L6.57020786,11.745604 L6.52269603,11.7795411 L6.4853653,11.803297 L6.3428298,11.8847458 L6.29531797,11.9085017 C6.23796153,11.9357417 6.17903292,11.9595398 6.11884544,11.9797695 L6.09508952,11.9797695 C6.04290048,11.9969249 5.98961086,12.0105308 5.93558551,12.0204939 L5.88807368,12.0204939 L5.70481375,12.0408561 C5.18704997,12.0675686 4.69069728,11.831514 4.38466351,11.4130212 L4.77833299,11.9831632 C5.08547621,12.4051281 5.58389311,12.6447761 6.10527063,12.6211793 C6.16674343,12.6165952 6.22792077,12.6086648 6.28853056,12.5974233 L6.3360424,12.5974233 L6.49554641,12.5533052 L6.51930233,12.5533052 C6.58002577,12.5345536 6.63905924,12.5107132 6.69577485,12.4820375 L6.74328668,12.4616752 C6.79222756,12.4371066 6.83980843,12.4099175 6.88582219,12.3802264 L6.9095781,12.3802264 L6.9095781,12.3802264 L6.95708994,12.3462894 L7.03175139,12.2919901 L7.08265693,12.2512657 L7.12677506,12.213935 C7.14231971,12.2000922 7.15705038,12.1853615 7.17089319,12.1698168 L11.905108,7.43899568 C11.9695884,7.37451533 12.030675,7.30664128 12.088368,7.23876724 L12.088368,7.23876724 L12.2241161,7.06568841 L12.2410846,7.0419325 C12.2791877,6.99436715 12.3143226,6.94449828 12.3462894,6.89260959 L12.3462894,6.87564108 L12.3802264,6.81794814 L12.4616752,6.68559374 L12.499006,6.61432599 L12.532943,6.54645194 C12.5433959,6.52674272 12.5524676,6.50633141 12.5600926,6.4853653 C12.5734349,6.46145175 12.5847856,6.43648024 12.5940296,6.41070385 C12.6143919,6.36658572 12.6313604,6.32246759 12.6483289,6.27834945 C12.6652974,6.23423132 12.6652974,6.23423132 12.6754785,6.21386911 C12.6734669,6.20607822 12.6734669,6.19790408 12.6754785,6.19011319 C12.6754785,6.14938876 12.6992344,6.11205804 12.7094155,6.07133361 C12.7182123,6.04936102 12.7250268,6.0266459 12.7297777,6.00345956 C12.7480628,5.9352658 12.7627887,5.86616719 12.7738959,5.79644371 C12.7754911,5.77384715 12.7754911,5.75116623 12.7738959,5.72856966 L12.7738959,5.64712081 L12.8485573,5.54191603 Z" id="路径" fill="#1294FF" fill-rule="nonzero"></path>
                                        </g>
                                    </g>
                                    <polyline id="路径" fill="#857573" fill-rule="nonzero" points="0.247740276 6.51930233 0.651590862 7.07247582 0.651590862 7.07247582 0.251133978 6.51930233 0.251133978 6.51930233"></polyline>
                                    <polygon id="路径" fill="#80716F" fill-rule="nonzero" points="0.312220622 6.60414489 0.712677506 7.15731838 0.64819716 7.07247582 0.251133978 6.51930233"></polygon>
                                    <g transform="translate(12.217329, 4.072443)" fill-rule="nonzero" id="路径">
                                        <path d="M0.0879310345,0.121149425 L0.779655172,0.75816092 C0.861724138,0.832413793 0.937931034,0.906666667 1.00827586,0.984827586 L0.316551724,0.347816092 C0.246206897,0.269655172 0.17,0.195402299 0.0879310345,0.121149425" fill="#A3908E"></path>
                                        <path d="M0.316551724,0.347816092 L1.00827586,0.984827586 C1.04298546,1.01994137 1.07431295,1.05649011 1.10206897,1.09425287 L0.410344828,0.457241379 C0.410344828,0.422068966 0.351724138,0.382988506 0.316551724,0.347816092" fill="#A89592"></path>
                                    </g>
                                    <polygon id="路径" fill="#80716F" fill-rule="nonzero" points="4.69688413 12.3836201 5.09734102 12.9367936 4.99552994 12.8010455 4.59507306 12.247872"></polygon>
                                    <path d="M5.14824655,8.7421774 C4.4455928,8.7993881 3.75801155,8.5167859 3.29867874,7.98198806 C2.88349328,7.46152469 2.70948359,6.78893403 2.8201667,6.13242025 C2.93296452,5.42665755 3.26966883,4.77585453 3.78058448,4.27606503 C4.56452974,3.48872608 4.97516773,3.44800165 5.76929409,3.3767339 L6.04418399,3.34619057 L6.00345956,4.81905742 L5.90164849,4.81905742 L5.56227825,4.84281334 C5.24022872,4.81867577 4.92493644,4.94379176 4.70706524,5.18218358 C4.48336923,5.39999937 4.33985598,5.68702587 4.29982095,5.99667215 C4.25815164,6.27871552 4.34394505,6.56469355 4.53398642,6.77722371 C4.72627201,6.9788451 4.99959015,7.08243143 5.27720724,7.05890101 L5.30775057,7.05890101 C5.63815725,7.02889336 5.94664225,6.88067595 6.17653838,6.64147561 C6.40925277,6.42635553 6.51989767,6.10968217 6.47179049,5.79644371 C6.47179049,5.67087672 6.47179049,5.53173492 6.47179049,5.50797901 L6.52948343,2.29074913 C6.54457562,2.12050653 6.49488663,1.95083678 6.39034163,1.81563079 C6.27615249,1.68715436 6.11955916,1.60403943 5.94916032,1.58146532 C5.87011524,1.57477503 5.79064623,1.57477503 5.71160115,1.58146532 C5.59529083,1.58609638 5.48057885,1.6101859 5.37223091,1.65273307 C5.18139136,1.73036109 5.00823201,1.84580066 4.86317555,1.99210331 L0.312220622,6.60414489 L0.247740276,6.51930233 C-0.091629965,6.0611525 0.0509055361,5.27041984 0.587110517,4.73760856 L4.03850587,1.265851 C4.37442837,0.916029482 4.78190121,0.642837466 5.23308911,0.46493723 C5.52033283,0.345491587 5.82536024,0.274394972 6.13581395,0.254527681 C6.28318765,0.247756346 6.43087181,0.254572538 6.57699527,0.274889895 C6.99275651,0.314792115 7.38159467,0.498410136 7.67655485,0.794126363 C7.96466342,1.10589675 8.12146807,1.51674925 8.11434246,1.94119778 L8.11434246,5.22630171 C8.12110166,5.3155414 8.12110166,5.40516451 8.11434246,5.4944042 C8.16524799,6.33264869 8.1720354,6.85188516 7.27609796,7.7478226 C6.71339656,8.32990305 5.9557493,8.68395512 5.14824655,8.7421774 Z M12.4548878,4.46950607 C12.1764311,3.96507313 11.7516534,3.55686059 11.2365487,3.29867874 C10.7525932,3.06348225 10.2157786,2.95822449 9.67883927,2.99324552 L9.55666598,2.99324552 L9.06797283,3.04075736 L8.58946079,3.09166289 L8.67090965,4.66294711 L8.93901214,4.62561638 L9.4412801,4.58828566 L9.50236674,4.58828566 C9.72344965,4.57435638 9.9441202,4.62130756 10.1403828,4.72403375 C10.3441567,4.83811003 10.5077219,5.01234244 10.6087137,5.22290801 C10.8189169,5.68291155 10.6999713,6.22646525 10.3168553,6.55663305 L4.59507306,12.247872 L4.69688413,12.3836201 C5.00291791,12.8021129 5.49927059,13.0381675 6.01703437,13.011455 C6.42334434,12.9844211 6.80638335,12.812174 7.09623173,12.5261556 L11.8270529,7.83945256 C12.2902886,7.39598741 12.6045123,6.81971306 12.726384,6.19011319 C12.8288715,5.60233689 12.7333812,4.99716706 12.4548878,4.46950607 Z" id="形状" fill="url(#linearGradient-25)" fill-rule="nonzero"></path>
                                </g>
                            </g>
                        </g>
                    </g>
                </g>
            </g>
        </g>
    </g>
</svg>