<?xml version="1.0" encoding="UTF-8"?>
<svg width="343px" height="90px" viewBox="0 0 343 90" version="1.1" xmlns="http://www.w3.org/2000/svg" xmlns:xlink="http://www.w3.org/1999/xlink">
    <title>BG</title>
    <defs>
        <radialGradient cx="105.42877%" cy="73.7990767%" fx="105.42877%" fy="73.7990767%" r="402.885529%" gradientTransform="translate(1.054288,0.737991),scale(0.233236,1.000000),rotate(30.811331),translate(-1.054288,-0.737991)" id="radialGradient-1">
            <stop stop-color="#FFEC00" offset="0%"></stop>
            <stop stop-color="#FFBF3D" offset="33.9459613%"></stop>
            <stop stop-color="#D8980E" offset="73.6451049%"></stop>
            <stop stop-color="#D49511" offset="100%"></stop>
        </radialGradient>
        <rect id="path-2" x="0" y="0" width="343" height="80" rx="20"></rect>
        <radialGradient cx="116.095465%" cy="-17.0434939%" fx="116.095465%" fy="-17.0434939%" r="379.797809%" gradientTransform="translate(1.160955,-0.170435),scale(0.701220,1.000000),rotate(64.621548),translate(-1.160955,0.170435)" id="radialGradient-4">
            <stop stop-color="#FFFFFF" stop-opacity="0" offset="0%"></stop>
            <stop stop-color="#FFFFFF" stop-opacity="0.273792614" offset="100%"></stop>
        </radialGradient>
        <radialGradient cx="116.095465%" cy="-17.0434939%" fx="116.095465%" fy="-17.0434939%" r="380.975658%" gradientTransform="translate(1.160955,-0.170435),scale(0.689655,1.000000),rotate(64.250659),translate(-1.160955,0.170435)" id="radialGradient-5">
            <stop stop-color="#FFFFFF" stop-opacity="0" offset="0%"></stop>
            <stop stop-color="#FFFFFF" stop-opacity="0.273792614" offset="100%"></stop>
        </radialGradient>
        <radialGradient cx="116.095465%" cy="-17.0434939%" fx="116.095465%" fy="-17.0434939%" r="379.100018%" gradientTransform="translate(1.160955,-0.170435),scale(0.708333,1.000000),rotate(64.844782),translate(-1.160955,0.170435)" id="radialGradient-6">
            <stop stop-color="#FFFFFF" stop-opacity="0" offset="0%"></stop>
            <stop stop-color="#FFFFFF" stop-opacity="0.273792614" offset="100%"></stop>
        </radialGradient>
        <radialGradient cx="116.095465%" cy="-17.0434939%" fx="116.095465%" fy="-17.0434939%" r="740.619537%" gradientTransform="translate(1.160955,-0.170435),scale(0.173913,1.000000),rotate(27.601738),translate(-1.160955,0.170435)" id="radialGradient-7">
            <stop stop-color="#FFFFFF" stop-opacity="0" offset="0%"></stop>
            <stop stop-color="#FFFFFF" stop-opacity="0.273792614" offset="100%"></stop>
        </radialGradient>
        <radialGradient cx="116.095465%" cy="-17.0434939%" fx="116.095465%" fy="-17.0434939%" r="418.769273%" gradientTransform="translate(1.160955,-0.170435),scale(0.475524,1.000000),rotate(55.026320),translate(-1.160955,0.170435)" id="radialGradient-8">
            <stop stop-color="#FFFFFF" stop-opacity="0" offset="0%"></stop>
            <stop stop-color="#FFFFFF" stop-opacity="0.273792614" offset="100%"></stop>
        </radialGradient>
        <radialGradient cx="116.095465%" cy="-17.0434939%" fx="116.095465%" fy="-17.0434939%" r="371.222798%" gradientTransform="translate(1.160955,-0.170435),scale(0.805970,1.000000),rotate(67.573058),translate(-1.160955,0.170435)" id="radialGradient-9">
            <stop stop-color="#FFFFFF" stop-opacity="0" offset="0%"></stop>
            <stop stop-color="#FFFFFF" stop-opacity="0.273792614" offset="100%"></stop>
        </radialGradient>
        <radialGradient cx="116.095465%" cy="-17.0434939%" fx="116.095465%" fy="-17.0434939%" r="447.07307%" gradientTransform="translate(1.160955,-0.170435),scale(0.398305,1.000000),rotate(50.133403),translate(-1.160955,0.170435)" id="radialGradient-10">
            <stop stop-color="#FFFFFF" stop-opacity="0" offset="0%"></stop>
            <stop stop-color="#FFFFFF" stop-opacity="0.273792614" offset="100%"></stop>
        </radialGradient>
        <radialGradient cx="116.095465%" cy="-17.0434939%" fx="116.095465%" fy="-17.0434939%" r="512.45419%" gradientTransform="translate(1.160955,-0.170435),scale(1.000000,0.686869),rotate(77.129962),translate(-1.160955,0.170435)" id="radialGradient-11">
            <stop stop-color="#FFFFFF" stop-opacity="0" offset="0%"></stop>
            <stop stop-color="#FFFFFF" stop-opacity="0.273792614" offset="100%"></stop>
        </radialGradient>
        <radialGradient cx="116.095465%" cy="-17.0434939%" fx="116.095465%" fy="-17.0434939%" r="738.065075%" gradientTransform="translate(1.160955,-0.170435),scale(1.000000,0.470588),rotate(81.103309),translate(-1.160955,0.170435)" id="radialGradient-12">
            <stop stop-color="#FFFFFF" stop-opacity="0" offset="0%"></stop>
            <stop stop-color="#FFFFFF" stop-opacity="0.273792614" offset="100%"></stop>
        </radialGradient>
        <radialGradient cx="116.095465%" cy="-17.0434939%" fx="116.095465%" fy="-17.0434939%" r="377.335332%" gradientTransform="translate(1.160955,-0.170435),scale(0.727273,1.000000),rotate(65.421566),translate(-1.160955,0.170435)" id="radialGradient-13">
            <stop stop-color="#FFFFFF" stop-opacity="0" offset="0%"></stop>
            <stop stop-color="#FFFFFF" stop-opacity="0.273792614" offset="100%"></stop>
        </radialGradient>
        <filter x="-250.0%" y="-150.0%" width="600.0%" height="400.0%" filterUnits="objectBoundingBox" id="filter-14">
            <feGaussianBlur stdDeviation="10" in="SourceGraphic"></feGaussianBlur>
        </filter>
        <filter x="-187.5%" y="-176.5%" width="475.0%" height="452.9%" filterUnits="objectBoundingBox" id="filter-15">
            <feGaussianBlur stdDeviation="10" in="SourceGraphic"></feGaussianBlur>
        </filter>
        <linearGradient x1="50.9571044%" y1="100%" x2="50%" y2="-3.55271368e-13%" id="linearGradient-16">
            <stop stop-color="#FFD328" offset="0%"></stop>
            <stop stop-color="#FEE664" offset="100%"></stop>
        </linearGradient>
        <linearGradient x1="74.6894099%" y1="94.4489662%" x2="24.436442%" y2="5.27061194%" id="linearGradient-17">
            <stop stop-color="#FFC300" offset="0%"></stop>
            <stop stop-color="#FFE86A" offset="100%"></stop>
        </linearGradient>
        <filter id="filter-18">
            <feColorMatrix in="SourceGraphic" type="matrix" values="0 0 0 0 0.886275 0 0 0 0 0.631373 0 0 0 0 0.023529 0 0 0 1.000000 0"></feColorMatrix>
        </filter>
        <linearGradient x1="74.9098118%" y1="87.4204277%" x2="28.974744%" y2="9.46175275%" id="linearGradient-19">
            <stop stop-color="#FFDC42" offset="0%"></stop>
            <stop stop-color="#FFF5C2" offset="100%"></stop>
        </linearGradient>
        <linearGradient x1="-3.55271368e-13%" y1="48.2891027%" x2="96.9631867%" y2="45.0316548%" id="linearGradient-20">
            <stop stop-color="#FFD328" offset="0%"></stop>
            <stop stop-color="#FEE664" offset="100%"></stop>
        </linearGradient>
        <linearGradient x1="-11.6697129%" y1="110.184108%" x2="72.3482012%" y2="25.4110374%" id="linearGradient-21">
            <stop stop-color="#FFC300" offset="0%"></stop>
            <stop stop-color="#FFE86A" offset="100%"></stop>
        </linearGradient>
        <filter id="filter-22">
            <feColorMatrix in="SourceGraphic" type="matrix" values="0 0 0 0 0.886275 0 0 0 0 0.631373 0 0 0 0 0.023529 0 0 0 1.000000 0"></feColorMatrix>
        </filter>
        <linearGradient x1="8.21784684%" y1="85.4270641%" x2="66.3789991%" y2="9.71858559%" id="linearGradient-23">
            <stop stop-color="#FFDD46" offset="0%"></stop>
            <stop stop-color="#FFF5C2" offset="100%"></stop>
        </linearGradient>
    </defs>
    <g id="领取奖励" stroke="none" stroke-width="1" fill="none" fill-rule="evenodd">
        <g id="画板" transform="translate(-39.000000, -146.000000)">
            <g id="BG" transform="translate(39.000000, 146.000000)">
                <g id="路径-23-+-路径-24-+-路径-25-+-路径-26-+-路径-27-+-路径-28-+-路径-29-+-路径-30-+-路径-31-+-路径-32-+-路径-33-+-路径-34-+-路径-35-蒙版">
                    <mask id="mask-3" fill="white">
                        <use xlink:href="#path-2"></use>
                    </mask>
                    <use id="蒙版" fill="url(#radialGradient-1)" xlink:href="#path-2"></use>
                    <path d="M155.270552,-76.5 L155.5,-75.5772144 C141.988213,-72.159227 135.961867,-63.4661969 137.325558,-49.3564544 L137.509576,-47.4262141 L137.783145,-44.4296379 L138.017041,-41.6793664 L138.21327,-39.1415811 L138.34448,-37.2416168 L138.428526,-35.881268 L138.522262,-34.1397474 L138.579382,-32.878346 L138.625684,-31.647176 L138.6616,-30.4389326 L138.687565,-29.246311 L138.708415,-27.6109438 L138.721695,-25.5564879 L138.70868,-23.4211417 L138.664278,-21.5021711 L138.595458,-19.6075427 L138.444651,-16.375529 L138.233065,-12.4188795 L137.326958,3.23538959 C136.595215,15.7003734 128.647459,30.3042105 120.548442,36.3191524 C116.666053,39.2025072 113.443075,39.3155636 112.040452,36.1258397 C111.495553,34.8866794 111.251217,33.1744354 111.318102,30.9939718 L111.34569,30.3582457 C111.405815,29.2774818 111.536742,28.0906507 111.739622,26.7982776 L111.869994,26.0101928 C111.893165,25.876736 111.917057,25.7422247 111.941673,25.6066596 L112.098051,24.780627 L112.271836,23.9293274 C112.302254,23.7853399 112.3334,23.6403007 112.365274,23.4942103 L112.565273,22.6050574 C112.600066,22.4547642 112.635591,22.3034208 112.671848,22.1510278 L112.898185,21.2240783 C112.937376,21.0674888 112.977301,20.9098507 113.017961,20.7511646 L113.270761,19.7864752 C113.357976,19.4607226 113.448143,19.1307819 113.541271,18.7966574 L113.829548,17.7817364 L114.135645,16.7417374 L114.459619,15.6766857 C114.586965,15.2645181 114.711515,14.8549333 114.83328,14.4479385 L115.190231,13.2347312 C115.248334,13.0338273 115.305743,12.8335728 115.362459,12.6339684 L115.694457,11.4441514 L116.009892,10.2699818 C116.470654,8.5204843 116.875719,6.82394154 117.225985,5.18100637 L117.451388,4.09366528 C117.668692,3.01428038 117.861729,1.95878556 118.030767,0.927374251 L118.191815,-0.0960020586 C118.242837,-0.434446773 118.291203,-0.770208378 118.336922,-1.10327971 L118.466147,-2.09441571 C118.526799,-2.58594114 118.581518,-3.07139733 118.630336,-3.5507601 L118.720116,-4.50135393 C119.539441,-13.9259033 118.007564,-20.9066382 114.390643,-25.2501212 C109.391243,-31.2537923 100.539531,-31.6842059 90.9467079,-26.8001855 L90.5574113,-26.5992738 C78.9546895,-20.5305899 69.0176054,-16.7910497 59.3959007,-15.4912103 C47.5786133,-13.8947597 37.0307201,-16.2277662 27.7896299,-23.2359455 L27.3362039,-23.5843826 C14.3475455,-33.6972377 2.59893099,-38.002039 -7.9127783,-36.5344811 L-8.35619893,-36.4690364 L-8.5,-37.4092789 C2.41575464,-39.1077202 14.5543628,-34.7380447 27.9125512,-24.3374768 C37.0505034,-17.2227477 47.4972287,-14.8436245 59.2706878,-16.4341541 C67.9015115,-17.600131 76.8216785,-20.7677115 87.0232896,-25.8588633 L88.5632661,-26.6369531 C88.821572,-26.7690359 89.0807098,-26.9023186 89.340695,-27.0367998 L90.1232084,-27.4438379 C100.21637,-32.722962 109.715062,-32.344136 115.112893,-25.8619971 C118.475487,-21.8239308 120.108722,-15.6916779 119.849808,-7.6083216 L119.813245,-6.70214894 C119.805851,-6.54978438 119.797806,-6.39675254 119.789108,-6.24305431 L119.729092,-5.31287574 L119.653379,-4.36674774 C119.639449,-4.20773304 119.624863,-4.04805561 119.60962,-3.88771634 L119.510268,-2.91774598 C119.492392,-2.75476301 119.473857,-2.59112003 119.454662,-2.42681794 L119.331559,-1.43310337 L119.19256,-0.423613836 C119.168067,-0.254053425 119.142908,-0.0838375406 119.117085,0.0870329075 L118.954149,1.12010309 C118.868681,1.6405583 118.777205,2.16688823 118.679693,2.69906834 L118.476615,3.77122154 C118.441425,3.95121135 118.405562,4.13184938 118.369025,4.31313469 L118.141712,5.40860685 C118.102477,5.59247771 118.062566,5.77699404 118.021977,5.96215495 L117.770319,7.08084793 C117.68372,7.45631902 117.594405,7.83436111 117.502367,8.21496694 L117.218073,9.36446836 C117.071832,9.9430574 116.919444,10.5273985 116.760882,11.1174671 L116.435515,12.3052337 C116.379912,12.5044652 116.323621,12.7043312 116.266641,12.9048309 L115.916481,14.1154258 C115.796999,14.5214873 115.674751,14.9300761 115.54973,15.3411851 L115.360118,15.9597377 C115.242841,16.3393193 115.129024,16.7138443 115.018637,17.0833173 L114.697739,18.1765849 C114.645961,18.3562717 114.595033,18.5346967 114.544952,18.7118604 L114.254592,19.759712 L113.984366,20.7773214 C113.507299,22.6152333 113.130841,24.3008139 112.850026,25.8348366 L112.70631,26.6565503 C110.960531,37.1435524 113.978378,40.01714 119.98919,35.5530573 C127.863762,29.7048056 135.670306,15.3604425 136.385395,3.17915661 L137.293665,-12.5145008 L137.572193,-17.8376034 L137.684068,-20.4387611 L137.741912,-22.2704256 L137.768117,-23.6272092 L137.778523,-25.0656006 L137.769154,-27.1710006 L137.75642,-28.4444918 L137.744486,-29.2301488 L137.706704,-30.8549395 L137.666077,-32.0951634 L137.614396,-33.3626509 L137.551194,-34.6652526 L137.476004,-36.010819 L137.388357,-37.4072007 L137.25131,-39.3616579 L137.09018,-41.4390188 L137.000238,-42.5296033 L136.853214,-44.2369023 L136.633847,-46.6588346 L136.386796,-49.264149 C134.992027,-63.6954451 141.178571,-72.783994 154.853857,-76.392334 L155.270552,-76.5 Z" id="路径" fill="url(#radialGradient-4)" fill-rule="nonzero" opacity="0.797921317" mask="url(#mask-3)"></path>
                    <path d="M187.241216,-78.5 L187.5,-77.5948191 C175.913664,-74.272082 167.900768,-66.2220895 162.504722,-53.644077 C161.664036,-51.684465 160.893541,-49.6504168 160.18283,-47.5141261 L159.832408,-46.4373318 C159.141335,-44.2661879 158.508312,-41.988167 157.922931,-39.5754628 L157.634162,-38.3577583 L157.353045,-37.1168342 L157.079289,-35.8519181 C156.944204,-35.2133334 156.811771,-34.5654619 156.681828,-33.9078693 L156.425214,-32.5795939 C156.382982,-32.3560115 156.341015,-32.1313168 156.299306,-31.9054937 L156.052109,-30.5368855 C156.01141,-30.3064844 155.970958,-30.0749228 155.930747,-29.8421844 L155.692316,-28.4315055 C155.653042,-28.1939961 155.613997,-27.9552779 155.575175,-27.7153346 L155.34486,-26.2608472 C155.306903,-26.0159398 155.269157,-25.7697753 155.231615,-25.5223375 L155.008766,-24.0223036 L154.790533,-22.4909398 L154.576627,-20.9274738 L154.366759,-19.3311331 C154.332101,-19.0622939 154.2976,-18.7920527 154.263248,-18.5203935 L154.058894,-16.8732927 L153.857855,-15.1913862 L153.223402,-9.51315592 L151.771253,4.61609386 L151.409375,7.97273516 L151.072868,10.9227251 L150.792537,13.2243659 L150.604538,14.6845911 L150.514579,15.3605747 C150.424031,16.0338807 150.331561,16.7004012 150.235767,17.3713636 C147.910349,33.6591149 134.546502,49.8995861 119.121143,57.7058721 C112.042621,61.2880877 105.532761,62.434261 101.037302,60.7129835 C96.1209437,58.8305466 93.9241934,53.7300806 94.9855617,45.7406177 L95.0423401,45.3318857 C99.3100479,15.8820674 87.0332239,4.38445325 64.538689,8.1862283 L63.8539154,8.30611388 C63.596004,8.3528166 63.3326767,8.39811992 63.0639329,8.44202392 L62.2414522,8.569538 C61.1231447,8.73395964 59.9181693,8.8759931 58.6265016,8.99564266 L57.6414957,9.08118292 L56.623978,9.15832962 C56.4516822,9.17048796 56.2780317,9.18229659 56.1030264,9.19375551 L55.0367367,9.25831262 L53.9379294,9.31447718 C53.7520849,9.32313858 53.5648855,9.33145031 53.376331,9.33941237 L52.2287432,9.38298884 C52.0347684,9.38955228 51.8394384,9.39576607 51.6427533,9.40163022 L50.4463799,9.43261951 L49.2174799,9.45521784 L47.956051,9.46942562 L46.6620911,9.47524326 C46.44372,9.47551371 46.2239934,9.47543458 46.0029112,9.47500589 L43.9765687,9.46170967 L42.5850018,9.44235926 L41.1608946,9.4146203 L39.704245,9.3784932 L38.2150507,9.33397835 L36.6933094,9.28107615 L35.1390188,9.21978702 L33.5521767,9.15011134 L31.9327808,9.07204953 L30.2808288,8.98560197 L28.5963184,8.89076908 L26.8792475,8.78755125 L25.1296137,8.67594889 L23.3474147,8.55596239 L20.6130517,8.36026327 L17.8054043,8.1457021 L15.892922,7.99218308 L12.9631171,7.74618818 L9.96000736,7.48133484 L7.91720557,7.2942897 L4.79190426,6.99800865 L2.66763433,6.79001295 L-0.579879845,6.46230794 L-2.78563211,6.23336419 L-5.02398128,5.99604193 L-8.44262918,5.62434969 L-10.7624805,5.36608288 L-14.3033923,4.96297571 L-15.5,4.82441833 L-15.3915919,3.88914251 L-11.8344892,4.29758383 L-8.35059043,4.68722371 L-4.93990314,5.05806348 L-2.70678846,5.29484617 L0.581862621,5.63435545 L2.73361273,5.8502524 L5.90020633,6.15843495 L8.99355522,6.44782327 L12.0136518,6.71841871 L14.9604883,6.97022263 L16.8843422,7.12765284 L19.7090617,7.34814055 L21.5514972,7.48469455 L24.2540784,7.67386982 L26.0150812,7.78955011 L27.7435071,7.89688161 L29.4393536,7.99586474 L31.1026186,8.08649989 L33.5364207,8.20680103 L35.1182219,8.27656799 L36.6674336,8.33798837 L38.1840536,8.39106257 L39.6680795,8.43579101 L41.1195091,8.47217407 L42.5383401,8.50021217 C42.7720953,8.50418979 43.0044921,8.50781972 43.2355305,8.51110197 L44.6054594,8.52662336 L45.9427841,8.53380078 L47.2475023,8.53263464 L48.5196118,8.52312533 L49.7591102,8.50527325 L50.9659953,8.47907881 C51.1644249,8.4740179 51.3614955,8.4686094 51.5572071,8.46285333 L52.715168,8.4241461 L53.8405098,8.37709751 L54.9332305,8.32170796 L55.9933276,8.25797785 L57.020799,8.18590758 L58.0156422,8.10549756 L58.9778552,8.01674818 L59.9074356,7.91965985 C60.2118567,7.88590729 60.5108387,7.85076497 60.8043811,7.81423296 L61.6686895,7.70046793 C62.2340155,7.62184527 62.777582,7.53766412 63.2993858,7.447925 L63.6866581,7.37957855 C86.9986144,3.15823797 100.113998,14.8309066 96.0995875,44.560694 L95.9726883,45.467126 C94.8380382,53.2969121 96.8411621,58.098296 101.373004,59.8335044 C105.573172,61.4417175 111.832021,60.3397392 118.697176,56.8655013 C133.714637,49.2656399 146.763477,33.5144844 149.233534,17.7168068 L149.352602,16.9040584 L149.585411,15.2161329 L149.903819,12.755144 L150.129291,10.8965505 L150.453376,8.06402019 L150.800326,4.85820673 L152.430764,-10.935986 L152.725738,-13.5800438 L152.824855,-14.447388 L153.12673,-16.9957705 L153.332119,-18.6509598 L153.54116,-20.2720744 L153.754149,-21.8598954 L153.97138,-23.4152037 C154.007955,-23.6717558 154.044719,-23.9269857 154.081678,-24.1809097 L154.305823,-25.6889135 L154.534945,-27.1663572 C154.573563,-27.4100945 154.612401,-27.6525911 154.651464,-27.8938631 L154.888603,-29.326931 C154.928594,-29.56337 154.968823,-29.7986171 155.009297,-30.0326884 L155.255114,-31.4231379 L155.507085,-32.7861513 C155.592134,-33.2360033 155.678257,-33.6814127 155.765504,-34.1225098 L156.030664,-35.4329943 C156.120207,-35.8655969 156.210923,-36.2940173 156.30286,-36.7183857 L156.582386,-37.9794653 C157.951615,-44.0171874 159.588001,-49.2303461 161.640982,-54.0157794 C167.062454,-66.6530595 175.125002,-74.8556578 186.73423,-78.3509958 L187.241216,-78.5 Z" id="路径" fill="url(#radialGradient-5)" fill-rule="nonzero" opacity="0.797921317" mask="url(#mask-3)"></path>
                    <path d="M72.5882681,53.327051 L71.6413485,52.281384 L71.0593933,51.6234408 L66.406261,46.2456614 L63.6616699,43.1128394 L62.2824807,41.5574175 L61.2583284,40.4174335 L60.3984187,39.4791821 L60.1110371,39.1729103 L59.8605289,38.9114595 C56.1776093,35.1204239 53.0049771,32.7052197 49.7350212,31.4025216 C34.5736236,25.3624637 16.2603268,26.2303994 -5.21584477,34.0275412 L-6.68503047,34.5699022 C-6.93071165,34.6620853 -7.1768013,34.7551633 -7.42329942,34.8491362 L-8.16401924,35.1337395 L-8.5,34.2515344 L-7.00776477,33.6826761 C15.3029273,25.3122394 34.3358976,24.2516559 50.0794051,30.5236172 C53.3717861,31.835249 56.5295288,34.1964494 60.1283326,37.8400324 L60.6360861,38.3600187 L61.1317771,38.88639 L62.0617802,39.9035314 L63.1664938,41.1356955 L65.4624384,43.7362862 L66.9770937,45.4689352 L71.8632817,51.117288 L72.8160233,52.1796722 C83.4118112,63.878613 92.6095211,70.0838928 105.210244,72.0062182 C122.012593,74.5695298 143.012714,68.2526619 170.026791,51.0033863 C170.496855,50.6469407 170.976627,50.3072424 171.514681,49.946508 L172.106077,49.5568826 L173.719623,48.5226029 C177.441773,46.1216038 179.07765,44.2078261 180.370188,39.7983794 L180.445589,39.5358238 L180.591606,38.9949089 C180.615411,38.902985 180.638949,38.8101702 180.662221,38.7164569 L180.798658,38.1433317 C180.820865,38.045993 180.842805,37.9477403 180.864479,37.8485658 L180.991318,37.2423954 C181.011923,37.1395028 181.032262,37.035673 181.052334,36.9308981 L181.169557,36.2908475 C181.188559,36.1822618 181.207294,36.0727157 181.225761,35.9622013 L181.333349,35.2874354 L181.434505,34.5890621 L181.52922,33.8667102 L181.617486,33.1200087 C181.631659,32.9935087 181.645563,32.8659787 181.659198,32.7374109 L181.737776,31.9534891 C181.750334,31.8207393 181.762622,31.6869363 181.77464,31.5520723 L181.843513,30.7300952 L181.905905,29.882284 L181.961808,29.0082676 C181.970584,28.8603938 181.979089,28.7114126 181.987324,28.5613164 L182.03348,27.6472963 L182.073127,26.7061432 L182.106258,25.7374859 L182.132864,24.7409534 L182.152938,23.7161745 L182.166472,22.6627782 L182.173458,21.5803933 L182.173888,20.4686487 L182.167753,19.3271732 L182.155046,18.1555958 L182.135759,16.9535454 L182.094474,15.0925209 L182.058702,13.8126642 L182.016322,12.5010356 L181.940344,10.4732083 L181.891174,9.77367492 C181.883842,9.65384823 181.87694,9.53241935 181.870466,9.40941333 L181.83674,8.65265188 C181.831969,8.52343749 181.827622,8.39269606 181.823697,8.26045265 L181.805189,7.44916869 C181.800696,7.17286636 181.797873,6.89075649 181.796703,6.60303948 L181.798138,5.72326749 C181.799199,5.57390206 181.800669,5.42318495 181.802545,5.27114121 L181.818676,4.34315966 L181.844478,3.38454149 L181.879853,2.39648917 L181.9247,1.38020516 C181.932959,1.20853866 181.941607,1.03574593 181.950645,0.861852046 L182.009514,-0.194524863 L182.077605,-1.27612729 L182.154821,-2.38175276 L182.241059,-3.51019882 L182.336222,-4.66026299 L182.440208,-5.83074281 L182.552919,-7.02043581 L182.674254,-8.22813952 L182.804114,-9.45265148 L182.942398,-10.6927692 L183.089008,-11.9472903 L183.243843,-13.2150122 L183.406804,-14.4947324 L183.666262,-16.4341794 L183.8491,-17.7386348 L184.039714,-19.0508799 L184.238006,-20.3697124 L184.443873,-21.6939296 L184.657218,-23.0223292 L184.877941,-24.3537086 L185.10594,-25.6868655 L185.341118,-27.0205972 C185.380907,-27.242867 185.42099,-27.4651106 185.461367,-27.687303 L185.832607,-29.6849758 L186.088719,-31.0132176 L186.35161,-32.3372244 L186.621179,-33.6557939 C186.666658,-33.8750355 186.712412,-34.0940005 186.758437,-34.3126638 L187.037838,-35.6208225 L187.328591,-36.9430137 L187.629497,-38.2738368 C187.680051,-38.4943444 187.730806,-38.7142007 187.781762,-38.9334011 L188.089895,-40.2406958 C188.14165,-40.4572541 188.193605,-40.6731472 188.245758,-40.8883704 L188.561057,-42.1716346 L188.881099,-43.4385995 L189.205856,-44.6890419 L189.535301,-45.9227387 L189.869405,-47.1394667 L190.208143,-48.3390027 L190.551485,-49.5211237 L190.899404,-50.6856064 C190.957771,-50.8782045 191.016327,-51.0700585 191.075072,-51.2611636 L191.429806,-52.3987705 L191.789048,-53.5181811 C191.849296,-53.7032208 191.909731,-53.8874931 191.970352,-54.0709932 L192.336306,-55.1626911 L192.706699,-56.2356351 C192.7688,-56.4128838 192.831084,-56.5893418 192.893552,-56.7650045 L193.270554,-57.8093989 L193.651926,-58.8344812 L194.037642,-59.8400285 L194.427674,-60.8258174 L194.821993,-61.7916249 C194.954145,-62.1102057 195.087007,-62.425419 195.220574,-62.7372277 L195.623388,-63.6624028 L196.030408,-64.5669269 C196.30315,-65.1630097 196.578678,-65.7451764 196.856954,-66.3131296 L197.276425,-67.1543619 C197.346679,-67.2927781 197.417104,-67.4302968 197.487699,-67.5669131 L197.913303,-68.3757463 C200.621666,-73.4293107 203.573959,-77.1665284 206.738707,-79.3322884 L206.988996,-79.5 L207.5,-78.7078097 C203.868226,-76.3259604 200.488692,-71.7266316 197.432428,-65.3427444 L197.026848,-64.4810223 L196.625137,-63.5983779 C196.558509,-63.4495397 196.492045,-63.2998392 196.425744,-63.1492812 L196.029906,-62.2356809 C195.964262,-62.0817119 195.898783,-61.9268948 195.83347,-61.7712345 L195.443589,-60.8271915 C195.378943,-60.6681772 195.314464,-60.5083291 195.250154,-60.347652 L194.866315,-59.3736793 L194.48655,-58.3800386 L194.110898,-57.3669579 L193.739395,-56.3346652 C193.677825,-56.1610281 193.616431,-55.9866 193.555211,-55.8113857 L193.190002,-54.7507026 C193.129486,-54.5723623 193.069148,-54.3932452 193.008986,-54.2133561 L192.650156,-53.1247957 L192.295624,-52.0179356 L191.945429,-50.8930036 L191.599607,-49.750228 C191.542337,-49.558291 191.485251,-49.3656201 191.428349,-49.17222 L191.089158,-48.0031063 L190.754435,-46.816719 C190.699022,-46.617561 190.643797,-46.4176927 190.588761,-46.217119 L190.260809,-45.0052488 L189.937418,-43.7766751 L189.618625,-42.5316259 L189.304468,-41.2703293 C189.252497,-41.0587719 189.20072,-40.846547 189.149139,-40.6336594 L188.842006,-39.3484192 L188.539602,-38.0475017 C188.489598,-37.8293883 188.439792,-37.6106312 188.390185,-37.3912352 L188.094945,-36.0672292 L187.813673,-34.7693894 L187.538845,-33.4637214 L187.270561,-32.1514274 C187.226398,-31.9322264 187.182512,-31.7127993 187.138904,-31.4931713 L186.880623,-30.1731924 L186.629132,-28.849593 L186.384533,-27.5235753 L186.146924,-26.1963417 L185.916403,-24.8690942 L185.584131,-22.880827 L185.268367,-20.8992913 L185.067193,-19.5840109 L184.873604,-18.2747278 L184.687698,-16.9726443 L184.509575,-15.6789626 L184.339334,-14.3948849 L184.177073,-13.1216135 L184.022892,-11.8603505 L183.87689,-10.6122982 L183.739166,-9.37865884 L183.609819,-8.16063463 L183.488948,-6.95942778 L183.376653,-5.77624054 L183.273032,-4.61227513 L183.178184,-3.46873377 L183.052579,-1.7943467 L182.980098,-0.70712522 L182.916738,0.355464417 L182.839014,1.90053429 L182.798888,2.89628457 L182.768228,3.86319521 L182.747135,4.80006398 L182.735707,5.70568866 L182.734043,6.57886702 C182.734584,6.7216261 182.735537,6.86298315 182.736903,7.00291314 L182.750071,7.82516784 C182.756124,8.09341089 182.763845,8.35574529 182.773251,8.61197067 L182.806542,9.36211938 L182.850044,10.0744117 C182.85815,10.1899057 182.866686,10.3037721 182.875654,10.4159861 L182.9284,11.7866338 L182.99499,13.7818186 L183.046556,15.7052093 L183.072595,16.948223 L183.099154,18.7548318 L183.108533,19.9211888 L183.111256,21.057554 L183.107326,22.1643107 L183.096748,23.2418423 L183.079526,24.290532 L183.055664,25.3107633 L183.025165,26.3029195 L182.988034,27.2673838 L182.944276,28.2045397 L182.893893,29.1147704 L182.836891,29.9984594 L182.773272,30.8559899 C182.762118,30.9967531 182.750689,31.1364423 182.738984,31.2750655 L182.665449,32.0940771 L182.58531,32.8878886 L182.498568,33.6568833 L182.405229,34.4014446 L182.305297,35.1219558 C182.288092,35.2400581 182.270613,35.3571743 182.25286,35.4733123 L182.143045,36.1584671 C182.086491,36.4952396 182.027469,36.8233527 181.965981,37.143022 L181.839715,37.7711662 C181.818123,37.8740018 181.796257,37.9759151 181.774118,38.0769143 L181.637995,38.672002 C181.568291,38.9641244 181.496125,39.2481623 181.421498,39.5243315 L181.268965,40.066242 C180.012885,44.3513154 178.401096,46.4591989 175.10907,48.7297465 L174.528016,49.1210133 L172.440562,50.4638422 C171.744434,50.9199439 171.158669,51.3275163 170.559169,51.7802102 C167.020696,54.0398636 163.583736,56.1135962 160.244219,58.0058419 L158.709808,58.8663156 C137.069918,70.8742565 119.569116,75.1525325 105.070042,72.9406007 C92.4008796,71.0078345 83.1232878,64.8435647 72.5882681,53.327051 Z" id="路径" fill="url(#radialGradient-6)" fill-rule="nonzero" opacity="0.797921317" mask="url(#mask-3)"></path>
                    <path d="M50.732139,59.6569244 C56.2478501,58.8241584 61.943597,61.3423756 68.2391469,66.342528 L68.755494,66.7575185 L69.218303,67.1416552 L69.9307888,67.7479338 L71.3473982,68.9803233 L75.6962702,72.8285091 L75.8909653,72.993942 L75.9303187,73.0255736 C80.3524149,76.4724894 85.0150717,78.6997383 93.1872756,80.0362335 C98.2062073,80.8570376 103.979487,81.1468508 110.577486,80.8396554 L111.864836,80.7727257 C115.541611,80.5618689 119.467768,80.1701938 123.654912,79.5868131 L125.143583,79.3729362 L126.654041,79.1430328 C128.175431,78.9050806 129.729671,78.642929 131.317273,78.3560994 L132.916013,78.061026 C133.184329,78.0104702 133.453577,77.9592244 133.723759,77.9072865 L135.356073,77.5873356 L137.010911,77.2506668 L138.688386,76.8971736 C138.969858,76.8368501 139.252278,76.7758212 139.535648,76.7140846 L141.247292,76.3351555 C141.821654,76.2060034 142.399836,76.0740028 142.981857,75.9391362 L143.53574,75.792929 L144.120946,75.6313172 L144.749266,75.4512413 L148.842755,74.2088328 L149.955796,73.8756122 C155.214505,72.3256384 158.762947,71.6514074 162.521276,71.729119 C171.929085,71.9236458 179.159137,77.5599319 184.322763,90.7373344 L184.5,91.1947197 L183.612951,91.5 C183.438805,91.045549 183.262381,90.6002175 183.083671,90.1639092 L182.723199,89.3032951 C177.755014,77.7052128 171.074196,72.8005367 162.50069,72.6232608 C159.618815,72.5636718 156.840653,72.9662925 153.234054,73.8961483 L152.273797,74.1507222 L151.272277,74.4294724 C151.101715,74.4779598 150.929279,74.5274652 150.754895,74.5779939 L149.684586,74.8934899 L146.08461,75.9920423 L145.023125,76.3071005 L144.384894,76.4899239 L143.787308,76.6548147 L143.217598,76.8050641 C142.632093,76.9407419 142.050429,77.0735378 141.472586,77.2034693 L139.750502,77.5846881 C139.465392,77.6467982 139.181232,77.7081966 138.898021,77.7688855 L137.210111,78.1245219 L135.544841,78.463235 C134.993511,78.5733305 134.445935,78.6806229 133.902094,78.7851299 L132.281756,79.090312 L130.683712,79.3788864 C130.419222,79.425604 130.155657,79.471634 129.893014,79.5169786 L128.328194,79.7808389 C128.069228,79.8234506 127.811178,79.8653813 127.554044,79.9066332 L126.022189,80.146016 C122.726866,80.6471053 119.585283,81.0342131 116.59217,81.3121561 L115.221257,81.4327038 C114.994522,81.451509 114.76866,81.4696726 114.543671,81.4871969 L113.204168,81.5846878 C112.761139,81.614639 112.321577,81.6420503 111.885461,81.6669391 L110.587437,81.7340561 C103.934204,82.0419111 98.1044787,81.7479749 93.0267881,80.9175613 C84.8653402,79.5828251 80.0869601,77.3572712 75.6339709,73.9504183 L75.294418,73.6871613 L74.6613113,73.1394322 L70.8440882,69.7580884 L69.381796,68.4837068 L68.9404979,68.1056347 L68.3463314,67.6054732 L68.0058148,67.3264824 C61.7517146,62.2803376 56.1585649,59.7432723 50.8806177,60.5401405 C47.9471514,60.9830374 45.2052093,62.4863736 42.6667935,65.1854737 L42.3855855,65.4903014 C33.9185008,74.8450491 20.3535346,82.8600162 1.69440263,89.5469525 L0.829594772,89.8546374 L0.5,89.0165997 C19.1805592,82.4183186 32.7727294,74.5198517 41.2802263,65.3329488 L41.6692696,64.9080231 C44.426297,61.8619574 47.459565,60.1510199 50.732139,59.6569244 Z" id="路径" fill="url(#radialGradient-7)" fill-rule="nonzero" opacity="0.797921317" mask="url(#mask-3)"></path>
                    <path d="M304.813246,29.6326308 L306.029431,29.8582778 C308.690073,30.3701492 311.519035,31.0317607 314.556931,31.8516245 L315.974021,32.2412911 L317.421669,32.6536173 C317.665539,32.724237 317.91072,32.7958086 318.157229,32.8683359 L319.652379,33.3150004 L321.180305,33.7847895 L322.741896,34.2778892 L324.338038,34.7944855 L325.969619,35.3347644 C326.244552,35.4267948 326.520998,35.5198196 326.798976,35.6138429 L328.485379,36.1899944 L330.20944,36.7902933 L331.972045,37.4149257 C332.269073,37.5210692 332.567745,37.6282344 332.868078,37.7364251 L334.690164,38.3979065 L336.553012,39.0841863 L337.5,39.4366837 L337.169729,40.333309 L335.297366,39.6386731 L333.466269,38.9688093 L331.67555,38.3235289 L329.924322,37.7026435 L328.211698,37.1059644 L326.536791,36.5333032 L324.898714,35.9844713 L323.296579,35.4592802 L321.729499,34.9575413 C320.179651,34.4674657 318.681055,34.0122856 317.229719,33.5911525 L315.793988,33.1813371 L314.388877,32.7940311 C314.157194,32.7313455 313.92675,32.6695898 313.697526,32.6087603 L312.33668,32.2548651 C311.887847,32.1405835 311.443748,32.029975 311.004235,31.9230081 L309.699304,31.6130006 C295.923627,28.4221153 286.692263,28.9280508 277.159929,32.1011085 L276.569231,32.3012821 L275.655656,32.6286948 L273.074786,33.5931887 L263.926171,37.0854573 L263.226145,37.3444466 C253.637532,40.8103547 244.299557,43.0288463 231.958216,44.2757816 L231.002903,44.369788 C196.31853,47.6926422 187.051943,64.4775815 202.9948,95.115681 L203.485633,96.048349 L202.648493,96.5 C185.709663,64.6673328 195.202721,46.8389094 230.912948,43.4177757 C243.330661,42.2281261 252.666133,40.0837 262.173531,36.7065854 L263.022593,36.4016951 L265.111143,35.6144328 L272.752231,32.693631 L274.894702,31.8904758 L275.932444,31.5125614 L276.408056,31.3460724 C285.043002,28.3997303 293.370222,27.5894041 304.813246,29.6326308 Z" id="路径" fill="url(#radialGradient-8)" fill-rule="nonzero" opacity="0.797921317" mask="url(#mask-3)"></path>
                    <path d="M211.260774,-76.5 L212.023863,-75.9293641 C208.130831,-70.6509868 207.718532,-61.5124545 210.852265,-48.5042286 C211.115128,-47.2708203 211.300405,-45.7024994 211.411142,-43.8888309 L211.460314,-42.9619656 C211.467478,-42.8042187 211.474129,-42.6448716 211.480267,-42.4839763 L211.510962,-41.5004389 C211.543729,-40.1653887 211.543932,-38.7378811 211.512474,-37.2444539 L211.482959,-36.1124383 L211.441655,-34.9581908 C211.433793,-34.7641017 211.425444,-34.56919 211.416609,-34.3735075 L211.357781,-33.1905769 L211.287377,-31.9916342 L211.205481,-30.7791673 C211.190878,-30.5761007 211.175801,-30.3725742 211.16025,-30.1686398 L211.061275,-28.9405513 L210.951019,-27.7051585 L210.829568,-26.4649492 C210.787228,-26.0510197 210.743036,-25.6367022 210.697007,-25.2224112 L210.553419,-23.9800326 C210.503728,-23.5662093 210.452213,-23.1528273 210.398889,-22.7403011 L210.233503,-21.5057049 C210.148109,-20.8901052 210.058676,-20.2773641 209.965251,-19.6688811 L209.773093,-18.4580073 L209.570374,-17.2609764 L209.35718,-16.0802762 C208.847569,-13.3462966 208.253097,-10.7660028 207.578602,-8.48162061 L207.432845,-7.99669122 C205.414414,-1.40087509 206.578831,5.81462726 210.267535,9.6148522 C214.382227,13.8539442 220.862113,13.3073642 228.580836,6.96134183 C231.454743,4.05321177 232.853845,1.37016487 233.679577,-3.25094502 L233.796428,-3.94129116 L233.90572,-4.66081397 L234.008082,-5.41101996 C234.024599,-5.53869492 234.040854,-5.66771112 234.05686,-5.79809994 L234.150003,-6.59715545 C234.165062,-6.73316031 234.179899,-6.87060057 234.194525,-7.00950761 L234.279862,-7.8608023 L234.360779,-8.74880627 L234.437905,-9.67502604 L234.794759,-14.517499 L234.95659,-16.5506436 L235.051803,-17.650356 L235.14776,-18.6774088 L235.279913,-19.9584934 L235.384475,-20.8715976 L235.495668,-21.759691 L235.615259,-22.6370684 L235.790828,-23.8149423 L235.988652,-25.0330617 L236.212918,-26.3253102 C239.545569,-45.0282064 248.520311,-52.3605549 263.985857,-45.6917195 C279.998667,-38.7869008 295.336731,-20.3010886 298.718415,-4.6399393 C300.181208,2.13449986 306.387509,9.92189715 315.486048,17.1732556 C323.341924,23.4342365 332.555989,28.5785954 339.078478,30.4579166 L339.5,30.5758299 L339.252844,31.5 C332.572126,29.6884974 323.016849,24.3957675 314.896142,17.9237216 C305.803329,10.6769257 299.532785,2.88194599 297.874047,-4.0652434 L297.789608,-4.43659528 C294.473698,-19.7931322 279.343715,-38.0281595 263.611679,-44.811907 C248.801463,-51.1981602 240.385473,-44.3223107 237.148486,-26.1562845 L236.956329,-25.0535402 C236.926014,-24.8751139 236.896519,-24.6990749 236.867789,-24.5249805 L236.70415,-23.5002116 C236.652372,-23.164041 236.603218,-22.8321095 236.55625,-22.5008773 L236.476202,-21.9212322 L236.329962,-20.7705812 L236.22971,-19.8977743 L236.102838,-18.6759566 L235.980315,-17.3600465 L235.858414,-15.9198034 L235.635369,-13.0092428 L235.459783,-10.5704079 L235.346914,-9.12758617 C235.333958,-8.97210306 235.32085,-8.81819981 235.307577,-8.66584613 L235.225857,-7.77007661 L235.139551,-6.9100432 L235.048027,-6.08429227 C235.016579,-5.81459419 234.984157,-5.55036759 234.950655,-5.2913702 L234.846804,-4.5298234 L234.735842,-3.79819824 C233.894506,1.46089352 232.428678,4.42356408 229.218391,7.66949192 C221.118394,14.332411 214.092771,14.9250241 209.58778,10.2838325 C205.705712,6.28439701 204.455857,-1.09586609 206.412479,-7.90107923 L206.524483,-8.27852989 C206.911537,-9.54334194 207.272971,-10.9079262 207.607899,-12.3457437 L207.854112,-13.4374234 C208.135529,-14.7261019 208.396485,-16.0657698 208.636384,-17.438648 L208.836843,-18.6231193 C208.869388,-18.8217485 208.901501,-19.0209517 208.933178,-19.2206773 L209.118012,-20.4248829 L209.292324,-21.6391347 L209.456034,-22.8609447 C209.508827,-23.2691979 209.55984,-23.6782962 209.609057,-24.0878248 L209.751311,-25.317287 L209.882712,-26.5468433 L210.003179,-27.7740056 L210.112627,-28.9962859 L210.210974,-30.2111961 C210.226435,-30.4129287 210.241431,-30.6142506 210.255958,-30.8151099 L210.337498,-32.0143 C210.350148,-32.2131016 210.362326,-32.411337 210.374032,-32.6089543 L210.438577,-33.7868262 L210.49169,-34.9473758 L210.533286,-36.0881153 C210.539254,-36.2764495 210.544739,-36.4638545 210.549739,-36.6502787 L210.573906,-37.7566378 C210.586118,-38.4858101 210.590515,-39.197629 210.586985,-39.8887769 L210.575731,-40.9095809 L210.552506,-41.8968905 C210.547632,-42.0585127 210.542257,-42.2186356 210.536377,-42.3772074 L210.495037,-43.3096103 L210.441517,-44.2022986 C210.332181,-45.8009686 210.16102,-47.1868674 209.925731,-48.2910038 C206.783783,-61.3326155 207.146681,-70.6482296 211.074067,-76.2405853 L211.260774,-76.5 Z" id="路径" fill="url(#radialGradient-9)" fill-rule="nonzero" opacity="0.797921317" mask="url(#mask-3)"></path>
                    <path d="M313.187242,49.9177605 C322.038677,48.9058011 331.608432,49.6973215 342.704795,52.6756944 L343.5,52.8921597 L343.25364,53.7959789 C331.929938,50.6706987 322.233782,49.8267248 313.292385,50.8489692 C308.368947,51.411852 304.143184,52.3970037 299.075316,54.0977963 L297.842071,54.5198771 C296.591081,54.9559986 295.28449,55.4346928 293.901012,55.9600154 L287.206144,58.5526081 C273.925103,63.5996049 264.282732,66.0162445 251.651512,67.5502666 C227.312675,71.44702 220.701582,80.6532975 231.386952,95.4898813 L231.716045,95.9411984 L230.968333,96.5 C219.325453,80.7257178 226.319224,70.6570872 251.522524,66.6222656 C263.796277,65.1313318 273.207733,62.8103085 285.939482,58.0300366 L287.827931,57.3103293 L292.15853,55.6248734 L293.599689,55.0727246 L295.011189,54.5434225 C301.710355,52.0637362 306.685855,50.7123388 312.591597,49.9883052 L313.187242,49.9177605 Z" id="路径" fill="url(#radialGradient-10)" fill-rule="nonzero" opacity="0.797921317" mask="url(#mask-3)"></path>
                    <path d="M281.412122,-79.5 C285.317927,-60.6596851 293.922075,-44.379164 307.256116,-30.6192741 C314.092272,-22.2769515 319.382714,-12.3994798 323.14984,0.510004118 L323.388226,1.33814586 C326.119176,10.9562824 334.28783,16.6735288 347.989983,18.4874364 L348.5,18.5528334 L348.387731,19.5 C334.210528,17.7404719 325.582067,11.8963177 322.598225,1.96508655 L322.492834,1.60434656 C318.748515,-11.5827766 313.441455,-21.5862243 306.567856,-29.9768247 C293.337611,-43.6272631 284.707461,-59.7845087 280.682498,-78.4392465 L280.5,-79.3020077 L281.412122,-79.5 Z" id="路径" fill="url(#radialGradient-11)" fill-rule="nonzero" opacity="0.797921317" mask="url(#mask-3)"></path>
                    <path d="M298.5,-83.2717914 L299.411534,-83.5 L299.837867,-81.789783 C299.909137,-81.5071436 299.980515,-81.2257027 300.052001,-80.9454602 L300.482203,-79.278387 L300.914982,-77.6400788 L301.350336,-76.0305373 L301.788261,-74.4497644 C301.934664,-73.9276351 302.081496,-73.4103009 302.228755,-72.8977621 L302.671816,-71.3745321 L303.117442,-69.8800765 C303.266411,-69.3867205 303.415807,-68.8981605 303.565629,-68.4143969 L304.016376,-66.9774954 C304.091714,-66.7404101 304.167158,-66.5045239 304.242709,-66.269837 L304.69729,-64.876106 C304.773267,-64.646216 304.84935,-64.4175253 304.925539,-64.1900339 L305.38395,-62.8394776 C305.537178,-62.3940897 305.690832,-61.9534993 305.84491,-61.5177069 L306.308418,-60.2247235 C306.385882,-60.0116254 306.463451,-59.7997267 306.541126,-59.5890277 L307.008451,-58.3392289 C309.820022,-50.9268106 312.768816,-45.0691637 315.852456,-40.7681094 L316.915791,-39.2961914 L317.587754,-38.3787064 L318.233343,-37.5076445 L318.855269,-36.6790528 L319.456247,-35.8889784 L320.324371,-34.7674399 L320.884848,-34.0563648 L321.83639,-32.8748884 L323.940809,-30.3157473 L324.40844,-29.7365792 L324.721374,-29.3373453 C325.027585,-28.9311841 325.299965,-28.5417523 325.564888,-28.1286802 L325.797811,-27.7562141 C325.836736,-27.6924001 325.875748,-27.6276491 325.9149,-27.5618576 L326.151936,-27.1537981 L326.394921,-26.7158099 L326.646419,-26.2429335 C326.689188,-26.1609379 326.732418,-26.077282 326.776163,-25.9918624 L327.045244,-25.4573543 L327.329253,-24.8755589 L327.788869,-23.9033527 L328.277092,-22.8401496 L329.097916,-21.0179884 L330.176364,-18.5790228 L331.35678,-15.8647173 L332.639176,-12.8750458 L333.785752,-10.1732849 L335.255147,-6.67870746 L337.09838,-2.25357256 L338.5,1.13679481 L337.632649,1.5 L335.163139,-4.45916792 L333.401154,-8.66556415 L331.778092,-12.4969666 L330.497484,-15.4825299 L329.318969,-18.1925307 L328.590018,-19.8460947 L327.742651,-21.740795 L327.268273,-22.7857401 L326.808788,-23.7791032 L326.525959,-24.375527 L326.259424,-24.9241764 L326.007042,-25.4292345 L325.766666,-25.8948843 L325.536155,-26.325309 C325.498439,-26.3943434 325.461045,-26.4620844 325.423929,-26.5286191 L325.204194,-26.9140493 L324.988965,-27.274712 L324.776097,-27.6147903 C324.524482,-28.0071135 324.265759,-28.3770186 323.973538,-28.7646233 L323.652718,-29.1733171 L320.977974,-32.4353987 L320.429888,-33.1156071 L319.871744,-33.8185354 C319.777731,-33.9378031 319.683186,-34.0581821 319.588052,-34.1797548 L318.714427,-35.3083628 L318.109829,-36.1031674 L317.162872,-37.3688549 L316.159707,-38.7345774 L315.45518,-39.7072219 L315.091174,-40.2136754 C312.311138,-44.0912634 309.647454,-49.1947297 307.098452,-55.5253532 L306.621858,-56.7267261 C306.463441,-57.1319776 306.305471,-57.5420229 306.147949,-57.9568625 L305.676723,-59.215764 C305.520095,-59.6401923 305.363913,-60.0694151 305.208178,-60.5034327 L304.742311,-61.8198704 C304.587468,-62.263478 304.433071,-62.7118808 304.279119,-63.165079 L303.818601,-64.5390603 L303.360753,-65.9418162 L302.905574,-67.3733486 C302.829933,-67.6143354 302.754403,-67.8565214 302.678984,-68.0999065 L302.227803,-69.5746072 C302.152828,-69.822789 302.077964,-70.07217 302.003211,-70.3227503 L301.556022,-71.8406234 C301.481712,-72.0960008 301.407513,-72.3525776 301.333424,-72.6103538 L300.890222,-74.1714036 C300.816576,-74.4339774 300.743041,-74.6977506 300.669617,-74.9627234 L300.230396,-76.566954 L299.793826,-78.1999743 C299.721285,-78.4745436 299.648855,-78.7503125 299.576535,-79.0272811 L299.143937,-80.7034893 C299.072058,-80.9852568 299.000289,-81.268224 298.928631,-81.5523911 L298.5,-83.2717914 Z" id="路径" fill="url(#radialGradient-12)" fill-rule="nonzero" opacity="0.797921317" mask="url(#mask-3)"></path>
                    <path d="M339.49785,62.5 L339.5,63.4478712 C315.809266,63.5038316 301.534809,73.6313301 296.551453,93.8832077 L296.403286,94.5 L295.5,94.2794429 C300.399554,73.3799008 314.864793,62.7707697 338.770544,62.5048909 L339.49785,62.5 Z" id="路径" fill="url(#radialGradient-13)" fill-rule="nonzero" opacity="0.797921317" mask="url(#mask-3)"></path>
                    <path d="M251.528918,88.8725872 C253.871422,87.8939436 253.870382,82.6950743 251.526595,77.2605876 C249.182807,71.8261009 245.383818,68.2139264 243.041314,69.1925699 C240.69881,70.1712135 240.69985,75.3700828 243.043637,80.8045695 C245.387424,86.2390562 249.186414,89.8512308 251.528918,88.8725872 Z" id="椭圆形" fill="#976203" filter="url(#filter-14)" mask="url(#mask-3)"></path>
                    <path d="M309.816251,63.4178327 C308.329472,62.0247639 303.752396,64.5285539 299.593065,69.0102043 C295.433733,73.4918546 293.267202,78.2542555 294.753981,79.6473244 C296.240759,81.0403932 300.817836,78.5366032 304.977167,74.0549529 C309.136498,69.5733025 311.30303,64.8109016 309.816251,63.4178327 Z" id="椭圆形" fill="#976203" filter="url(#filter-15)" mask="url(#mask-3)"></path>
                </g>
                <g id="币1" transform="translate(251.285116, 47.030000)">
                    <g id="编组-17" transform="translate(-0.285116, 2.967421)">
                        <path d="M3.0125012,9.18444546 L3.0125012,9.18444546 C2.9918826,9.20238004 2.96831848,9.21433643 2.94475437,9.232271 C1.23046493,10.4308985 0.284954783,12.4694621 0.0434225949,14.9504118 C-0.101765352,16.9665731 0.11785655,18.9926769 0.691435782,20.928604 C0.691435782,20.928604 0.691435782,20.928604 0.691435782,20.928604 C1.18730234,22.6651663 1.87192315,24.340387 2.73267732,25.9233835 L2.73267732,25.9233835 C3.18270056,26.7611299 3.67424938,27.575207 4.20543457,28.3624859 C4.66493483,29.0380216 5.1479992,29.6836664 5.64579115,30.293442 L5.64579115,30.293442 C6.77110155,31.6838753 8.04331792,32.9448445 9.43961381,34.0537249 C9.43961381,34.0537249 9.43961381,34.0537249 9.43961381,34.0537249 C10.96334,35.2931181 12.6861511,36.2567569 14.5324084,36.9023334 L14.5324084,36.9023334 C17.100897,37.7512367 19.5221099,37.6316729 21.366002,36.3433725 L21.4308033,36.2925578 L21.4308033,36.2925578 L26.5118158,32.7325444 L24.3615902,29.5401898 C24.3481937,27.7372116 24.0671794,25.9465721 23.5280096,24.228566 C23.5280096,24.228566 23.5280096,24.228566 23.5280096,24.228566 C23.0002015,22.5101352 22.2890634,20.8553288 21.4072392,19.2935684 L21.4072392,19.2935684 C21.0145039,18.6040836 20.5923135,17.9205769 20.140668,17.2430485 C19.6051343,16.455493 19.0289742,15.6971986 18.4145965,14.9713355 C17.2599602,13.5852712 15.9557829,12.3349895 14.5265173,11.2439327 L14.5265173,11.2439327 C13.2337288,10.2483792 11.8087237,9.44331906 10.293813,8.8526558 L8.09351369,5.62742113 L3.0125012,9.18444546 Z" id="路径" fill="#FFC100" fill-rule="nonzero"></path>
                        <ellipse id="椭圆形" fill="url(#linearGradient-16)" fill-rule="nonzero" transform="translate(17.280344, 19.273568) rotate(-34.620000) translate(-17.280344, -19.273568) " cx="17.280344" cy="19.2735683" rx="9.71401022" ry="16.4103999"></ellipse>
                        <path d="M8.04933098,5.70513763 C7.36537718,6.23351044 6.79336173,6.89633404 6.3674422,7.65402827 C5.95531398,8.41100399 5.66308235,9.22905324 5.50146094,10.0781852 C5.20190316,11.7799897 5.21788608,13.5235756 5.54858917,15.2194305 C5.85763744,16.9203824 6.36488072,18.5780127 7.05963811,20.1574172 C7.74835649,21.7412821 8.58476289,23.254676 9.55743439,24.6769305 C10.5267894,26.102712 11.6285372,27.4309583 12.8475741,28.643461 C14.0551948,29.8659238 15.4007856,30.9394617 16.8564193,31.8417938 C18.3001087,32.7540765 19.8981117,33.3865188 21.5692425,33.7069897 C22.4094038,33.8548962 23.2673324,33.8670022 24.1112215,33.7428589 C24.9604054,33.6056311 25.7731764,33.2944254 26.5000337,32.8281955 C25.798948,33.3498388 24.9951792,33.7117885 24.1436221,33.8893246 C23.2851969,34.0613336 22.4052671,34.093621 21.5368418,33.9849756 C19.8023879,33.7294588 18.1335985,33.1334917 16.6237237,32.2303762 C13.5839527,30.4727878 11.0714288,27.8961869 9.08320656,25.0027419 C7.09498428,22.1092969 5.63695461,18.8063457 5.09497994,15.2971469 C4.79996918,13.5438411 4.84298303,11.7491041 5.22163707,10.0124251 C5.42975584,9.14999496 5.77178474,8.32666629 6.23489405,7.57332268 C6.69907024,6.82445427 7.31819109,6.18699352 8.04933098,5.70513763 Z" id="路径" fill="#FEFF5A" fill-rule="nonzero"></path>
                        <path d="M10.8181146,23.8011253 C13.0861608,27.1489129 15.9639284,29.7135573 18.9182794,31.0586506 C22.4528968,32.6667843 24.4941384,31.8417938 25.3984113,31.2081054 C26.3026843,30.574417 27.7901691,28.924436 27.5574734,25.005731 C27.366015,21.7177253 26.0081328,18.0799954 23.7283046,14.7471533 C21.4484764,11.4143111 18.5972184,8.83472122 15.6399218,7.48663889 C12.1053044,5.8785052 10.0640629,6.70349572 9.15978994,7.33718409 C8.25551699,7.97087246 6.76508666,9.62085349 7.00072782,13.5425476 C7.19218626,16.821586 8.55006844,20.4652941 10.8181146,23.8011253 Z" id="路径" fill="url(#linearGradient-17)" fill-rule="nonzero"></path>
                        <path d="M18.9182794,31.0586506 C19.8618371,31.4460977 20.8526253,31.7024868 21.8637939,31.8208701 C22.846142,31.9322591 23.8396397,31.7635362 24.732725,31.3336474 C25.5936248,30.8758861 26.2675298,30.1242576 26.6355274,29.2113892 C27.0105403,28.290287 27.2104236,27.3054951 27.2246303,26.3089769 C27.2346205,24.282895 26.8720087,22.2727067 26.1554085,20.3815994 C25.4590705,18.4748665 24.5245896,16.6666533 23.3748429,15.0012264 C22.2466929,13.3200975 20.9113674,11.792239 19.4013438,10.4548113 C17.9122806,9.10482875 16.1881427,8.04855217 14.3173858,7.34017318 C13.3964738,6.99812767 12.4198847,6.83684299 11.4396182,6.86490691 C10.4670309,6.88942177 9.53430381,7.2621038 8.8063282,7.91706873 C8.08842374,8.61631658 7.57817968,9.50588597 7.33357096,10.4847023 C7.08648462,11.4839495 6.9745101,12.5126646 7.00072782,13.5425476 C6.88042992,12.5046528 6.91818126,11.454155 7.11265737,10.4279094 C7.30688481,9.37151873 7.78963153,8.39173994 8.50588572,7.60022454 C9.28579578,6.82840337 10.3090322,6.36055193 11.3954354,6.27904407 C12.4566659,6.20150896 13.522561,6.33659026 14.5324084,6.67659385 C16.5207898,7.35255357 18.3591524,8.41786411 19.9433185,9.81215564 C23.119538,12.5650158 25.5328765,16.1113417 26.9448064,20.1006244 C27.6648502,22.0972512 27.9940266,24.2172811 27.9138807,26.341857 C27.8668372,27.4215369 27.6127047,28.4815367 27.16572,29.4624733 C26.7051918,30.4637543 25.9114703,31.2681611 24.9241835,31.7341863 C23.9411883,32.133181 22.8675293,32.2439997 21.8255022,32.0540196 C20.8117179,31.8760629 19.8310901,31.5403176 18.9182794,31.0586506 Z" id="路径" fill="#E2A106" fill-rule="nonzero"></path>
                        <polygon id="路径" fill="#FF0500" fill-rule="nonzero" points="24.5059204 20.9106694 23.8932534 21.4965322 23.804888 21.5772378 24.417555 20.9943641"></polygon>
                        <g filter="url(#filter-18)" id="编组-20">
                            <g transform="translate(9.983129, 12.893914)">
                                <path d="M9.81585944,1.82633771 C9.67718474,1.61783934 9.49265324,1.44490357 9.27683029,1.32118047 C9.1108602,1.22953781 8.930467,1.16784279 8.74369217,1.13884561 L8.62587159,1.13884561 C8.4290364,1.12759236 8.23502303,1.19038238 8.08095141,1.31520228 L8.08095141,1.31520228 L7.4682844,1.91302149 L7.4682844,1.91302149 C7.62300472,1.78943727 7.81654542,1.72680022 8.01320458,1.73666482 C8.05242368,1.73369755 8.09180605,1.73369755 8.13102516,1.73666482 C8.31799089,1.76311642 8.49864914,1.82388922 8.66416328,1.91601059 C8.8793594,2.04060429 9.06371231,2.21337269 9.20319243,2.42116783 L13.8217591,8.6982696 L14.4344262,8.10045038 L9.81585944,1.82633771 Z" id="路径" fill="#008EFF" fill-rule="nonzero"></path>
                                <path d="M7.80996408,2.52578619 L5.99258164,1.99970528 L6.04854641,1.54237358 L6.09862016,1.10297645 C6.14689579,0.68429133 6.33505333,0.295023838 6.63175828,6.18552828e-15 L6.01909127,0.582873736 C5.72297003,0.878325284 5.53491936,1.26737167 5.48595314,1.68585019 L5.4358794,2.1372037 L5.37991462,2.59752449 L7.19729706,3.12061631 L7.80996408,2.52578619 Z" id="路径" fill="#008EFF" fill-rule="nonzero"></path>
                                <path d="M8.98522436,9.50532554 C8.86420551,9.4896425 8.74421036,9.46668575 8.62587159,9.43657633 C7.70254178,9.18551862 6.89301876,8.61849311 6.33426132,7.83143173 C5.41820631,6.59992415 5.48595314,6.05590866 5.61555578,5.06053966 L5.63322887,4.90510667 L7.78050893,5.47901312 C7.80701856,5.47901312 7.96018531,5.52384956 8.09567898,5.568686 C8.44366378,5.6056659 8.7581065,5.79581167 8.95576921,6.08878872 C9.18179571,6.37765161 9.30897432,6.73335448 9.31806749,7.10209229 C9.33169189,7.38631989 9.22442578,7.66280704 9.02351605,7.86132269 L9.63618306,7.26350348 C9.83644822,7.06455343 9.94359551,6.78837255 9.93073451,6.50427307 C9.92164133,6.13553526 9.79446272,5.7798324 9.56843623,5.4909695 C9.36587519,5.20626451 9.05269773,5.02341422 8.70834599,4.98880136 C8.57285233,4.94695401 8.41379455,4.91108486 8.39317594,4.90211757 L4.2989108,3.79316293 C4.21467167,3.7652061 4.12780696,3.74617372 4.03970553,3.7363701 C3.86683556,3.71944245 3.69238206,3.73877382 3.52718601,3.79316293 C3.38723989,3.83484656 3.25903572,3.90962906 3.15310567,4.01136694 L2.54043865,4.60918616 C2.6463687,4.50744828 2.77457287,4.43266577 2.914519,4.39098214 C3.0809467,4.34262142 3.25537707,4.32939644 3.42703852,4.35212389 C3.51490323,4.36337021 3.60163373,4.38237318 3.68624379,4.40891672 L5.50657175,4.89613938 L5.0293984,5.31461283 L4.99110671,5.6434134 C4.86150407,6.64177149 4.79375724,7.18279788 5.70981225,8.41430547 C6.26945327,9.20106808 7.07848816,9.76880696 8.00142252,10.0224392 C8.11981457,10.051577 8.23981113,10.0735359 8.36077529,10.0881993 C9.00330353,10.1889927 9.65790876,10.0098947 10.1634302,9.59499842 L10.242959,9.52326011 L10.8556261,8.9254409 L10.7760972,9.0001683 C10.2753921,9.41602173 9.62557974,9.59931639 8.98522436,9.50532554 L8.98522436,9.50532554 Z" id="路径" fill="#008EFF" fill-rule="nonzero"></path>
                                <path d="M7.50363057,13.8933186 C6.94472946,13.8084725 6.44333936,13.498013 6.11334773,13.0324589 L1.46532587,6.75535714 C1.00600783,6.17834039 0.717917671,5.48063337 0.634690781,4.74369548 C0.549728391,4.10100964 0.705275263,3.449352 1.07062692,2.91735777 C1.16829471,2.76858419 1.28189858,2.63124498 1.40936109,2.50785161 L0.796694077,3.10567083 C0.669231563,3.22906419 0.555627697,3.3664034 0.457959911,3.51517699 C0.0940555944,4.04557369 -0.0614235096,4.69481526 0.0220237669,5.3355365 C0.105250657,6.07247439 0.393340818,6.77018141 0.852658853,7.34719817 L5.50068072,13.6242999 C5.82973494,14.0908789 6.33159308,14.4016283 6.89096356,14.4851596 C7.34404105,14.5492824 7.80152246,14.4033125 8.13691618,14.0876098 L8.7495832,13.4897906 C8.41457722,13.8065239 7.95750664,13.9545558 7.50363057,13.8933186 L7.50363057,13.8933186 Z" id="路径" fill="#008EFF" fill-rule="nonzero"></path>
                            </g>
                        </g>
                        <path d="M20.6944247,17.6166855 C21.2052563,18.2838033 21.5041854,19.092742 21.5515694,19.9362241 C21.6054238,20.6799716 21.3172597,21.4071787 20.7710081,21.9060384 C20.2654867,22.3209347 19.6108814,22.5000327 18.9683532,22.3992392 C18.8473343,22.3835562 18.7273392,22.3605995 18.6090004,22.33049 C17.6856706,22.0794323 16.8761476,21.5124068 16.3173901,20.7253454 C15.4013351,19.4938378 15.469082,18.9498224 15.5986846,17.9544534 L15.6369763,17.6256528 L17.5162145,18.1098864 C17.4985415,18.2324393 17.4720318,18.5582508 17.4690863,18.6150436 C17.3762652,18.9970284 17.4657136,19.4010742 17.7106185,19.7060637 C17.9412558,20.0236824 18.2666141,20.2574234 18.6384556,20.3726321 C18.7034054,20.3896158 18.7693092,20.4025923 18.835805,20.4114903 C19.1171626,20.4615539 19.4054964,20.3764423 19.6164946,20.181043 C19.8274929,19.9856437 19.9373207,19.7020296 19.9138633,19.4131323 C19.9047702,19.0443944 19.7775916,18.6886916 19.5515651,18.3998287 C19.3519325,18.1094757 19.038318,17.9209207 18.6914748,17.8827151 C18.5559812,17.8408677 18.3969234,17.8049986 18.3763048,17.7960313 L14.2820396,16.6870766 C14.1978005,16.6591198 14.1109358,16.6400874 14.0228344,16.6302838 C13.8499644,16.6133561 13.6755109,16.6326875 13.5103148,16.6870766 C13.2795066,16.7572751 13.0810203,16.9088724 12.9506671,17.1145174 C12.8176651,17.3376698 12.764606,17.6005562 12.8004458,17.8588023 C12.8489306,18.1488146 12.9695796,18.4214621 13.1509621,18.6509128 L18.8564236,26.2701187 L18.732712,26.3896825 C18.3966747,26.704259 17.9397296,26.8500578 17.4867594,26.7872323 C16.9278583,26.7023862 16.4264682,26.3919267 16.0964766,25.9263726 L11.4484547,19.6492708 C10.9891367,19.0722541 10.7010465,18.3745471 10.6178196,17.6376092 C10.5328572,16.9949233 10.6884041,16.3432657 11.0537558,15.8112715 C11.3897195,15.311348 11.8932125,14.9523073 12.4705482,14.800957 C12.8628966,14.6931795 13.2726249,14.6667478 13.6752636,14.7232405 C13.8976943,14.7513795 14.1174121,14.7983729 14.3321134,14.863728 L18.3026669,16.1191484 C18.4764523,16.1639848 18.5294715,16.1849085 18.5824908,16.2028431 C19.430799,16.418058 19.9138633,16.5645237 20.6944247,17.6166855 Z M24.3880998,18.7943894 L20.9035562,14.0626503 C20.560721,13.5900816 20.1292951,13.1908727 19.6340395,12.8879355 C19.2154746,12.6325137 18.7489641,12.4686008 18.2643752,12.406691 L18.1023719,12.406691 C17.6234193,12.3720334 17.1469808,12.5026488 16.7503808,12.777339 C16.3696912,13.0753294 16.1250669,13.5178509 16.0729124,14.0028683 L16.0228387,14.4542219 L15.9757105,14.893619 L17.7930929,15.4167108 L17.7930929,15.1626376 L17.8313846,14.7172623 C17.8361583,14.5198884 17.920224,14.3330712 18.0640802,14.2001487 C18.2181519,14.0753288 18.4121652,14.0125388 18.6090004,14.023792 L18.726821,14.023792 C18.9135958,14.0527892 19.093989,14.1144842 19.2599591,14.2061269 C19.4757821,14.32985 19.6603136,14.5027858 19.7989883,14.7112841 L24.417555,20.9883859 L24.5059204,20.9046912 C24.9801483,20.4593159 24.9182925,19.529707 24.3880998,18.7943894 L24.3880998,18.7943894 Z" id="形状" fill="url(#linearGradient-19)" fill-rule="nonzero"></path>
                    </g>
                    <g id="编组-15" transform="translate(36.714884, -0.032579)">
                        <path d="M28.0852339,9.91974636 L28.0852339,9.91974636 L28.1301505,9.96466301 C29.2261168,11.1983736 29.5944333,12.9171841 29.3279279,14.8366223 C29.3293502,14.8585585 29.3293502,14.8805638 29.3279279,14.9025 C29.0654238,16.4767641 28.5152528,17.9892267 27.7049396,19.3642205 L27.7049396,19.3642205 C26.9954846,20.6015601 26.1497808,21.7556144 25.1836183,22.8048359 L25.1836183,22.8048359 C24.6744351,23.3623186 24.1367109,23.8930464 23.5726078,24.3948853 C23.087508,24.8260851 22.5934249,25.2253442 22.0903584,25.5926626 L22.0903584,25.5926626 C20.9531973,26.4447362 19.7261471,27.16972 18.4311487,27.7546507 C18.4311487,27.7546507 18.4311487,27.7546507 18.4311487,27.7546507 C17.0141695,28.4129611 15.4950577,28.824134 13.9394837,28.9703946 L13.9394837,28.9703946 C11.7804901,29.1320946 9.92094082,28.5781226 8.72915239,27.236612 L8.68723018,27.1887009 L8.68723018,27.1887009 L5.39334255,23.4935578 L7.70505278,21.4363753 C8.05222745,20.0562557 8.60650055,18.7367021 9.34900215,17.5226379 C9.34900215,17.5226379 9.34900215,17.5226379 9.34900215,17.5226379 C10.0809026,16.3056677 10.9445078,15.172939 11.9242234,14.1449059 L11.9242234,14.1449059 C12.3534269,13.6897505 12.8105786,13.2465729 13.2956784,12.815373 C13.8461735,12.3142509 14.4218535,11.8415137 15.0204778,11.3990013 L15.0204778,11.3990013 C16.1756175,10.5648639 17.4199771,9.86183583 18.730593,9.30289104 L18.730593,9.30289104 C19.9223968,8.78527246 21.1816452,8.43945804 22.4706527,8.27579699 L24.7823629,6.22160888 L28.0852339,9.91974636 Z" id="路径" fill="#FFCF00" fill-rule="nonzero"></path>
                        <ellipse id="椭圆形" fill="url(#linearGradient-20)" fill-rule="nonzero" transform="translate(15.109868, 14.914752) rotate(-41.630000) translate(-15.109868, -14.914752) " cx="15.1098683" cy="14.9147519" rx="13.016845" ry="7.74363038"></ellipse>
                        <path d="M24.8422518,6.27251442 C25.3257647,6.77665219 25.6927335,7.38077073 25.9172569,8.04223041 C26.1418097,8.71025463 26.2590496,9.40965164 26.2646124,10.1143852 C26.2421273,11.5233481 25.9430055,12.9141625 25.384246,14.2077892 C24.2680754,16.7870214 22.5891284,19.0839354 20.4703646,20.9303144 C18.3890001,22.8228273 15.9111439,24.2264684 13.2178229,25.0386906 C11.8661642,25.4395953 10.449063,25.5718445 9.04656338,25.4279682 C8.34697361,25.3380167 7.66647738,25.135789 7.03130304,24.8290796 C6.40008152,24.5277472 5.84213897,24.0924294 5.39633699,23.5534467 C5.88159419,24.0396436 6.45875185,24.4244154 7.09418635,24.6853463 C7.72664295,24.9354629 8.39466361,25.0840242 9.07351337,25.1255294 C10.4323652,25.1911227 11.7916532,25.0053499 13.0830729,24.5775463 C14.3799496,24.1623424 15.6232655,23.5954627 16.7871993,22.8886803 C17.9596356,22.1899447 19.0626122,21.380761 20.0810869,20.4721646 C21.1033464,19.5648127 22.0368391,18.5621352 22.8689137,17.4777213 C23.7010662,16.4036857 24.404562,15.2358827 24.965024,13.9981781 C25.5436837,12.766966 25.8879276,11.438733 25.9801402,10.0814463 C26.0203146,9.40214101 25.9515722,8.72078236 25.7765181,8.06319151 C25.586849,7.4102804 25.2692716,6.80159041 24.8422518,6.27251442 Z" id="路径" fill="#FEFF5A" fill-rule="nonzero"></path>
                        <path d="M19.338465,19.6756426 C16.9219493,21.8256529 14.1670614,23.2689746 11.5858513,23.7450911 C8.49858025,24.3140353 7.04627525,23.2809524 6.45337548,22.6131915 C5.86047571,21.9454307 5.00406492,20.3823313 5.93234235,17.387888 C6.69592539,14.87555 8.46564138,12.2973343 10.888146,10.1622963 C13.3106506,8.02725819 16.0595496,6.5689643 18.6437542,6.08985338 C21.7280308,5.52390359 23.1833302,6.55698653 23.7732355,7.22175294 C24.3631409,7.88651936 25.2225461,9.45560765 24.2972631,12.4530454 C23.5187079,14.9593944 21.7579752,17.5256323 19.338465,19.6756426 Z" id="路径" fill="url(#linearGradient-21)" fill-rule="nonzero"></path>
                        <path d="M11.5858513,23.7450911 C10.7710655,23.948983 9.92983474,24.0267438 9.09148003,23.9756632 C8.22937741,23.9277667 7.39861643,23.6359619 6.69592539,23.1342246 C5.99444221,22.5795781 5.51180899,21.7946361 5.33345368,20.9183366 C5.16431864,20.0632219 5.16431864,19.1832578 5.33345368,18.3281431 C5.67091885,16.6532782 6.33207807,15.0603931 7.27984183,13.6388449 C9.15621939,10.8039376 11.7423939,8.50993371 14.7809223,6.98519192 C16.3040002,6.20952796 17.9642001,5.73954491 19.6678538,5.60175912 C20.536565,5.5340043 21.4101649,5.63570394 22.2400806,5.90120345 C23.0896966,6.18344762 23.8127425,6.75594729 24.2822909,7.51820283 C24.6987682,8.27733573 24.8899147,9.13957266 24.8332685,10.0035908 C24.7819988,10.8383669 24.6032569,11.6603776 24.303252,12.4410676 C24.5065056,11.6449749 24.6011892,10.8250558 24.5847297,10.0035908 C24.5730524,9.20463878 24.3386837,8.42479223 23.9079855,7.75176941 C23.4622913,7.11713571 22.8069694,6.66010698 22.0574195,6.46116435 C21.2964205,6.25851848 20.5041282,6.2006202 19.7217537,6.29048108 C18.1261849,6.48466924 16.5806909,6.97410955 15.164211,7.73380275 C12.2888877,9.24882894 9.82466613,11.4397048 7.98353601,14.1179559 C7.06213712,15.4354421 6.39398001,16.912902 6.01319231,18.4748709 C5.83218066,19.2409921 5.79662955,20.0342896 5.9083868,20.8135311 C6.01792816,21.5821941 6.39548055,22.2874535 6.97440861,22.8048359 C7.59214463,23.3113238 8.33867492,23.6358571 9.13040779,23.7420966 C9.94489393,23.8554765 10.771091,23.8564841 11.5858513,23.7450911 Z" id="路径" fill="#E2A106" fill-rule="nonzero"></path>
                        <g id="编组" transform="translate(9.390924, 9.003447)">
                            <g filter="url(#filter-22)" id="编组-21">
                                <g transform="translate(0.275489, 0.841439)">
                                    <path d="M4.47369829,1.30857172 L4.50663717,1.28162173 C4.52959175,1.26102992 4.55468902,1.24295988 4.58149825,1.22772175 L4.60844824,1.20676065 C4.63240379,1.18879399 4.65935378,1.17681622 4.68330932,1.161844 L4.71924264,1.1408829 C4.75597286,1.12048632 4.79398151,1.10248222 4.83303149,1.08698292 C4.92818422,1.04796214 5.02966457,1.02665127 5.13247582,1.02409961 C5.20221965,1.01815327 5.27234302,1.01815327 5.34208685,1.02409961 C5.49164148,1.04647283 5.62902298,1.1193907 5.73136448,1.2307162 C5.73222444,1.23667421 5.73222444,1.24272484 5.73136448,1.24868286 L5.37802017,0.760588598 L5.37802017,0.745616382 C5.27726505,0.632254825 5.13909445,0.558918125 4.98874254,0.538999794 C4.91899688,0.533096599 4.84887717,0.533096599 4.77913151,0.538999794 C4.67650475,0.543086022 4.5752883,0.564341477 4.47968718,0.601883104 C4.4406372,0.617382408 4.40262855,0.635386507 4.36589833,0.655783083 L4.32996501,0.676744186 L4.2670817,0.712677506 L4.2670817,0.712677506 L4.24013171,0.733638609 C4.21398629,0.749889372 4.18897502,0.767897488 4.16527063,0.787538588 L4.13233176,0.814488578 L4.10837621,0.835449681 L4.04249846,0.89833299 L1.30128466e-14,4.9857481 L0.35334431,5.47384235 L4.38386499,1.39241614 L4.47369829,1.30857172 Z" id="路径" fill="#1294FF" fill-rule="nonzero"></path>
                                    <path d="M3.87181519,4.92885367 C3.87037656,4.90491973 3.87037656,4.88092098 3.87181519,4.85698703 L3.87181519,4.81207038 C3.87045354,4.79612904 3.87045354,4.78010063 3.87181519,4.76415929 C3.87181519,4.76415929 3.87181519,4.73421486 3.87181519,4.71924264 C3.87181519,4.70427043 3.87181519,4.6952871 3.87181519,4.68330932 C3.8876847,4.63811796 3.90669591,4.59409201 3.92870961,4.55155382 L3.92870961,4.55155382 C3.94967071,4.51262605 3.97362626,4.47369829 3.99758181,4.43477053 L4.01554847,4.40782054 L4.10238732,4.29103725 L4.17425396,4.21318172 C4.19968959,4.18757489 4.22669159,4.16357311 4.25510393,4.14131509 L4.27606503,4.12334843 L4.35392056,4.06345956 L4.35392056,4.06345956 L4.4257872,4.0245318 L4.44974275,4.0245318 L4.50963161,4.00357069 L4.53059271,4.00357069 L4.61144268,3.98260959 L4.61144268,3.98260959 L4.6952871,3.98260959 L4.72223709,3.98260959 L4.79410373,3.98260959 L4.82105371,3.98260959 L4.91987034,3.98260959 L5.21931467,3.96164849 L5.30914797,3.96164849 L5.34508129,2.66206009 L4.99173698,2.17396584 L4.95580366,3.47355423 L4.86597036,3.47355423 L4.56652603,3.49451533 L4.46770941,3.49451533 L4.5156205,3.49451533 L4.44375386,3.49451533 L4.41680387,3.49451533 L4.33295946,3.49451533 L4.33295946,3.49451533 C4.30571086,3.49907104 4.27872299,3.50506834 4.25210949,3.51248199 L4.22815394,3.51248199 L4.17125952,3.5334431 L4.14730397,3.5334431 C4.12209496,3.54514822 4.09803483,3.5591833 4.07543733,3.5753653 L4.07543733,3.5753653 L3.99758181,3.63225972 L3.9766207,3.65022638 L3.95266516,3.67118749 C3.93223324,3.68753932 3.91320232,3.70556861 3.89577073,3.72508747 C3.87128154,3.74858724 3.84827962,3.77358932 3.82689854,3.79994855 L3.82689854,3.79994855 C3.79695411,3.83588187 3.76700967,3.87480963 3.74005968,3.91373739 L3.74005968,3.91373739 L3.74005968,3.93170405 C3.71470112,3.96916491 3.69169924,4.00816811 3.67118749,4.04848734 L3.67118749,4.04848734 C3.64917378,4.09102553 3.63016258,4.13505148 3.61429306,4.18024285 C3.61589273,4.1851054 3.61589273,4.19035251 3.61429306,4.19521506 C3.61467545,4.20219687 3.61467545,4.20919437 3.61429306,4.21617617 C3.61429306,4.21617617 3.61429306,4.2461206 3.61429306,4.26109282 C3.61293141,4.27703416 3.61293141,4.29306257 3.61429306,4.30900391 L3.61429306,4.35392056 C3.61289061,4.36284915 3.61289061,4.37194196 3.61429306,4.38087055 C3.61283126,4.39580709 3.61283126,4.41085066 3.61429306,4.4257872 C3.60986292,4.47859628 3.60986292,4.53168361 3.61429306,4.58449269 C3.61265022,4.60142144 3.61265022,4.61846948 3.61429306,4.63539823 C3.61429306,4.67133155 3.61429306,4.70427043 3.61429306,4.7372093 L3.63225972,4.79410373 C3.64043236,4.82364247 3.65043312,4.85264467 3.66220416,4.88094258 C3.66936721,4.90071733 3.678391,4.91976756 3.68915415,4.937837 C3.68915415,4.95580366 3.68915415,4.97377032 3.71310969,4.98874254 L3.74904301,5.03964808 L4.10238732,5.52774233 C4.07958238,5.49555919 4.05954764,5.46150014 4.04249846,5.42593126 C4.03173531,5.40786182 4.02271152,5.38881159 4.01554847,5.36903684 C4.00377743,5.34073893 3.99377667,5.31173672 3.98560403,5.28219798 L3.96763737,5.22530356 C3.96763737,5.19236468 3.96763737,5.15942581 3.96763737,5.12349249 C3.96619244,5.10655474 3.96619244,5.0895247 3.96763737,5.07258695 C3.93139445,5.02768783 3.89932095,4.97957757 3.87181519,4.92885367 L3.87181519,4.92885367 Z" id="路径" fill="#1294FF" fill-rule="nonzero"></path>
                                    <path d="M7.96521918,3.7340708 L8.40839679,3.70412636 L8.45930233,3.70412636 C8.65413998,3.69487911 8.84806096,3.73613889 9.02225767,3.8239041 C9.14215391,3.89247731 9.24462324,3.98777379 9.321702,4.10238732 L8.96835769,3.61429306 C8.89092709,3.5007695 8.78848479,3.40652259 8.66891336,3.33880428 C8.49574047,3.24816352 8.30103117,3.20673601 8.10595802,3.21902655 L8.05505248,3.21902655 L7.61187487,3.25196542 L7.37531385,3.2849043 L7.72865816,3.77299856 L7.96521918,3.7340708 Z" id="路径" fill="#1294FF" fill-rule="nonzero"></path>
                                    <path d="M4.83602593,7.33638609 L4.8959148,7.33638609 C4.95738186,7.32757289 5.01835069,7.31557902 5.07857584,7.30045277 L5.12049804,7.30045277 L5.33609796,7.23457502 L5.38999794,7.21361391 C5.44789051,7.19165466 5.50478494,7.16769912 5.56068121,7.14174727 L5.61458119,7.11779173 C5.68644783,7.08485285 5.75532002,7.04891953 5.82419222,7.00999177 L5.86012554,6.98903066 L5.97391439,6.92015847 L6.02182548,6.88721959 L6.10866433,6.82433628 L6.23443095,6.7285141 L6.31228648,6.64466969 L6.35720313,6.60574192 C6.39912533,6.56681416 6.44404198,6.5278864 6.48596419,6.48296975 C6.5278864,6.4380531 6.57579749,6.390142 6.6177197,6.34522536 L6.65664746,6.30330315 L6.72252521,6.22844207 L6.72252521,6.22844207 L6.79738629,6.13261988 C6.81026397,6.11839031 6.82226392,6.10339038 6.83331961,6.08770323 C6.86820939,6.04495832 6.90022061,5.99994253 6.9291418,5.95295328 L6.9291418,5.95295328 C6.95524905,5.91539135 6.97924183,5.87640309 7.00100844,5.83616999 C7.00909215,5.82486652 7.01610928,5.81283716 7.02196954,5.80023667 C7.03411346,5.77990635 7.04511027,5.75891243 7.05490842,5.73735336 C7.05490842,5.73735336 7.05490842,5.73735336 7.05490842,5.72238115 C7.06366676,5.70936521 7.07071178,5.69527518 7.07586952,5.68045894 C7.07586952,5.65949784 7.09683062,5.63554229 7.10581395,5.61158675 C7.11214237,5.59709413 7.11715333,5.58206124 7.12078617,5.5666701 C7.12704262,5.55525984 7.13206186,5.54321367 7.13575839,5.53073678 C7.13575839,5.53073678 7.13575839,5.53073678 7.13575839,5.50678123 C7.13575839,5.48282568 7.1507306,5.45587569 7.15971393,5.43192015 C7.15835228,5.41597881 7.15835228,5.3999504 7.15971393,5.38400906 C7.16640746,5.3563919 7.17140751,5.3283916 7.17468615,5.30016464 C7.17607922,5.29023177 7.17607922,5.28015308 7.17468615,5.27022021 L7.17468615,5.27022021 C7.17468615,5.21931467 7.17468615,5.16840914 7.17468615,5.11450916 C7.17628357,5.1015824 7.17628357,5.08850815 7.17468615,5.0755814 C7.17468615,5.0276703 7.17468615,4.97676477 7.17468615,4.92585923 L7.17468615,4.92585923 C7.17468615,4.86896481 7.17468615,4.80907594 7.17468615,4.75218152 C7.17616729,4.73724593 7.17616729,4.72220046 7.17468615,4.70726487 C7.17468615,4.65037045 7.17468615,4.59048158 7.17468615,4.53059271 C7.1796988,4.4518187 7.1796988,4.37280571 7.17468615,4.29403169 L7.17468615,1.39541058 C7.17428214,1.32827127 7.16927969,1.26123848 7.15971393,1.19478288 C7.16116713,1.18585832 7.16116713,1.17675745 7.15971393,1.16783289 C7.15091291,1.10834042 7.13891781,1.04936449 7.12378061,0.991160733 L7.12378061,0.958221856 C7.10931619,0.901870854 7.09028854,0.846790829 7.06688619,0.793527475 C7.06801353,0.784579513 7.06801353,0.775525447 7.06688619,0.766577485 C7.04293058,0.71317305 7.01593641,0.661184261 6.98603622,0.610866433 L6.98603622,0.610866433 C6.96806956,0.583916444 6.9501029,0.553972011 6.9291418,0.527022021 L6.61173081,-1.54914841e-14 L6.66862523,0.0868388557 C6.69853597,0.138179448 6.72552878,0.191165334 6.7494752,0.245544351 C6.75054467,0.253493724 6.75054467,0.261550524 6.7494752,0.269499897 C6.77289561,0.323784075 6.7919215,0.379860375 6.80636962,0.437188722 L6.80636962,0.467133155 C6.82179087,0.526281551 6.83378855,0.586269986 6.84230294,0.646799753 C6.84230294,0.646799753 6.84230294,0.664766413 6.84230294,0.673749743 C6.84698404,0.739544339 6.84698404,0.805588405 6.84230294,0.871383001 L6.84230294,3.77000412 C6.84826695,3.84874502 6.84826695,3.92782423 6.84230294,4.00656514 C6.84230294,4.066454 6.84230294,4.12634287 6.84230294,4.18323729 C6.84378408,4.19817288 6.84378408,4.21321836 6.84230294,4.22815394 C6.84230294,4.28804281 6.84230294,4.34493723 6.84230294,4.40183165 L6.84230294,4.40183165 C6.84230294,4.45273719 6.84230294,4.50364272 6.84230294,4.55454826 C6.84377515,4.5664808 6.84377515,4.57854905 6.84230294,4.59048158 C6.84230294,4.64438156 6.84230294,4.6952871 6.84230294,4.74918708 L6.84230294,4.7851204 C6.8390243,4.81334735 6.83402425,4.84134765 6.82733073,4.86896481 C6.82629931,4.88491852 6.82629931,4.90092219 6.82733073,4.9168759 L6.80337518,4.99473143 C6.80337518,5.01269809 6.80337518,5.03365919 6.78241408,5.05462029 C6.78369244,5.06956522 6.78369244,5.08459201 6.78241408,5.09953694 L6.75246964,5.16541469 C6.74673592,5.18094046 6.73972487,5.19596413 6.73150854,5.21033134 C6.73150854,5.23428689 6.70755299,5.26123688 6.69258078,5.28519243 L6.67161967,5.32412019 C6.65065857,5.36005351 6.62670303,5.39898127 6.59975304,5.43790903 C6.57083185,5.48489828 6.53882062,5.52991407 6.50393085,5.57265898 C6.49287515,5.58834614 6.48087521,5.60334607 6.46799753,5.61757563 L6.39313645,5.71339782 L6.31528092,5.80023667 L6.27635316,5.84215888 C6.23443095,5.88707553 6.19250875,5.93498662 6.14459765,5.98289772 C6.09668656,6.03080881 6.03080881,6.09069767 5.97091994,6.14160321 L5.88707553,6.21047541 L5.76130891,6.30629759 L5.67447006,6.3691809 C5.62057008,6.40511422 5.5666701,6.44104754 5.51277012,6.47099197 L5.4768368,6.49195308 C5.40921164,6.53298431 5.33921911,6.56998036 5.26722577,6.60274748 L5.21332579,6.62670303 L5.04264252,6.69557522 L4.98874254,6.71653632 C4.9168759,6.74049187 4.84500926,6.76444742 4.77314262,6.78241408 L4.73122042,6.78241408 C4.67099527,6.79754033 4.61002643,6.8095342 4.54855937,6.8183474 L4.48867051,6.8183474 C4.41680387,6.8183474 4.34493723,6.83631406 4.27307059,6.8393085 C3.65308199,6.88978853 3.04639265,6.64043365 2.64109899,6.1685532 L2.56324347,6.06973657 L2.91658778,6.55783083 L2.9944433,6.65664746 C3.40061347,7.12731297 4.0066575,7.37640262 4.6264149,7.32740276 C4.69604405,7.33456811 4.76603905,7.33756789 4.83602593,7.33638609 Z" id="路径" fill="#1294FF" fill-rule="nonzero"></path>
                                    <path d="M11.3369623,4.88992591 C11.3369623,4.85399259 11.3369623,4.82105371 11.3369623,4.7851204 L11.3369623,4.69828154 C11.3369623,4.66534266 11.3369623,4.62940934 11.3369623,4.59347602 C11.3384455,4.56554756 11.3384455,4.53756007 11.3369623,4.50963161 C11.3369623,4.47369829 11.3369623,4.43776497 11.3369623,4.40183165 C11.3384129,4.37490118 11.3384129,4.34791215 11.3369623,4.32098168 C11.3369623,4.28504836 11.3219901,4.24911504 11.3160012,4.21318172 L11.2980346,4.13233176 C11.2980346,4.09639844 11.2770735,4.05747067 11.2650957,4.02153735 C11.2594955,3.9971989 11.2524969,3.97320354 11.2441346,3.94967071 L11.1992179,3.82689854 L11.1752624,3.76700967 C11.1513747,3.70676514 11.1243887,3.64779574 11.0944124,3.59033752 L10.7410681,3.10224326 C10.7710444,3.15970148 10.7980304,3.21867088 10.8219181,3.27891541 C10.8219181,3.29987652 10.8368903,3.32083762 10.8458736,3.33880428 L10.8907903,3.46157646 C10.8991526,3.48510928 10.9061512,3.50910464 10.9117514,3.5334431 C10.9117514,3.57237086 10.9357069,3.60830418 10.9446903,3.6442375 L10.9626569,3.72508747 C10.9626569,3.76102079 10.9776291,3.79695411 10.983618,3.83288743 C10.9852774,3.86081093 10.9852774,3.88880833 10.983618,3.91673184 C10.983618,3.94967071 10.983618,3.98560403 10.983618,4.02153735 C10.9852091,4.05046178 10.9852091,4.07945179 10.983618,4.10837621 C10.983618,4.14131509 10.983618,4.17724841 10.983618,4.21018728 L10.983618,4.29702614 C10.983618,4.33295946 10.983618,4.36589833 10.983618,4.40183165 C10.9852718,4.43075432 10.9852718,4.45974784 10.983618,4.48867051 C10.9807763,4.53296102 10.9747721,4.57699174 10.9656514,4.62042601 C10.9656514,4.68330932 10.9416958,4.74319819 10.9267236,4.8060815 L10.9087569,4.86597036 L10.8728236,4.98874254 C10.8728236,5.0067092 10.8578514,5.0276703 10.8488681,5.04863141 C10.8398847,5.06959251 10.8189236,5.12648693 10.800957,5.16541469 L10.7710126,5.23129245 C10.7710126,5.26722577 10.7350792,5.30315909 10.7171126,5.34208685 C10.7049687,5.36241718 10.6939718,5.38341109 10.6841737,5.40497016 L10.6123071,5.52175345 C10.6030781,5.53979272 10.5920419,5.55684864 10.5793682,5.57265898 C10.5494237,5.62356452 10.5134904,5.67147561 10.4775571,5.72238115 L10.4625849,5.74034781 C10.4236571,5.79424779 10.3787405,5.84814777 10.3338238,5.90204775 C10.2889072,5.95594773 10.2290183,6.01883104 10.1721239,6.07572546 L5.98589216,10.2110517 L5.90803663,10.2799239 L5.86311998,10.3158572 L5.79724223,10.3637683 L5.75532002,10.3937127 L5.72238115,10.4146738 L5.59661453,10.4865404 L5.55469232,10.5075015 C5.5040837,10.5315368 5.45208787,10.5525351 5.39898127,10.5703849 L5.37802017,10.5703849 C5.33197102,10.585522 5.28495076,10.5975271 5.23728133,10.6063182 L5.19535913,10.6063182 L5.03365919,10.6242848 C4.57680879,10.6478547 4.13885054,10.4395712 3.86882075,10.0703128 L4.21617617,10.5733793 C4.48718489,10.9457013 4.92696451,11.1571554 5.3870035,11.1363346 C5.4412442,11.1322899 5.49522421,11.1252925 5.54870344,11.1153735 L5.59062564,11.1153735 L5.73136448,11.0764458 L5.75232558,11.0764458 C5.8059051,11.0599003 5.85799344,11.0388646 5.90803663,11.0135625 L5.94995884,10.9955958 C5.99314197,10.9739176 6.03512509,10.9499272 6.07572546,10.9237292 L6.09668656,10.9237292 L6.09668656,10.9237292 L6.13860877,10.8937847 L6.20448652,10.8458736 L6.24940317,10.8099403 L6.28833093,10.7770014 C6.30204681,10.7647872 6.31504445,10.7517896 6.3272587,10.7380737 L10.5045071,6.56381972 C10.5614015,6.50692529 10.6153015,6.44703643 10.666207,6.38714756 L10.666207,6.38714756 L10.7859848,6.23443095 L10.800957,6.21346985 C10.8345774,6.17150042 10.8655788,6.12749848 10.8937847,6.08171434 L10.8937847,6.06674213 L10.9237292,6.01583659 L10.9955958,5.8990533 L11.0285347,5.83616999 L11.0584791,5.77628113 C11.0677023,5.75889063 11.0757067,5.74088065 11.0824347,5.72238115 C11.0942073,5.70128096 11.1042226,5.67924727 11.1123791,5.6565034 C11.1303458,5.61757563 11.145318,5.57864787 11.1602902,5.53972011 C11.1752624,5.50079234 11.1752624,5.50079234 11.1842457,5.48282568 C11.1824708,5.47595137 11.1824708,5.46873889 11.1842457,5.46186458 C11.1842457,5.42593126 11.2052068,5.39299239 11.2141902,5.35705907 C11.221952,5.33767149 11.2279648,5.31762873 11.2321568,5.2971702 C11.2482907,5.23699924 11.2612842,5.17602987 11.2710846,5.11450916 C11.2724922,5.09457102 11.2724922,5.07455844 11.2710846,5.05462029 L11.2710846,4.98275365 L11.3369623,4.88992591 Z" id="路径" fill="#1294FF" fill-rule="nonzero"></path>
                                </g>
                            </g>
                            <polyline id="路径" fill="#857573" fill-rule="nonzero" points="0.218594361 5.75232558 0.574933114 6.24041984 0.574933114 6.24041984 0.221588804 5.75232558 0.221588804 5.75232558"></polyline>
                            <polygon id="路径" fill="#80716F" fill-rule="nonzero" points="0.275488784 5.82718666 0.628833093 6.31528092 0.571938671 6.24041984 0.221588804 5.75232558"></polygon>
                            <g transform="translate(10.779996, 3.593332)" fill-rule="nonzero" id="路径">
                                <path d="M0.0775862069,0.106896552 L0.687931034,0.668965517 C0.760344828,0.734482759 0.827586207,0.8 0.889655172,0.868965517 L0.279310345,0.306896552 C0.217241379,0.237931034 0.15,0.172413793 0.0775862069,0.106896552" fill="#A3908E"></path>
                                <path d="M0.279310345,0.306896552 L0.889655172,0.868965517 C0.920281289,0.899948264 0.947923194,0.932197154 0.972413793,0.965517241 L0.362068966,0.403448276 C0.362068966,0.372413793 0.310344828,0.337931034 0.279310345,0.306896552" fill="#A89592"></path>
                            </g>
                            <polygon id="路径" fill="#80716F" fill-rule="nonzero" points="4.14430953 10.9267236 4.49765384 11.4148179 4.40782054 11.2950401 4.05447623 10.8069459"></polygon>
                            <path d="M4.54257049,7.71368594 C3.92258189,7.76416597 3.31589254,7.51481109 2.91059889,7.04293064 C2.54425878,6.58369825 2.39072081,5.99023591 2.48838238,5.41095905 C2.58790987,4.78822725 2.88500191,4.21398929 3.33580984,3.77299856 C4.02752624,3.07828771 4.38985388,3.04235439 5.09055361,2.97947108 L5.33310352,2.95252109 L5.2971702,4.25210949 L5.2073369,4.25210949 L4.90789257,4.27307059 C4.62373122,4.25177274 4.34553215,4.3621692 4.15329286,4.57251492 C3.95591402,4.76470532 3.82928469,5.017964 3.79395966,5.29118131 C3.75719262,5.5400431 3.83289269,5.79237666 4.00057625,5.97990327 C4.17024001,6.1578045 4.41140307,6.2492042 4.65635933,6.22844207 L4.68330932,6.22844207 C4.97484463,6.20196473 5.24703728,6.07118466 5.44988681,5.86012554 C5.65522303,5.6703137 5.75285089,5.39089604 5.71040338,5.11450916 C5.71040338,5.00371476 5.71040338,4.88094258 5.71040338,4.85998148 L5.76130891,2.02124923 C5.77462555,1.87103517 5.73078232,1.72132657 5.63853674,1.60202717 C5.53778161,1.48866561 5.39961102,1.41532891 5.24925911,1.39541058 C5.17951345,1.38950738 5.10939373,1.38950738 5.03964808,1.39541058 C4.93702132,1.39949681 4.83580487,1.42075226 4.74020375,1.45829389 C4.57181591,1.5267892 4.41902825,1.62864764 4.29103725,1.75773822 L0.275488784,5.82718666 L0.218594361,5.75232558 C-0.0808499691,5.34807574 0.0449166495,4.65037045 0.518038691,4.18024285 L3.56338753,1.11692735 C3.85978974,0.808261308 4.21932459,0.567209529 4.61743157,0.410238732 C4.87088191,0.304845518 5.14002374,0.242113211 5.41395349,0.224583248 C5.54398911,0.218608541 5.67429866,0.224622828 5.80323112,0.242549907 C6.17007927,0.277757749 6.51317176,0.439773649 6.77343075,0.700699732 C7.0276442,0.975791253 7.16600124,1.33830816 7.15971393,1.71282157 L7.15971393,4.61144268 C7.16567794,4.69018359 7.16567794,4.7692628 7.15971393,4.8480037 C7.20463058,5.5876312 7.21061947,6.04578102 6.42008644,6.83631406 C5.9235852,7.34991445 5.25507291,7.66231334 4.54257049,7.71368594 Z M10.9896069,3.94368183 C10.7439098,3.49859394 10.3691059,3.13840641 9.91460177,2.91059889 C9.48758221,2.70307257 9.0139223,2.61019808 8.54015229,2.64109899 L8.43235234,2.64109899 L8.0011525,2.6830212 L7.578936,2.72793785 L7.65080263,4.1143651 L7.88736366,4.08142622 L8.33054126,4.04848734 L8.38444124,4.04848734 C8.5795144,4.03619681 8.7742237,4.07762432 8.94739658,4.16826508 C9.12719712,4.26892061 9.27151928,4.4226551 9.36062976,4.60844824 C9.54610314,5.01433372 9.44115115,5.49393993 9.10310764,5.78526446 L4.05447623,10.8069459 L4.14430953,10.9267236 C4.41433933,11.295982 4.85229758,11.5042654 5.30914797,11.4806956 C5.66765677,11.4568422 6.00563236,11.3048594 6.26138094,11.0524902 L10.4356349,6.91716403 C10.8443723,6.52587124 11.1216285,6.01739387 11.2291624,5.46186458 C11.3195925,4.94323843 11.2353363,4.40926505 10.9896069,3.94368183 Z" id="形状" fill="url(#linearGradient-23)" fill-rule="nonzero"></path>
                        </g>
                    </g>
                </g>
            </g>
        </g>
    </g>
</svg>