<svg width="36" height="36" viewBox="0 0 36 36" fill="none" xmlns="http://www.w3.org/2000/svg">
<rect width="36" height="36" rx="18" fill="#3C3C43" fill-opacity="0.1"/>
<path fill-rule="evenodd" clip-rule="evenodd" d="M9.99964 15.387L8.69549 15.5694C8.29422 15.6241 7.99554 15.9661 8.0001 16.3719V19.63C8.0001 20.0336 8.2965 20.3756 8.69777 20.4326L10.0019 20.615C10.2915 20.6537 10.5263 20.8498 10.6403 21.1188C10.8957 21.7276 11.2263 22.2976 11.6184 22.8174C11.794 23.05 11.8464 23.3532 11.737 23.6222L11.2422 24.842C11.0917 25.2159 11.2377 25.6446 11.5888 25.8475L14.4091 27.4754C14.7602 27.6783 15.2048 27.5917 15.4533 27.2725L16.2604 26.2396C16.4406 26.0071 16.7324 25.8999 17.0242 25.9364C17.3434 25.9774 17.6695 26.0002 18.0001 26.0002C18.3306 26.0002 18.6567 25.9774 18.9759 25.9364C19.2677 25.8999 19.5596 26.0071 19.7397 26.2396L20.5468 27.2725C20.7953 27.5917 21.2399 27.6783 21.591 27.4754L24.4113 25.8475C24.7624 25.6469 24.9106 25.2159 24.7579 24.842L24.2631 23.6222C24.1537 23.3532 24.2061 23.05 24.3817 22.8174C24.7738 22.2976 25.1022 21.7276 25.3598 21.1188C25.4738 20.8521 25.7086 20.656 25.9982 20.615L27.3023 20.4326C27.7013 20.3756 28 20.0336 28 19.63V16.3719C28 15.9661 27.7013 15.6241 27.3 15.5671L25.9959 15.3847C25.7064 15.3459 25.4715 15.1499 25.3575 14.8808C25.1022 14.2721 24.7716 13.7021 24.3794 13.1823C24.2038 12.9497 24.1514 12.6487 24.2608 12.3774L24.7556 11.1576C24.9061 10.7837 24.7602 10.3551 24.409 10.1522L21.5887 8.52428C21.2376 8.32136 20.793 8.408 20.5445 8.7272L19.7374 9.76002C19.5573 9.99258 19.2654 10.0997 18.9736 10.0633C18.6544 10.0222 18.3284 9.99942 17.9978 9.99942C17.6672 9.99942 17.3411 10.0222 17.0219 10.0633C16.7301 10.0997 16.4383 9.99258 16.2582 9.76002L15.451 8.7272C15.2025 8.408 14.7579 8.32136 14.4068 8.52428L11.5865 10.1545C11.2354 10.3551 11.0872 10.786 11.2399 11.1599L11.7347 12.3797C11.8441 12.6487 11.7917 12.952 11.6161 13.1845C11.224 13.7044 10.8957 14.2744 10.638 14.8831C10.524 15.1499 10.2892 15.3459 9.99964 15.387ZM21.9978 17.9998C21.9978 20.2086 20.2066 21.9998 17.9978 21.9998C15.789 21.9998 13.9978 20.2086 13.9978 17.9998C13.9978 15.7911 15.789 13.9998 17.9978 13.9998C20.2066 13.9998 21.9978 15.7911 21.9978 17.9998Z" fill="black"/>
</svg>
