<svg width="36" height="36" viewBox="0 0 36 36" fill="none" xmlns="http://www.w3.org/2000/svg">
<path opacity="0.9" d="M17.9958 2.8377L18.777 1.82105C18.5522 1.64825 18.2765 1.55457 17.993 1.55457C17.7094 1.55457 17.4338 1.64825 17.2089 1.82105L17.9958 2.8377ZM31.4249 6.7837H32.7058C32.708 6.61378 32.6766 6.44509 32.6133 6.28736C32.5501 6.12964 32.4562 5.98603 32.3371 5.8648C32.218 5.74358 32.0761 5.64714 31.9195 5.58107C31.7629 5.515 31.5948 5.4806 31.4249 5.47985V6.7837ZM17.9958 34.2161L17.2836 35.2845C17.4935 35.425 17.7404 35.5 17.993 35.5C18.2456 35.5 18.4924 35.425 18.7023 35.2845L17.9958 34.2161ZM4.57835 6.7837V5.49709C4.40841 5.49783 4.2403 5.53223 4.08374 5.5983C3.92717 5.66437 3.78524 5.76081 3.66615 5.88204C3.54706 6.00326 3.45316 6.14687 3.38989 6.30459C3.32661 6.46232 3.2952 6.63101 3.29748 6.80093L4.57835 6.7837ZM17.2147 3.84861C23.0274 8.3518 29.6845 8.0646 31.4306 8.0646V5.49709C29.6213 5.49709 23.8258 5.72684 18.7942 1.82105L17.2147 3.84861ZM30.1498 6.76073C30.0521 12.7113 29.7994 16.91 29.3169 20.0174C28.8344 23.1248 28.1681 24.9399 27.2893 26.238C26.4105 27.5361 25.2847 28.3804 23.6363 29.3626C21.9878 30.3448 19.8798 31.4361 17.2836 33.1535L18.7311 35.2845C21.1894 33.6475 23.2342 32.6021 24.9746 31.5625C26.7283 30.6075 28.2501 29.2779 29.4318 27.6682C30.5805 25.9451 31.3674 23.6475 31.8729 20.408C32.3784 17.1685 32.6368 12.809 32.7345 6.80093L30.1498 6.76073ZM18.7311 33.1535C16.1521 31.4304 14.0499 30.362 12.4129 29.3684C10.7759 28.3747 9.65014 27.582 8.76554 26.238C7.88104 24.8939 7.16306 23.1076 6.66909 20.0174C6.17513 16.9273 5.95686 12.7113 5.85922 6.76073L3.29748 6.80093C3.39512 12.809 3.65934 17.18 4.15905 20.408C4.65876 23.636 5.42269 25.9336 6.59442 27.6682C7.77045 29.2788 9.28874 30.6088 11.0401 31.5625C12.7632 32.6021 14.8253 33.6475 17.2836 35.2845L18.7311 33.1535ZM4.57835 8.0646C6.30149 8.0646 12.9643 8.3518 18.777 3.84861L17.2089 1.82105C12.1659 5.72684 6.37042 5.49709 4.5726 5.49709L4.57835 8.0646Z" fill="#3688EB"/>
</svg>
