<?xml version="1.0" encoding="UTF-8"?>
<svg width="50px" height="50px" viewBox="0 0 50 50" version="1.1" xmlns="http://www.w3.org/2000/svg" xmlns:xlink="http://www.w3.org/1999/xlink">
    <title>警告icon备份</title>
    <defs>
        <rect id="path-1" x="0" y="0" width="50" height="50"></rect>
    </defs>
    <g id="PC" stroke="none" stroke-width="1" fill="none" fill-rule="evenodd">
        <g id="兑换弹窗-中文" transform="translate(-1254.000000, -198.000000)">
            <g id="编组-4" transform="translate(0.000000, 75.000000)">
                <g id="编组-223" transform="translate(957.000000, 25.000000)">
                    <g id="警告" transform="translate(297.000000, 98.000000)">
                        <mask id="mask-2" fill="white">
                            <use xlink:href="#path-1"></use>
                        </mask>
                        <g id="蒙版"></g>
                        <g mask="url(#mask-2)" id="编组-226">
                            <g transform="translate(-2.500000, 0.000000)">
                                <path d="M32.3104842,7.87382578 L48.5939284,33.2606128 C50.3829926,36.0498624 49.572182,39.7613191 46.7829324,41.5503832 C45.8162688,42.1704149 44.6919693,42.5 43.5435452,42.5 L10.9766568,42.5 C7.66294832,42.5 4.97665682,39.8137085 4.97665682,36.5 C4.97665682,35.3515759 5.30624188,34.2272764 5.92627361,33.2606128 L22.2097178,7.87382578 C23.998782,5.08457616 27.7102386,4.27376563 30.4994882,6.06282979 C31.2264586,6.52911884 31.8441952,7.14685545 32.3104842,7.87382578 Z" id="三角形" fill="#FF4953"></path>
                                <g id="编组-227" transform="translate(25.500000, 13.750000)" fill="#FFFFFF">
                                    <path d="M1.875,0 C2.84962015,0 3.65056085,0.743610104 3.74141678,1.69442499 L3.75,1.875 L3.75,15.375 C3.75,16.4105339 2.91053391,17.25 1.875,17.25 C0.900379853,17.25 0.0994391523,16.5063899 0.00858322258,15.555575 L0,15.375 L0,1.875 C0,0.839466094 0.839466094,0 1.875,0 Z" id="直线-2" fill-rule="nonzero"></path>
                                    <circle id="椭圆形" cx="1.875" cy="21" r="1.875"></circle>
                                </g>
                            </g>
                        </g>
                    </g>
                </g>
            </g>
        </g>
    </g>
</svg>