<?xml version="1.0" encoding="UTF-8"?>
<svg width="20px" height="20px" viewBox="0 0 20 20" version="1.1" xmlns="http://www.w3.org/2000/svg" xmlns:xlink="http://www.w3.org/1999/xlink">
    <title>Weibo icon</title>
    <g id="H5" stroke="none" stroke-width="1" fill="none" fill-rule="evenodd">
        <g id="HECO右上角设置icon" transform="translate(-189.000000, -477.000000)" fill="#8491B3" fill-rule="nonzero">
            <g id="更多弹窗" transform="translate(13.000000, 246.000000)">
                <g id="官方链接" transform="translate(19.000000, 151.000000)">
                    <g id="Weibo-icon" transform="translate(157.000000, 80.000000)">
                        <path d="M9.99810693,0 C15.5223135,0 19.9962139,4.47474747 19.9962139,10 C19.9962139,15.5252525 15.5223135,20 9.99810693,20 C4.47390038,20 0,15.5252525 0,10 C0,4.47474747 4.47390038,0 9.99810693,0 Z M8.33220419,5.83091538 C8.06848351,5.85292947 7.7725303,5.92190695 7.43994922,6.03638023 C7.03997285,6.1743352 6.63413603,6.37686484 6.22243874,6.64543675 C5.81074146,6.91400866 5.45325342,7.19432143 5.15143976,7.48637504 C4.84816097,7.77842865 4.57125426,8.06167662 4.3192545,8.33611896 C4.06725474,8.61056129 3.87385957,8.83363742 3.73613877,9.00681493 L3.54713895,9.28125727 C3.17060442,9.77437292 2.88930236,10.266021 2.70762812,10.7591366 C2.54738117,11.1893286 2.46116832,11.5285062 2.44997107,11.7747028 L2.4497679,12.2355483 C2.5186283,12.784433 2.68711651,13.2775486 2.95523253,13.7134276 C3.22334856,14.1493066 3.54420872,14.5015321 3.91488279,14.770104 C4.28555685,15.0386759 4.72362621,15.2676225 5.22616062,15.4569437 C5.72869502,15.6462648 6.21218294,15.7827522 6.67515924,15.869341 C7.13813555,15.9559297 7.62748392,16.014634 8.14173925,16.0498565 C8.98711054,16.118834 9.86471436,16.0527917 10.7730856,15.8531973 C11.6814568,15.6521353 12.5282932,15.3057802 13.3106646,14.8141322 C14.0945011,14.3210166 14.6453843,13.7325065 14.9647793,13.0441993 C15.1596396,12.6435428 15.2592674,12.2649004 15.2651279,11.9097398 C15.2709883,11.5545791 15.2109186,11.2654607 15.0849187,11.0423846 C14.9589188,10.8193084 14.7962911,10.6211816 14.5955703,10.4494717 C14.3948496,10.2777618 14.2073149,10.1515477 14.030036,10.0708293 C13.8527571,9.99011101 13.6959898,9.9387448 13.558269,9.9167307 L13.5611992,9.91819831 C13.3897808,9.88444337 13.2784321,9.83160955 13.227153,9.76409967 C13.175874,9.69512219 13.1670833,9.63201513 13.200781,9.57477849 L13.25206,9.48965734 C13.2637809,9.47791649 13.2755018,9.46177282 13.2872228,9.43829112 C13.2989437,9.41480943 13.3223855,9.36637842 13.3560832,9.29153051 C13.3897808,9.2166826 13.4161529,9.1433023 13.4337342,9.06845439 C13.4513156,8.99360648 13.4659668,8.9026149 13.4762226,8.79401205 C13.4864784,8.6854092 13.4835481,8.58267678 13.4674319,8.48434717 C13.4513156,8.38748517 13.4161529,8.28034993 13.3648738,8.16734426 C13.3135948,8.05287098 13.2418042,7.95013856 13.1509671,7.85767937 C12.9912695,7.69771031 12.7817581,7.59351028 12.525363,7.54801449 C12.2675028,7.5025187 12.0111077,7.49958349 11.7532475,7.53920885 C11.4953872,7.57883422 11.2536433,7.63020043 11.0250854,7.69330749 C10.7965274,7.75641455 10.6075276,7.8165864 10.459551,7.87382304 L10.2368535,7.97655547 C10.1225746,8.01031041 10.0273421,8.0337921 9.95408637,8.04553295 C9.87936551,8.0572738 9.82222603,8.05433859 9.78266793,8.03672732 C9.74310983,8.01911604 9.7108773,8.00297238 9.68890058,7.9853611 C9.66692385,7.96774983 9.65813316,7.92812447 9.66252851,7.8650174 C9.66692385,7.80191034 9.67424943,7.74760892 9.68010989,7.70211313 C9.68597035,7.65661734 9.7006215,7.58470464 9.72259822,7.48784264 C9.74457494,7.39098064 9.76215632,7.31319752 9.77387724,7.25596088 C9.77387724,7.11800591 9.76508655,6.99032418 9.74750517,6.86998048 C9.72992379,6.74963678 9.69329592,6.61461702 9.63615644,6.46638881 C9.57901696,6.3181606 9.49550541,6.1978169 9.38708691,6.10535771 C9.27866841,6.01289853 9.14094761,5.93951823 8.97538962,5.88228159 C8.80983164,5.82504495 8.59592487,5.80743368 8.33220419,5.83091538 Z M11.4880617,10.0370744 C12.3451539,10.5067083 12.7744325,11.1480522 12.7744325,11.961106 C12.7744325,12.7859006 12.3378283,13.5270417 11.4631547,14.1859968 C10.587016,14.8449519 9.5438542,15.2015802 8.33220419,15.2602844 C7.09711233,15.3175211 6.04955518,15.0768337 5.18660251,14.5382223 C4.32364984,13.9996108 3.89290606,13.3186416 3.89290606,12.493847 C3.89290606,11.6807932 4.32218473,10.9792775 5.17927694,10.3892999 C6.03636915,9.79932222 7.08832164,9.47644888 8.3336693,9.41921224 C9.57901696,9.36197561 10.6309695,9.56744046 11.4880617,10.0370744 Z M7.83553024,10.5023055 C7.50441427,10.5360605 7.20699595,10.6138436 6.94327527,10.7341873 C6.67955459,10.854531 6.4744385,10.992486 6.3264619,11.1465846 C6.1784853,11.3006832 6.05248541,11.4665227 5.94846226,11.6441031 C5.84590421,11.8216834 5.77411358,11.9963285 5.73455548,12.1680384 C5.69499738,12.3397483 5.66862531,12.4967822 5.65690439,12.6406076 C5.64518347,12.7829654 5.63932301,12.8945034 5.63932301,12.9752218 L5.65690439,13.1131767 L5.65690439,13.1821542 C5.65690439,13.2159092 5.66862531,13.2848867 5.69206715,13.3876191 C5.71550899,13.4903515 5.7462764,13.5857459 5.7858345,13.6708671 C5.82539261,13.7574558 5.89132278,13.8513826 5.9821599,13.954115 C6.07299702,14.0568475 6.18288064,14.1434362 6.30741541,14.2124137 C7.06194957,14.5793152 7.76520472,14.6908533 8.41718085,14.5470279 C9.06915698,14.4032025 9.59513322,14.0744587 9.99510959,13.559329 C10.1548071,13.3641374 10.2617605,13.1249176 10.3115744,12.8372668 C10.3628534,12.5510836 10.3511325,12.2619652 10.2764116,11.9699116 C10.2016908,11.677858 10.0742258,11.4122213 9.89108643,11.1715339 C9.70794707,10.9308465 9.43690081,10.7444605 9.07648255,10.6138436 C8.7175294,10.481759 8.30290189,10.4436013 7.83553024,10.5023055 Z M7.46632129,12.3294751 C7.56301887,12.3470864 7.64653042,12.3749709 7.71539082,12.4145963 C7.78425122,12.4542216 7.84432093,12.4997174 7.89559995,12.5525512 C7.94687897,12.6039174 7.98497196,12.6640893 8.00694868,12.7330668 C8.0289254,12.8020443 8.04064632,12.8754246 8.04211144,12.9561429 C8.04211144,13.082357 8.00548357,13.2027007 7.93076271,13.317174 C7.85604185,13.4316473 7.75641403,13.5285093 7.63041415,13.6092276 C7.50441427,13.6899459 7.36669347,13.7354417 7.21725175,13.7486502 C7.14839135,13.760391 7.08246118,13.7633262 7.02092636,13.7574558 C6.95792642,13.7515854 6.90078694,13.7398445 6.84950792,13.7222333 C6.79822889,13.704622 6.74548476,13.6840755 6.69567085,13.6620614 C6.64439183,13.6400473 6.6019035,13.60776 6.56674074,13.5681346 C6.53157798,13.5270417 6.50081057,13.4874163 6.47297339,13.4477909 C6.44513621,13.4081656 6.42169437,13.3626698 6.40411299,13.309836 C6.38653161,13.2584698 6.37774092,13.2027007 6.37774092,13.1469317 C6.37774092,13.0207176 6.41143856,12.8974387 6.48029896,12.777095 C6.54915936,12.6567513 6.64292672,12.5540188 6.76306614,12.4674301 C6.88320556,12.3808413 7.01799613,12.3324103 7.16597273,12.3206695 C7.26853077,12.3089286 7.36815859,12.3118638 7.46632129,12.3294751 Z M8.61350625,11.912675 C8.69848291,11.9244158 8.75855262,11.9699116 8.79371538,12.0506299 C8.82741302,12.0961257 8.84206417,12.1474919 8.83620371,12.2047286 C8.83034325,12.2619652 8.81276187,12.3162666 8.78492469,12.3676329 C8.75855262,12.4175315 8.72045963,12.4659625 8.67504107,12.5114583 C8.59445975,12.5686949 8.51241332,12.5951118 8.42597154,12.5892414 C8.34099488,12.583371 8.28092516,12.5466808 8.24576241,12.4777033 L8.21059965,12.4087258 C8.19887873,12.3852441 8.19301827,12.36323 8.19301827,12.3397483 L8.19301827,12.2722385 C8.19301827,12.2384835 8.19887873,12.2091314 8.21059965,12.1871173 L8.24576241,12.1181398 C8.25748333,12.0946581 8.27359959,12.0785145 8.29704143,12.0667736 L8.34832045,11.9977961 C8.43915757,11.9288186 8.52852958,11.9009341 8.61350625,11.912675 Z M12.4477119,4.1475712 C12.435991,4.1475712 12.4242701,4.15344163 12.4125492,4.16518248 L12.3949678,4.20040502 L12.3773864,4.21801629 C12.2513865,4.25177123 12.1488285,4.32368393 12.0682472,4.43228678 C11.9876658,4.54088963 11.9481077,4.65829812 11.9481077,4.78451224 C11.9481077,4.95622215 12.0052472,5.10004755 12.1195262,5.21305322 C12.2338051,5.32752649 12.3715259,5.38476313 12.5312235,5.38476313 L12.5825025,5.38476313 C12.5942234,5.38476313 12.6191304,5.3788927 12.6601536,5.36715186 C12.7011768,5.35541101 12.7436651,5.34660537 12.7890837,5.34073495 C12.8345022,5.33486452 12.882851,5.32312367 12.9355952,5.3055124 C12.9868742,5.28790113 13.0337579,5.27175746 13.073316,5.25414619 C13.1128741,5.23653491 13.1905252,5.22772928 13.3048041,5.22772928 C13.4190831,5.22772928 13.5597341,5.23653491 13.7252921,5.25414619 C13.8908501,5.27175746 14.0739894,5.31431804 14.2747102,5.38329552 C14.4754309,5.45227301 14.6746866,5.53739416 14.8754073,5.64159419 C15.076128,5.74579422 15.2753837,5.88815201 15.4761044,6.07013517 C15.6768251,6.25358593 15.8511738,6.4649212 15.9991504,6.7056086 C16.2965687,7.3807074 16.3537082,8.0337921 16.1705689,8.66339511 L16.1683712,8.68100639 L16.1683712,8.68100639 L16.1617782,8.69861766 C16.1559177,8.71035851 16.147127,8.73824302 16.1354061,8.78373881 C16.1236852,8.8292346 16.1119643,8.87179518 16.1002433,8.91288815 C16.0885224,8.95251351 16.0768015,9.00534733 16.0650806,9.06698678 C16.0533597,9.13009385 16.0474992,9.18439527 16.0474992,9.22989106 C16.0474992,9.33262348 16.0753364,9.41921224 16.1324759,9.48818973 C16.1896154,9.55716722 16.261406,9.60559822 16.3463826,9.63495034 C16.4313593,9.66430246 16.5324522,9.67751091 16.6467312,9.67751091 C16.9661262,9.67751091 17.1551261,9.48231931 17.2122655,9.09340369 C17.3499863,8.64725145 17.4261723,8.22017808 17.4437537,7.81365119 C17.4613351,7.40712431 17.4320328,7.04902842 17.358777,6.74083115 C17.2840562,6.43116626 17.1727074,6.14204787 17.0247308,5.87347595 C16.8767542,5.60490404 16.7053358,5.37595749 16.5104755,5.18663631 C16.3156152,4.99731512 16.0987782,4.82560521 15.8584994,4.67150657 C15.6182205,4.51740793 15.3867324,4.39412902 15.1640349,4.30166984 C14.9413375,4.21067826 14.7098493,4.13583035 14.4710356,4.07859372 C13.9685012,3.96412044 13.2930832,3.98613453 12.4477119,4.1475712 Z M12.9473161,6.27560002 C12.8667348,6.27560002 12.7993395,6.2961465 12.7422,6.33577187 C12.6850605,6.37539723 12.6367117,6.42676345 12.5956885,6.48987051 C12.5546653,6.55297757 12.5356188,6.61901984 12.5356188,6.68652972 C12.5356188,6.801003 12.5751769,6.897865 12.6557582,6.97858333 C12.7363396,7.05783406 12.8330371,7.09892703 12.9473161,7.09892703 C13.8395711,6.89199457 14.3186636,7.17964536 14.387524,7.95747659 C14.4109659,8.1526682 14.399245,8.33465135 14.3523613,8.50782887 C14.3523613,8.62230214 14.3919194,8.71916414 14.4725007,8.79988248 C14.5501518,8.88060081 14.6468494,8.92022618 14.7625934,8.92169378 C14.8314538,8.92169378 14.8944538,8.90408251 14.9515933,8.87032757 C15.0087327,8.83657263 15.0541513,8.79254445 15.0893141,8.74117823 C15.1230117,8.68981202 15.1464535,8.6355106 15.1581745,8.57827396 C15.1698954,8.56653311 15.1757558,8.55038944 15.1757558,8.52690775 C15.3134766,7.22073833 14.8563608,6.47666205 13.8044083,6.29321129 C13.4952691,6.23597465 13.2095717,6.23010423 12.9473161,6.27560002 Z" id="形状结合"></path>
                    </g>
                </g>
            </g>
        </g>
    </g>
</svg>