<?xml version="1.0" encoding="UTF-8"?>
<svg width="21px" height="20px" viewBox="0 0 21 20" version="1.1" xmlns="http://www.w3.org/2000/svg" xmlns:xlink="http://www.w3.org/1999/xlink">
    <title>Weibo</title>
    <defs>
        <filter color-interpolation-filters="auto" id="filter-1">
            <feColorMatrix in="SourceGraphic" type="matrix" values="0 0 0 0 0.427451 0 0 0 0 0.447059 0 0 0 0 0.470588 0 0 0 1.000000 0"></feColorMatrix>
        </filter>
    </defs>
    <g id="组件库" stroke="none" stroke-width="1" fill="none" fill-rule="evenodd">
        <g id="底部" transform="translate(-540.000000, -119.000000)">
            <g id="编组-16" transform="translate(358.000000, 50.000000)">
                <g id="Weibo" transform="translate(0.000000, 69.000000)" filter="url(#filter-1)">
                    <g transform="translate(182.051282, 0.000000)">
                        <path d="M9.99810693,0 C15.5223135,0 19.9962139,4.46715181 19.9962139,9.9830255 C19.9962139,15.4988992 15.5223135,19.966051 9.99810693,19.966051 C4.47390038,19.966051 0,15.4988992 0,9.9830255 C0,4.46715181 4.47390038,0 9.99810693,0 Z M8.33220419,5.82101769 C8.06848351,5.84299441 7.7725303,5.91185481 7.43994922,6.02613377 C7.03997285,6.16385457 6.63413603,6.36604043 6.22243874,6.63415645 C5.81074146,6.90227248 5.45325342,7.18210942 5.15143976,7.47366728 C4.84816097,7.76522515 4.57125426,8.04799232 4.3192545,8.32196881 C4.06725474,8.59594529 3.87385957,8.81864276 3.73613877,8.99152631 L3.54713895,9.2655028 C3.17060442,9.7577814 2.88930236,10.2485949 2.70762812,10.7408735 C2.54738117,11.1703353 2.46116832,11.5089371 2.44997107,11.7547158 L2.4497679,12.2147791 C2.5186283,12.762732 2.68711651,13.2550106 2.95523253,13.6901498 C3.22334856,14.1252889 3.54420872,14.4769165 3.91488279,14.7450325 C4.28555685,15.0131485 4.72362621,15.2417064 5.22616062,15.4307063 C5.72869502,15.6197061 6.21218294,15.7559618 6.67515924,15.8424035 C7.13813555,15.9288453 7.62748392,15.9874499 8.14173925,16.0226127 C8.98711054,16.0914731 9.86471436,16.0255429 10.7730856,15.8262873 C11.6814568,15.6255665 12.5282932,15.2797994 13.3106646,14.7889859 C14.0945011,14.2967073 14.6453843,13.7091963 14.9647793,13.0220574 C15.1596396,12.622081 15.2592674,12.2440814 15.2651279,11.8895236 C15.2709883,11.5349658 15.2109186,11.2463381 15.0849187,11.0236407 C14.9589188,10.8009432 14.7962911,10.6031527 14.5955703,10.4317343 C14.3948496,10.2603158 14.2073149,10.1343159 14.030036,10.0537346 C13.8527571,9.97315329 13.6959898,9.92187427 13.558269,9.89989755 L13.5611992,9.90136266 C13.3897808,9.86766502 13.2784321,9.81492088 13.227153,9.7475256 C13.175874,9.6786652 13.1670833,9.61566526 13.200781,9.55852578 L13.25206,9.47354911 C13.2637809,9.46182819 13.2755018,9.44571193 13.2872228,9.42227009 C13.2989437,9.39882825 13.3223855,9.35047946 13.3560832,9.2757586 C13.3897808,9.20103774 13.4161529,9.127782 13.4337342,9.05306114 C13.4513156,8.97834028 13.4659668,8.88750316 13.4762226,8.77908465 C13.4864784,8.67066615 13.4835481,8.56810811 13.4674319,8.46994541 C13.4513156,8.37324783 13.4161529,8.26629444 13.3648738,8.15348059 C13.3135948,8.03920163 13.2418042,7.93664359 13.1509671,7.84434135 C12.9912695,7.68464383 12.7817581,7.58062067 12.525363,7.53520211 C12.2675028,7.48978355 12.0111077,7.48685332 11.7532475,7.52641142 C11.4953872,7.56596952 11.2536433,7.61724854 11.0250854,7.68024848 C10.7965274,7.74324842 10.6075276,7.80331814 10.459551,7.86045762 L10.2368535,7.96301566 C10.1225746,7.9967133 10.0273421,8.02015514 9.95408637,8.03187606 C9.87936551,8.04359698 9.82222603,8.04066675 9.78266793,8.02308537 C9.74310983,8.00550399 9.7108773,7.98938773 9.68890058,7.97180635 C9.66692385,7.95422497 9.65813316,7.91466687 9.66252851,7.85166693 C9.66692385,7.78866699 9.67424943,7.73445774 9.68010989,7.68903917 C9.68597035,7.64362061 9.7006215,7.57182998 9.72259822,7.4751324 C9.74457494,7.37843482 9.76215632,7.30078373 9.77387724,7.24364425 C9.77387724,7.10592345 9.76508655,6.97845845 9.74750517,6.85831903 C9.72992379,6.73817961 9.69329592,6.60338904 9.63615644,6.45541243 C9.57901696,6.30743583 9.49550541,6.18729641 9.38708691,6.09499417 C9.27866841,6.00269193 9.14094761,5.92943619 8.97538962,5.87229671 C8.80983164,5.81515723 8.59592487,5.79757585 8.33220419,5.82101769 Z M11.4880617,10.020037 C12.3451539,10.4888737 12.7744325,11.1291289 12.7744325,11.9408026 C12.7744325,12.7641972 12.3378283,13.5040802 11.4631547,14.1619168 C10.587016,14.8197534 9.5438542,15.1757763 8.33220419,15.2343809 C7.09711233,15.2915203 6.04955518,15.0512415 5.18660251,14.5135443 C4.32364984,13.9758472 3.89290606,13.2960339 3.89290606,12.4726393 C3.89290606,11.6609656 4.32218473,10.9606407 5.17927694,10.3716645 C6.03636915,9.78268835 7.08832164,9.46036308 8.3336693,9.4032236 C9.57901696,9.34608412 10.6309695,9.5512002 11.4880617,10.020037 Z M7.83553024,10.4844784 C7.50441427,10.518176 7.20699595,10.5958271 6.94327527,10.7159665 C6.67955459,10.836106 6.4744385,10.9738268 6.3264619,11.1276638 C6.1784853,11.2815009 6.05248541,11.4470589 5.94846226,11.6243378 C5.84590421,11.8016167 5.77411358,11.9759653 5.73455548,12.1473838 C5.69499738,12.3188022 5.66862531,12.4755695 5.65690439,12.6191508 C5.64518347,12.7612669 5.63932301,12.8726157 5.63932301,12.953197 L5.65690439,13.0909178 L5.65690439,13.1597782 C5.65690439,13.1934758 5.66862531,13.2623362 5.69206715,13.3648943 C5.71550899,13.4674523 5.7462764,13.5626848 5.7858345,13.6476614 C5.82539261,13.7341032 5.89132278,13.8278706 5.9821599,13.9304286 C6.07299702,14.0329867 6.18288064,14.1194284 6.30741541,14.1882888 C7.06194957,14.5545676 7.76520472,14.6659163 8.41718085,14.522335 C9.06915698,14.3787538 9.59513322,14.050568 9.99510959,13.5363127 C10.1548071,13.3414524 10.2617605,13.1026387 10.3115744,12.8154762 C10.3628534,12.5297788 10.3511325,12.2411511 10.2764116,11.9495933 C10.2016908,11.6580354 10.0742258,11.3928496 9.89108643,11.1525708 C9.70794707,10.9122919 9.43690081,10.7262223 9.07648255,10.5958271 C8.7175294,10.4639668 8.30290189,10.4258738 7.83553024,10.4844784 Z M7.46632129,12.3085464 C7.56301887,12.3261278 7.64653042,12.353965 7.71539082,12.3935231 C7.78425122,12.4330812 7.84432093,12.4784998 7.89559995,12.5312439 C7.94687897,12.5825229 7.98497196,12.6425926 8.00694868,12.711453 C8.0289254,12.7803134 8.04064632,12.8535692 8.04211144,12.9341505 C8.04211144,13.0601504 8.00548357,13.1802898 7.93076271,13.2945688 C7.85604185,13.4088477 7.75641403,13.5055453 7.63041415,13.5861266 C7.50441427,13.6667079 7.36669347,13.7121265 7.21725175,13.7253125 C7.14839135,13.7370334 7.08246118,13.7399637 7.02092636,13.7341032 C6.95792642,13.7282428 6.90078694,13.7165218 6.84950792,13.6989405 C6.79822889,13.6813591 6.74548476,13.6608475 6.69567085,13.6388707 C6.64439183,13.616894 6.6019035,13.5846615 6.56674074,13.5451034 C6.53157798,13.5040802 6.50081057,13.4645221 6.47297339,13.424964 C6.44513621,13.3854059 6.42169437,13.3399873 6.40411299,13.2872432 C6.38653161,13.2359642 6.37774092,13.1802898 6.37774092,13.1246154 C6.37774092,12.9986155 6.41143856,12.8755459 6.48029896,12.7554065 C6.54915936,12.635267 6.64292672,12.532709 6.76306614,12.4462672 C6.88320556,12.3598254 7.01799613,12.3114767 7.16597273,12.2997557 C7.26853077,12.2880348 7.36815859,12.290965 7.46632129,12.3085464 Z M8.61350625,11.8924538 C8.69848291,11.9041747 8.75855262,11.9495933 8.79371538,12.0301746 C8.82741302,12.0755932 8.84206417,12.1268722 8.83620371,12.1840117 C8.83034325,12.2411511 8.81276187,12.2953604 8.78492469,12.3466394 C8.75855262,12.3964533 8.72045963,12.4448021 8.67504107,12.4902207 C8.59445975,12.5473602 8.51241332,12.5737322 8.42597154,12.5678718 C8.34099488,12.5620113 8.28092516,12.5253834 8.24576241,12.456523 L8.21059965,12.3876626 C8.19887873,12.3642208 8.19301827,12.3422441 8.19301827,12.3188022 L8.19301827,12.2514069 C8.19301827,12.2177093 8.19887873,12.188407 8.21059965,12.1664303 L8.24576241,12.0975699 C8.25748333,12.074128 8.27359959,12.0580118 8.29704143,12.0462909 L8.34832045,11.9774305 C8.43915757,11.9085701 8.52852958,11.8807329 8.61350625,11.8924538 Z M12.4477119,4.14053091 C12.435991,4.14053091 12.4242701,4.14639137 12.4125492,4.15811228 L12.3949678,4.19327504 L12.3773864,4.21085642 C12.2513865,4.24455406 12.1488285,4.31634469 12.0682472,4.42476319 C11.9876658,4.5331817 11.9481077,4.65039089 11.9481077,4.77639077 C11.9481077,4.94780921 12.0052472,5.09139047 12.1195262,5.20420432 C12.2338051,5.31848328 12.3715259,5.37562276 12.5312235,5.37562276 L12.5825025,5.37562276 C12.5942234,5.37562276 12.6191304,5.3697623 12.6601536,5.35804138 C12.7011768,5.34632046 12.7436651,5.33752977 12.7890837,5.33166931 C12.8345022,5.32580885 12.882851,5.31408793 12.9355952,5.29650656 C12.9868742,5.27892518 13.0337579,5.26280891 13.073316,5.24522753 C13.1128741,5.22764616 13.1905252,5.21885547 13.3048041,5.21885547 C13.4190831,5.21885547 13.5597341,5.22764616 13.7252921,5.24522753 C13.8908501,5.26280891 14.0739894,5.30529724 14.2747102,5.37415764 C14.4754309,5.44301804 14.6746866,5.52799471 14.8754073,5.63201787 C15.076128,5.73604102 15.2753837,5.87815717 15.4761044,6.05983141 C15.6768251,6.24297078 15.8511738,6.45394732 15.9991504,6.69422616 C16.2965687,7.36817901 16.3537082,8.02015514 16.1705689,8.64868943 L16.1683712,8.66627081 L16.1683712,8.66627081 L16.1617782,8.68385219 C16.1559177,8.6955731 16.147127,8.72341029 16.1354061,8.76882885 C16.1236852,8.81424741 16.1119643,8.85673574 16.1002433,8.89775896 C16.0885224,8.93731706 16.0768015,8.9900612 16.0650806,9.05159602 C16.0533597,9.11459596 16.0474992,9.16880521 16.0474992,9.21422378 C16.0474992,9.31678182 16.0753364,9.4032236 16.1324759,9.472084 C16.1896154,9.5409444 16.261406,9.58929319 16.3463826,9.61859549 C16.4313593,9.64789778 16.5324522,9.66108382 16.6467312,9.66108382 C16.9661262,9.66108382 17.1551261,9.46622354 17.2122655,9.07796809 C17.3499863,8.63257316 17.4261723,8.20622473 17.4437537,7.80038791 C17.4613351,7.39455108 17.4320328,7.03706305 17.358777,6.72938892 C17.2840562,6.42024968 17.1727074,6.13162204 17.0247308,5.86350602 C16.8767542,5.59538999 16.7053358,5.36683207 16.5104755,5.17783225 C16.3156152,4.98883243 16.0987782,4.81741399 15.8584994,4.66357692 C15.6182205,4.50973986 15.3867324,4.38667021 15.1640349,4.29436797 C14.9413375,4.20353085 14.7098493,4.12880999 14.4710356,4.07167051 C13.9685012,3.95739154 13.2930832,3.97936827 12.4477119,4.14053091 Z M12.9473161,6.2649475 C12.8667348,6.2649475 12.7993395,6.28545911 12.7422,6.32501721 C12.6850605,6.36457531 12.6367117,6.41585433 12.5956885,6.47885427 C12.5546653,6.54185421 12.5356188,6.60778438 12.5356188,6.67517967 C12.5356188,6.78945863 12.5751769,6.88615621 12.6557582,6.96673753 C12.7363396,7.04585374 12.8330371,7.08687695 12.9473161,7.08687695 C13.8395711,6.88029575 14.3186636,7.16745827 14.387524,7.94396917 C14.4109659,8.13882945 14.399245,8.32050369 14.3523613,8.49338725 C14.3523613,8.60766621 14.3919194,8.70436379 14.4725007,8.78494511 C14.5501518,8.86552643 14.6468494,8.90508453 14.7625934,8.90654965 C14.8314538,8.90654965 14.8944538,8.88896827 14.9515933,8.85527063 C15.0087327,8.82157299 15.0541513,8.77761954 15.0893141,8.72634052 C15.1230117,8.6750615 15.1464535,8.62085225 15.1581745,8.56371276 C15.1698954,8.55199185 15.1757558,8.53587558 15.1757558,8.51243374 C15.3134766,7.20848149 14.8563608,6.46566824 13.8044083,6.28252888 C13.4952691,6.2253894 13.2095717,6.21952894 12.9473161,6.2649475 Z" id="形状结合" fill="#485266" fill-rule="nonzero"></path>
                    </g>
                </g>
            </g>
        </g>
    </g>
</svg>